%TF.GenerationSoftware,KiCad,Pcbnew,10.0.3*%
%TF.CreationDate,2026-08-04T14:19:25+02:00*%
%TF.ProjectId,Uklad_wzmacniaczy,556b6c61-645f-4777-9a6d-61636e696163,rev?*%
%TF.SameCoordinates,Original*%
%TF.FileFunction,Soldermask,Top*%
%TF.FilePolarity,Negative*%
%FSLAX46Y46*%
G04 Gerber Fmt 4.6, Leading zero omitted, Abs format (unit mm)*
G04 Created by KiCad (PCBNEW 10.0.3) date 2026-08-04 14:19:25*
%MOMM*%
%LPD*%
G01*
G04 APERTURE LIST*
G04 Aperture macros list*
%AMRoundRect*
0 Rectangle with rounded corners*
0 $1 Rounding radius*
0 $2 $3 $4 $5 $6 $7 $8 $9 X,Y pos of 4 corners*
0 Add a 4 corners polygon primitive as box body*
4,1,4,$2,$3,$4,$5,$6,$7,$8,$9,$2,$3,0*
0 Add four circle primitives for the rounded corners*
1,1,$1+$1,$2,$3*
1,1,$1+$1,$4,$5*
1,1,$1+$1,$6,$7*
1,1,$1+$1,$8,$9*
0 Add four rect primitives between the rounded corners*
20,1,$1+$1,$2,$3,$4,$5,0*
20,1,$1+$1,$4,$5,$6,$7,0*
20,1,$1+$1,$6,$7,$8,$9,0*
20,1,$1+$1,$8,$9,$2,$3,0*%
G04 Aperture macros list end*
%ADD10C,0.000000*%
%ADD11RoundRect,0.237500X0.237500X-0.250000X0.237500X0.250000X-0.237500X0.250000X-0.237500X-0.250000X0*%
%ADD12RoundRect,0.237500X-0.237500X0.300000X-0.237500X-0.300000X0.237500X-0.300000X0.237500X0.300000X0*%
%ADD13RoundRect,0.237500X0.237500X-0.300000X0.237500X0.300000X-0.237500X0.300000X-0.237500X-0.300000X0*%
%ADD14RoundRect,0.102000X-0.925000X-1.700000X0.925000X-1.700000X0.925000X1.700000X-0.925000X1.700000X0*%
%ADD15RoundRect,0.237500X-0.250000X-0.237500X0.250000X-0.237500X0.250000X0.237500X-0.250000X0.237500X0*%
%ADD16C,1.500000*%
%ADD17RoundRect,0.237500X0.300000X0.237500X-0.300000X0.237500X-0.300000X-0.237500X0.300000X-0.237500X0*%
%ADD18RoundRect,0.237500X-0.300000X-0.237500X0.300000X-0.237500X0.300000X0.237500X-0.300000X0.237500X0*%
%ADD19R,0.889000X0.939800*%
%ADD20R,1.041400X0.787400*%
%ADD21R,1.143000X1.828800*%
%ADD22R,0.863600X2.794000*%
%ADD23R,0.711200X3.327400*%
%ADD24R,0.711200X1.092200*%
%ADD25R,1.333500X0.279400*%
%ADD26R,1.778000X1.981200*%
%ADD27R,2.000000X2.000000*%
%ADD28R,1.524000X0.431800*%
%ADD29R,1.240000X0.439999*%
%ADD30R,3.039999X0.439999*%
%ADD31R,0.599999X0.249999*%
%ADD32R,0.249999X0.599999*%
%ADD33R,1.589999X0.439999*%
%ADD34R,1.512799X0.330200*%
%ADD35RoundRect,0.375000X-0.375000X0.625000X-0.375000X-0.625000X0.375000X-0.625000X0.375000X0.625000X0*%
%ADD36RoundRect,0.500000X-1.400000X0.500000X-1.400000X-0.500000X1.400000X-0.500000X1.400000X0.500000X0*%
%ADD37C,3.200000*%
%ADD38O,2.274000X4.344000*%
%ADD39RoundRect,0.237500X-0.237500X0.250000X-0.237500X-0.250000X0.237500X-0.250000X0.237500X0.250000X0*%
%ADD40R,1.700000X1.700000*%
%ADD41C,1.700000*%
%ADD42RoundRect,0.237500X0.250000X0.237500X-0.250000X0.237500X-0.250000X-0.237500X0.250000X-0.237500X0*%
%ADD43C,1.200000*%
%ADD44O,2.820000X1.512000*%
%ADD45O,1.512000X2.820000*%
%ADD46R,0.850000X0.280000*%
%ADD47R,0.280000X0.850000*%
%ADD48C,0.508000*%
%ADD49RoundRect,0.250000X-0.325000X-0.450000X0.325000X-0.450000X0.325000X0.450000X-0.325000X0.450000X0*%
%ADD50R,0.508000X1.003300*%
%ADD51RoundRect,0.050000X0.330000X0.155000X-0.330000X0.155000X-0.330000X-0.155000X0.330000X-0.155000X0*%
%ADD52R,2.469157X0.622132*%
%ADD53R,1.397000X0.431800*%
%ADD54R,1.752600X2.946400*%
%ADD55RoundRect,0.102000X0.620000X1.110000X-0.620000X1.110000X-0.620000X-1.110000X0.620000X-1.110000X0*%
%ADD56R,1.460500X0.558800*%
G04 APERTURE END LIST*
D10*
%TO.C,U14*%
G36*
X134437500Y-104680000D02*
G01*
X133462500Y-104680000D01*
X133462500Y-104300000D01*
X134437500Y-104300000D01*
X134437500Y-104680000D01*
G37*
%TO.C,U9*%
G36*
X161303923Y-92501223D02*
G01*
X160313716Y-92501223D01*
X160313716Y-92081013D01*
X161303923Y-92081013D01*
X161303923Y-92501223D01*
G37*
G36*
X161303923Y-93001222D02*
G01*
X160313716Y-93001222D01*
X160313716Y-92581015D01*
X161303923Y-92581015D01*
X161303923Y-93001222D01*
G37*
G36*
X161303923Y-93501221D02*
G01*
X160313716Y-93501221D01*
X160313716Y-93081014D01*
X161303923Y-93081014D01*
X161303923Y-93501221D01*
G37*
G36*
X161303923Y-94001223D02*
G01*
X160313716Y-94001223D01*
X160313716Y-93581013D01*
X161303923Y-93581013D01*
X161303923Y-94001223D01*
G37*
G36*
X161690119Y-94006318D02*
G01*
X161318619Y-94006318D01*
X161318619Y-92075918D01*
X161690119Y-92075918D01*
X161690119Y-94006318D01*
G37*
G36*
X161743734Y-92061222D02*
G01*
X161323526Y-92061222D01*
X161323526Y-91071015D01*
X161743734Y-91071015D01*
X161743734Y-92061222D01*
G37*
G36*
X161743734Y-95011221D02*
G01*
X161323526Y-95011221D01*
X161323526Y-94021014D01*
X161743734Y-94021014D01*
X161743734Y-95011221D01*
G37*
G36*
X162477519Y-94006318D02*
G01*
X162090119Y-94006318D01*
X162090119Y-92075918D01*
X162477519Y-92075918D01*
X162477519Y-94006318D01*
G37*
G36*
X162243860Y-92061222D02*
G01*
X161823652Y-92061222D01*
X161823652Y-91071015D01*
X162243860Y-91071015D01*
X162243860Y-92061222D01*
G37*
G36*
X162243860Y-95011221D02*
G01*
X161823652Y-95011221D01*
X161823652Y-94021014D01*
X162243860Y-94021014D01*
X162243860Y-95011221D01*
G37*
G36*
X162743986Y-92061222D02*
G01*
X162323778Y-92061222D01*
X162323778Y-91071015D01*
X162743986Y-91071015D01*
X162743986Y-92061222D01*
G37*
G36*
X162743986Y-95011221D02*
G01*
X162323778Y-95011221D01*
X162323778Y-94021014D01*
X162743986Y-94021014D01*
X162743986Y-95011221D01*
G37*
G36*
X163244112Y-92061222D02*
G01*
X162823904Y-92061222D01*
X162823904Y-91071015D01*
X163244112Y-91071015D01*
X163244112Y-92061222D01*
G37*
G36*
X163244112Y-95011221D02*
G01*
X162823904Y-95011221D01*
X162823904Y-94021014D01*
X163244112Y-94021014D01*
X163244112Y-95011221D01*
G37*
G36*
X163249019Y-92447418D02*
G01*
X161318619Y-92447418D01*
X161318619Y-92075918D01*
X163249019Y-92075918D01*
X163249019Y-92447418D01*
G37*
G36*
X163249019Y-93234818D02*
G01*
X161318619Y-93234818D01*
X161318619Y-92847418D01*
X163249019Y-92847418D01*
X163249019Y-93234818D01*
G37*
G36*
X163249019Y-94006318D02*
G01*
X161318619Y-94006318D01*
X161318619Y-93634818D01*
X163249019Y-93634818D01*
X163249019Y-94006318D01*
G37*
G36*
X163249019Y-94006318D02*
G01*
X162877519Y-94006318D01*
X162877519Y-92075918D01*
X163249019Y-92075918D01*
X163249019Y-94006318D01*
G37*
G36*
X164253922Y-92501223D02*
G01*
X163263715Y-92501223D01*
X163263715Y-92081013D01*
X164253922Y-92081013D01*
X164253922Y-92501223D01*
G37*
G36*
X164253922Y-93001222D02*
G01*
X163263715Y-93001222D01*
X163263715Y-92581015D01*
X164253922Y-92581015D01*
X164253922Y-93001222D01*
G37*
G36*
X164253922Y-93501221D02*
G01*
X163263715Y-93501221D01*
X163263715Y-93081014D01*
X164253922Y-93081014D01*
X164253922Y-93501221D01*
G37*
G36*
X164253922Y-94001223D02*
G01*
X163263715Y-94001223D01*
X163263715Y-93581013D01*
X164253922Y-93581013D01*
X164253922Y-94001223D01*
G37*
%TD*%
D11*
%TO.C,R9*%
X166781250Y-53337500D03*
X166781250Y-51512500D03*
%TD*%
D12*
%TO.C,C37*%
X136145000Y-108597500D03*
X136145000Y-110322500D03*
%TD*%
D13*
%TO.C,C26*%
X144788900Y-92667100D03*
X144788900Y-90942100D03*
%TD*%
D14*
%TO.C,L2*%
X122850000Y-105450000D03*
X128400000Y-105450000D03*
%TD*%
D11*
%TO.C,R4*%
X124413598Y-58717500D03*
X124413598Y-56892500D03*
%TD*%
D13*
%TO.C,C7*%
X164650000Y-37692500D03*
X164650000Y-35967500D03*
%TD*%
D15*
%TO.C,R13*%
X157471382Y-88716119D03*
X159296382Y-88716119D03*
%TD*%
D16*
%TO.C,TP2*%
X148150000Y-109500000D03*
%TD*%
D13*
%TO.C,C10*%
X127263598Y-69205001D03*
X127263598Y-67480001D03*
%TD*%
D17*
%TO.C,C1*%
X134256098Y-67389800D03*
X132531098Y-67389800D03*
%TD*%
D12*
%TO.C,C13*%
X159750000Y-40057500D03*
X159750000Y-41782500D03*
%TD*%
D16*
%TO.C,TP4*%
X134300000Y-79100000D03*
%TD*%
D13*
%TO.C,C34*%
X127511100Y-93012500D03*
X127511100Y-91287500D03*
%TD*%
D16*
%TO.C,TP6*%
X168000000Y-46000000D03*
%TD*%
D18*
%TO.C,C41*%
X132182500Y-112800000D03*
X133907500Y-112800000D03*
%TD*%
D15*
%TO.C,R10*%
X157268750Y-44475000D03*
X159093750Y-44475000D03*
%TD*%
D13*
%TO.C,C20*%
X155131250Y-54600000D03*
X155131250Y-52875000D03*
%TD*%
D19*
%TO.C,J2*%
X122930001Y-37104599D03*
D20*
X127195001Y-37179600D03*
D21*
X120840000Y-24654601D03*
D22*
X133500000Y-25134600D03*
D23*
X120620000Y-35904599D03*
X133580000Y-35904599D03*
D24*
X124720000Y-24634601D03*
X125820000Y-24634601D03*
X126920000Y-24634601D03*
X128020001Y-24634601D03*
X129120001Y-24634601D03*
X130220001Y-24634601D03*
X131320002Y-24634601D03*
X132420000Y-24634601D03*
%TD*%
D12*
%TO.C,C36*%
X125745000Y-110437500D03*
X125745000Y-112162500D03*
%TD*%
D25*
%TO.C,U8*%
X151855050Y-92600001D03*
X151855050Y-92099999D03*
X151855050Y-91600000D03*
X151855050Y-91100001D03*
X151855050Y-90599999D03*
X147422750Y-90599999D03*
X147422750Y-91100001D03*
X147422750Y-91600000D03*
X147422750Y-92099999D03*
X147422750Y-92600001D03*
D26*
X149638900Y-91600000D03*
%TD*%
D12*
%TO.C,C42*%
X155500000Y-104887500D03*
X155500000Y-106612500D03*
%TD*%
D15*
%TO.C,R19*%
X134732500Y-101250000D03*
X136557500Y-101250000D03*
%TD*%
D13*
%TO.C,C32*%
X167983882Y-95778617D03*
X167983882Y-94053617D03*
%TD*%
D11*
%TO.C,R6*%
X122563598Y-58717500D03*
X122563598Y-56892500D03*
%TD*%
D27*
%TO.C,TP17*%
X144550000Y-77800000D03*
%TD*%
D18*
%TO.C,C44*%
X138337500Y-39505000D03*
X140062500Y-39505000D03*
%TD*%
D27*
%TO.C,TP15*%
X144200000Y-112650000D03*
%TD*%
D12*
%TO.C,C17*%
X163381250Y-53012500D03*
X163381250Y-54737500D03*
%TD*%
D18*
%TO.C,C46*%
X154187497Y-70100001D03*
X155912497Y-70100001D03*
%TD*%
D16*
%TO.C,TP12*%
X122800000Y-69500000D03*
%TD*%
D17*
%TO.C,C29*%
X144731400Y-87700000D03*
X143006400Y-87700000D03*
%TD*%
D18*
%TO.C,C14*%
X162757500Y-40000000D03*
X164482500Y-40000000D03*
%TD*%
D13*
%TO.C,C33*%
X127511100Y-89462500D03*
X127511100Y-87737500D03*
%TD*%
D16*
%TO.C,TP16*%
X109300000Y-112700000D03*
%TD*%
D12*
%TO.C,C40*%
X144845000Y-103837500D03*
X144845000Y-105562500D03*
%TD*%
%TO.C,C12*%
X126163598Y-45167501D03*
X126163598Y-46892501D03*
%TD*%
D16*
%TO.C,TP3*%
X150350000Y-79900000D03*
%TD*%
D11*
%TO.C,R11*%
X155131250Y-58712501D03*
X155131250Y-56887501D03*
%TD*%
D28*
%TO.C,U5*%
X160109550Y-56800001D03*
X160109550Y-57449999D03*
X160109550Y-58100001D03*
X160109550Y-58749999D03*
X164452950Y-58749999D03*
X164452950Y-58100001D03*
X164452950Y-57449999D03*
X164452950Y-56800001D03*
%TD*%
D11*
%TO.C,R17*%
X139195000Y-110372500D03*
X139195000Y-108547500D03*
%TD*%
D29*
%TO.C,U14*%
X133049999Y-103779999D03*
D30*
X133950000Y-104380000D03*
D31*
X132800000Y-105025000D03*
D32*
X133199999Y-105700000D03*
X133700000Y-105700000D03*
X134200000Y-105700000D03*
X134699998Y-105700000D03*
D31*
X135100000Y-105025000D03*
D33*
X134675000Y-103779999D03*
%TD*%
D16*
%TO.C,TP11*%
X123400000Y-74800000D03*
%TD*%
D12*
%TO.C,C35*%
X128845000Y-110437500D03*
X128845000Y-112162500D03*
%TD*%
D34*
%TO.C,U10*%
X154139397Y-66200000D03*
X154139397Y-66700002D03*
X154139397Y-67200001D03*
X154139397Y-67700000D03*
X154139397Y-68200002D03*
X158482797Y-68200002D03*
X158482797Y-67700000D03*
X158482797Y-67200001D03*
X158482797Y-66700002D03*
X158482797Y-66200000D03*
%TD*%
D35*
%TO.C,U15*%
X163450000Y-104900000D03*
X161150000Y-104900000D03*
D36*
X161150000Y-111200000D03*
D35*
X158850000Y-104900000D03*
%TD*%
D16*
%TO.C,TP10*%
X120900000Y-46900000D03*
%TD*%
D37*
%TO.C,BT1*%
X117795000Y-127700750D03*
X173410000Y-127700750D03*
D38*
X109300000Y-127700750D03*
X182200000Y-127700750D03*
%TD*%
D16*
%TO.C,TP13*%
X123000000Y-78900000D03*
%TD*%
D39*
%TO.C,R3*%
X133613598Y-48830001D03*
X133613598Y-50655001D03*
%TD*%
D12*
%TO.C,C38*%
X139045000Y-103837500D03*
X139045000Y-105562500D03*
%TD*%
D13*
%TO.C,C16*%
X161131250Y-54725000D03*
X161131250Y-53000000D03*
%TD*%
D40*
%TO.C,U13*%
X113845000Y-27495000D03*
D41*
X116385000Y-27495000D03*
X113845000Y-30035000D03*
X116385000Y-30035000D03*
X113845000Y-32575000D03*
X116385000Y-32575000D03*
X113845000Y-35115000D03*
X116385000Y-35115000D03*
X113845000Y-37655000D03*
X116385000Y-37655000D03*
X113845000Y-40195000D03*
X116385000Y-40195000D03*
X113845000Y-42735000D03*
X116385000Y-42735000D03*
X113845000Y-45275000D03*
X116385000Y-45275000D03*
X113845000Y-47815000D03*
X116385000Y-47815000D03*
X113845000Y-50355000D03*
X116385000Y-50355000D03*
X113845000Y-52895000D03*
X116385000Y-52895000D03*
X113845000Y-55435000D03*
X116385000Y-55435000D03*
X113845000Y-57975000D03*
X116385000Y-57975000D03*
X113845000Y-60515000D03*
X116385000Y-60515000D03*
X113845000Y-63055000D03*
X116385000Y-63055000D03*
X113845000Y-65595000D03*
X116385000Y-65595000D03*
X113845000Y-68135000D03*
X116385000Y-68135000D03*
X113845000Y-70675000D03*
X116385000Y-70675000D03*
X113845000Y-73215000D03*
X116385000Y-73215000D03*
X113845000Y-75755000D03*
X116385000Y-75755000D03*
X113845000Y-78295000D03*
X116385000Y-78295000D03*
X113845000Y-80835000D03*
X116385000Y-80835000D03*
X113845000Y-83375000D03*
X116385000Y-83375000D03*
X113845000Y-85915000D03*
X116385000Y-85915000D03*
X113845000Y-88455000D03*
X116385000Y-88455000D03*
X113845000Y-90995000D03*
X116385000Y-90995000D03*
X113845000Y-93535000D03*
X116385000Y-93535000D03*
X113845000Y-96075000D03*
X116385000Y-96075000D03*
X113845000Y-98615000D03*
X116385000Y-98615000D03*
X113845000Y-101155000D03*
X116385000Y-101155000D03*
X113845000Y-103695000D03*
X116385000Y-103695000D03*
X113845000Y-106235000D03*
X116385000Y-106235000D03*
X113845000Y-108775000D03*
X116385000Y-108775000D03*
X113845000Y-111315000D03*
X116385000Y-111315000D03*
D40*
X113845000Y-113855000D03*
D41*
X116385000Y-113855000D03*
D40*
X174805000Y-27495000D03*
D41*
X177345000Y-27495000D03*
X174805000Y-30035000D03*
X177345000Y-30035000D03*
X174805000Y-32575000D03*
X177345000Y-32575000D03*
X174805000Y-35115000D03*
X177345000Y-35115000D03*
X174805000Y-37655000D03*
X177345000Y-37655000D03*
X174805000Y-40195000D03*
X177345000Y-40195000D03*
X174805000Y-42735000D03*
X177345000Y-42735000D03*
X174805000Y-45275000D03*
X177345000Y-45275000D03*
X174805000Y-47815000D03*
X177345000Y-47815000D03*
X174805000Y-50355000D03*
X177345000Y-50355000D03*
X174805000Y-52895000D03*
X177345000Y-52895000D03*
X174805000Y-55435000D03*
X177345000Y-55435000D03*
X174805000Y-57975000D03*
X177345000Y-57975000D03*
X174805000Y-60515000D03*
X177345000Y-60515000D03*
X174805000Y-63055000D03*
X177345000Y-63055000D03*
X174805000Y-65595000D03*
X177345000Y-65595000D03*
X174805000Y-68135000D03*
X177345000Y-68135000D03*
X174805000Y-70675000D03*
X177345000Y-70675000D03*
X174805000Y-73215000D03*
X177345000Y-73215000D03*
X174805000Y-75755000D03*
X177345000Y-75755000D03*
X174805000Y-78295000D03*
X177345000Y-78295000D03*
X174805000Y-80835000D03*
X177345000Y-80835000D03*
X174805000Y-83375000D03*
X177345000Y-83375000D03*
X174805000Y-85915000D03*
X177345000Y-85915000D03*
X174805000Y-88455000D03*
X177345000Y-88455000D03*
X174805000Y-90995000D03*
X177345000Y-90995000D03*
X174805000Y-93535000D03*
X177345000Y-93535000D03*
X174805000Y-96075000D03*
X177345000Y-96075000D03*
X174805000Y-98615000D03*
X177345000Y-98615000D03*
X174805000Y-101155000D03*
X177345000Y-101155000D03*
X174805000Y-103695000D03*
X177345000Y-103695000D03*
X174805000Y-106235000D03*
X177345000Y-106235000D03*
X174805000Y-108775000D03*
X177345000Y-108775000D03*
X174805000Y-111315000D03*
X177345000Y-111315000D03*
D40*
X174805000Y-113855000D03*
D41*
X177345000Y-113855000D03*
%TD*%
D42*
%TO.C,R5*%
X159612500Y-37750000D03*
X157787500Y-37750000D03*
%TD*%
D27*
%TO.C,TP5*%
X168600000Y-107650000D03*
%TD*%
D42*
%TO.C,R14*%
X163196382Y-88666117D03*
X161371382Y-88666117D03*
%TD*%
D16*
%TO.C,TP9*%
X130050000Y-39900000D03*
%TD*%
D12*
%TO.C,C39*%
X141945000Y-103837500D03*
X141945000Y-105562500D03*
%TD*%
D13*
%TO.C,C6*%
X134313598Y-58680000D03*
X134313598Y-56955000D03*
%TD*%
D12*
%TO.C,C30*%
X158050000Y-92733818D03*
X158050000Y-94458818D03*
%TD*%
D17*
%TO.C,C28*%
X167246382Y-92216117D03*
X165521382Y-92216117D03*
%TD*%
D11*
%TO.C,R8*%
X163859550Y-49362501D03*
X163859550Y-47537501D03*
%TD*%
D43*
%TO.C,J1*%
X164100000Y-26400000D03*
X164100000Y-23900000D03*
X159100000Y-31400000D03*
X154100000Y-26400000D03*
X154100000Y-23900000D03*
D44*
X159100000Y-26400000D03*
D45*
X154100000Y-31400000D03*
X164100000Y-31400000D03*
%TD*%
D42*
%TO.C,R12*%
X148700000Y-87700000D03*
X146875000Y-87700000D03*
%TD*%
D11*
%TO.C,R2*%
X123513598Y-65317500D03*
X123513598Y-63492500D03*
%TD*%
D15*
%TO.C,R18*%
X137362500Y-112800000D03*
X139187500Y-112800000D03*
%TD*%
D46*
%TO.C,U9*%
X163758820Y-93791119D03*
X163758820Y-93291118D03*
X163758820Y-92791118D03*
X163758820Y-92291117D03*
D47*
X163034008Y-91566117D03*
X162533882Y-91566117D03*
X162033756Y-91566117D03*
X161533630Y-91566117D03*
D46*
X160808818Y-92291117D03*
X160808818Y-92791118D03*
X160808818Y-93291118D03*
X160808818Y-93791119D03*
D47*
X161533630Y-94516119D03*
X162033756Y-94516119D03*
X162533882Y-94516119D03*
X163034008Y-94516119D03*
D48*
X162677519Y-93434818D03*
X162677519Y-92647418D03*
X161890119Y-93434818D03*
X161890119Y-92647418D03*
%TD*%
D12*
%TO.C,C4*%
X126213598Y-52630001D03*
X126213598Y-54355001D03*
%TD*%
%TO.C,C48*%
X110250000Y-31337500D03*
X110250000Y-33062500D03*
%TD*%
D49*
%TO.C,D1*%
X139800000Y-101250000D03*
X141850000Y-101250000D03*
%TD*%
D13*
%TO.C,C3*%
X128513598Y-54355001D03*
X128513598Y-52630001D03*
%TD*%
D18*
%TO.C,C22*%
X125187500Y-39200000D03*
X126912500Y-39200000D03*
%TD*%
D50*
%TO.C,U2*%
X134164399Y-69905000D03*
X133214398Y-69905000D03*
X132264397Y-69905000D03*
X132264397Y-72660900D03*
X134164399Y-72660900D03*
%TD*%
D13*
%TO.C,C19*%
X166781250Y-56887500D03*
X166781250Y-55162500D03*
%TD*%
D16*
%TO.C,TP8*%
X119550000Y-69150000D03*
%TD*%
%TO.C,TP14*%
X181250000Y-71950000D03*
%TD*%
D12*
%TO.C,C2*%
X134313598Y-62192500D03*
X134313598Y-63917500D03*
%TD*%
D18*
%TO.C,C47*%
X165787497Y-70100001D03*
X167512497Y-70100001D03*
%TD*%
D39*
%TO.C,R1*%
X162700000Y-35917500D03*
X162700000Y-37742500D03*
%TD*%
D51*
%TO.C,U6*%
X159785000Y-36150000D03*
X159785000Y-35650000D03*
X159785000Y-35150000D03*
X158315000Y-35150000D03*
X158315000Y-35650000D03*
X158315000Y-36150000D03*
%TD*%
D13*
%TO.C,C23*%
X169059550Y-60762501D03*
X169059550Y-59037501D03*
%TD*%
D34*
%TO.C,U11*%
X165539397Y-66200000D03*
X165539397Y-66700002D03*
X165539397Y-67200001D03*
X165539397Y-67700000D03*
X165539397Y-68200002D03*
X169882797Y-68200002D03*
X169882797Y-67700000D03*
X169882797Y-67200001D03*
X169882797Y-66700002D03*
X169882797Y-66200000D03*
%TD*%
D39*
%TO.C,R7*%
X155800000Y-35337500D03*
X155800000Y-37162500D03*
%TD*%
D52*
%TO.C,U1*%
X126600000Y-60900000D03*
X126600000Y-62170000D03*
X126600000Y-63440000D03*
X126600000Y-64710000D03*
X131427198Y-64710000D03*
X131427198Y-63440000D03*
X131427198Y-62170000D03*
X131427198Y-60900000D03*
%TD*%
D42*
%TO.C,R20*%
X133957500Y-110380000D03*
X132132500Y-110380000D03*
%TD*%
D16*
%TO.C,TP1*%
X148300000Y-41300000D03*
%TD*%
D13*
%TO.C,C9*%
X129913598Y-69255001D03*
X129913598Y-67530001D03*
%TD*%
D42*
%TO.C,R16*%
X166896382Y-88666119D03*
X165071382Y-88666119D03*
%TD*%
D12*
%TO.C,C5*%
X131963598Y-56942500D03*
X131963598Y-58667500D03*
%TD*%
D11*
%TO.C,R15*%
X125611100Y-91312500D03*
X125611100Y-89487500D03*
%TD*%
D34*
%TO.C,U7*%
X142739397Y-66050000D03*
X142739397Y-66550002D03*
X142739397Y-67050001D03*
X142739397Y-67550000D03*
X142739397Y-68050002D03*
X147082797Y-68050002D03*
X147082797Y-67550000D03*
X147082797Y-67050001D03*
X147082797Y-66550002D03*
X147082797Y-66050000D03*
%TD*%
D53*
%TO.C,U12*%
X135034400Y-90975001D03*
X135034400Y-90324999D03*
X135034400Y-89675001D03*
X135034400Y-89025002D03*
X135034400Y-88375001D03*
X135034400Y-87725002D03*
X130665600Y-87724999D03*
X130665600Y-88375001D03*
X130665600Y-89024999D03*
X130665600Y-89674998D03*
X130665600Y-90324999D03*
X130665600Y-90974998D03*
D54*
X132850000Y-89350000D03*
%TD*%
D12*
%TO.C,C21*%
X157231250Y-52875000D03*
X157231250Y-54600000D03*
%TD*%
%TO.C,C31*%
X139561100Y-87762200D03*
X139561100Y-89487200D03*
%TD*%
D13*
%TO.C,C25*%
X154138900Y-92667100D03*
X154138900Y-90942100D03*
%TD*%
D18*
%TO.C,C45*%
X142687497Y-70100001D03*
X144412497Y-70100001D03*
%TD*%
D12*
%TO.C,C24*%
X166781250Y-59037501D03*
X166781250Y-60762501D03*
%TD*%
D13*
%TO.C,C11*%
X128463598Y-46892501D03*
X128463598Y-45167501D03*
%TD*%
D17*
%TO.C,C15*%
X157512500Y-40000000D03*
X155787500Y-40000000D03*
%TD*%
D55*
%TO.C,L1*%
X163373882Y-97116117D03*
X161193882Y-97116117D03*
%TD*%
D12*
%TO.C,C8*%
X122213598Y-52692500D03*
X122213598Y-54417500D03*
%TD*%
D28*
%TO.C,U3*%
X129506998Y-50779999D03*
X129506998Y-50130001D03*
X129506998Y-49479999D03*
X129506998Y-48830001D03*
X125163598Y-48830001D03*
X125163598Y-49479999D03*
X125163598Y-50130001D03*
X125163598Y-50779999D03*
%TD*%
D40*
%TO.C,J3*%
X138320000Y-35990000D03*
D41*
X138320000Y-33450000D03*
X140860000Y-35990000D03*
X140860000Y-33450000D03*
X143400000Y-35990000D03*
X143400000Y-33450000D03*
X145940000Y-35990000D03*
X145940000Y-33450000D03*
X148480000Y-35990000D03*
X148480000Y-33450000D03*
%TD*%
D56*
%TO.C,U4*%
X160905400Y-50630000D03*
X160905400Y-49360000D03*
X160905400Y-48090000D03*
X160905400Y-46820000D03*
X155457100Y-46820000D03*
X155457100Y-48090000D03*
X155457100Y-49360000D03*
X155457100Y-50630000D03*
%TD*%
D12*
%TO.C,C27*%
X166333882Y-95961617D03*
X166333882Y-97686617D03*
%TD*%
D13*
%TO.C,C18*%
X154000000Y-37112500D03*
X154000000Y-35387500D03*
%TD*%
D18*
%TO.C,C43*%
X161200000Y-101850000D03*
X162925000Y-101850000D03*
%TD*%
D16*
%TO.C,TP7*%
X120500000Y-65800000D03*
%TD*%
M02*
