%TF.GenerationSoftware,KiCad,Pcbnew,10.0.3*%
%TF.CreationDate,2026-08-04T14:19:25+02:00*%
%TF.ProjectId,Uklad_wzmacniaczy,556b6c61-645f-4777-9a6d-61636e696163,rev?*%
%TF.SameCoordinates,Original*%
%TF.FileFunction,Legend,Top*%
%TF.FilePolarity,Positive*%
%FSLAX46Y46*%
G04 Gerber Fmt 4.6, Leading zero omitted, Abs format (unit mm)*
G04 Created by KiCad (PCBNEW 10.0.3) date 2026-08-04 14:19:25*
%MOMM*%
%LPD*%
G01*
G04 APERTURE LIST*
%ADD10C,0.150000*%
%ADD11C,0.100000*%
%ADD12C,0.098425*%
%ADD13C,0.120000*%
%ADD14C,0.127000*%
%ADD15C,0.152400*%
%ADD16C,0.000000*%
%ADD17C,0.170000*%
%ADD18C,0.200000*%
%ADD19C,0.250000*%
G04 APERTURE END LIST*
D10*
X168986069Y-52591666D02*
X168509878Y-52924999D01*
X168986069Y-53163094D02*
X167986069Y-53163094D01*
X167986069Y-53163094D02*
X167986069Y-52782142D01*
X167986069Y-52782142D02*
X168033688Y-52686904D01*
X168033688Y-52686904D02*
X168081307Y-52639285D01*
X168081307Y-52639285D02*
X168176545Y-52591666D01*
X168176545Y-52591666D02*
X168319402Y-52591666D01*
X168319402Y-52591666D02*
X168414640Y-52639285D01*
X168414640Y-52639285D02*
X168462259Y-52686904D01*
X168462259Y-52686904D02*
X168509878Y-52782142D01*
X168509878Y-52782142D02*
X168509878Y-53163094D01*
X168986069Y-52115475D02*
X168986069Y-51924999D01*
X168986069Y-51924999D02*
X168938450Y-51829761D01*
X168938450Y-51829761D02*
X168890830Y-51782142D01*
X168890830Y-51782142D02*
X168747973Y-51686904D01*
X168747973Y-51686904D02*
X168557497Y-51639285D01*
X168557497Y-51639285D02*
X168176545Y-51639285D01*
X168176545Y-51639285D02*
X168081307Y-51686904D01*
X168081307Y-51686904D02*
X168033688Y-51734523D01*
X168033688Y-51734523D02*
X167986069Y-51829761D01*
X167986069Y-51829761D02*
X167986069Y-52020237D01*
X167986069Y-52020237D02*
X168033688Y-52115475D01*
X168033688Y-52115475D02*
X168081307Y-52163094D01*
X168081307Y-52163094D02*
X168176545Y-52210713D01*
X168176545Y-52210713D02*
X168414640Y-52210713D01*
X168414640Y-52210713D02*
X168509878Y-52163094D01*
X168509878Y-52163094D02*
X168557497Y-52115475D01*
X168557497Y-52115475D02*
X168605116Y-52020237D01*
X168605116Y-52020237D02*
X168605116Y-51829761D01*
X168605116Y-51829761D02*
X168557497Y-51734523D01*
X168557497Y-51734523D02*
X168509878Y-51686904D01*
X168509878Y-51686904D02*
X168414640Y-51639285D01*
X138154580Y-110102857D02*
X138202200Y-110150476D01*
X138202200Y-110150476D02*
X138249819Y-110293333D01*
X138249819Y-110293333D02*
X138249819Y-110388571D01*
X138249819Y-110388571D02*
X138202200Y-110531428D01*
X138202200Y-110531428D02*
X138106961Y-110626666D01*
X138106961Y-110626666D02*
X138011723Y-110674285D01*
X138011723Y-110674285D02*
X137821247Y-110721904D01*
X137821247Y-110721904D02*
X137678390Y-110721904D01*
X137678390Y-110721904D02*
X137487914Y-110674285D01*
X137487914Y-110674285D02*
X137392676Y-110626666D01*
X137392676Y-110626666D02*
X137297438Y-110531428D01*
X137297438Y-110531428D02*
X137249819Y-110388571D01*
X137249819Y-110388571D02*
X137249819Y-110293333D01*
X137249819Y-110293333D02*
X137297438Y-110150476D01*
X137297438Y-110150476D02*
X137345057Y-110102857D01*
X137249819Y-109769523D02*
X137249819Y-109150476D01*
X137249819Y-109150476D02*
X137630771Y-109483809D01*
X137630771Y-109483809D02*
X137630771Y-109340952D01*
X137630771Y-109340952D02*
X137678390Y-109245714D01*
X137678390Y-109245714D02*
X137726009Y-109198095D01*
X137726009Y-109198095D02*
X137821247Y-109150476D01*
X137821247Y-109150476D02*
X138059342Y-109150476D01*
X138059342Y-109150476D02*
X138154580Y-109198095D01*
X138154580Y-109198095D02*
X138202200Y-109245714D01*
X138202200Y-109245714D02*
X138249819Y-109340952D01*
X138249819Y-109340952D02*
X138249819Y-109626666D01*
X138249819Y-109626666D02*
X138202200Y-109721904D01*
X138202200Y-109721904D02*
X138154580Y-109769523D01*
X137249819Y-108817142D02*
X137249819Y-108150476D01*
X137249819Y-108150476D02*
X138249819Y-108579047D01*
X143559580Y-92447457D02*
X143607200Y-92495076D01*
X143607200Y-92495076D02*
X143654819Y-92637933D01*
X143654819Y-92637933D02*
X143654819Y-92733171D01*
X143654819Y-92733171D02*
X143607200Y-92876028D01*
X143607200Y-92876028D02*
X143511961Y-92971266D01*
X143511961Y-92971266D02*
X143416723Y-93018885D01*
X143416723Y-93018885D02*
X143226247Y-93066504D01*
X143226247Y-93066504D02*
X143083390Y-93066504D01*
X143083390Y-93066504D02*
X142892914Y-93018885D01*
X142892914Y-93018885D02*
X142797676Y-92971266D01*
X142797676Y-92971266D02*
X142702438Y-92876028D01*
X142702438Y-92876028D02*
X142654819Y-92733171D01*
X142654819Y-92733171D02*
X142654819Y-92637933D01*
X142654819Y-92637933D02*
X142702438Y-92495076D01*
X142702438Y-92495076D02*
X142750057Y-92447457D01*
X142750057Y-92066504D02*
X142702438Y-92018885D01*
X142702438Y-92018885D02*
X142654819Y-91923647D01*
X142654819Y-91923647D02*
X142654819Y-91685552D01*
X142654819Y-91685552D02*
X142702438Y-91590314D01*
X142702438Y-91590314D02*
X142750057Y-91542695D01*
X142750057Y-91542695D02*
X142845295Y-91495076D01*
X142845295Y-91495076D02*
X142940533Y-91495076D01*
X142940533Y-91495076D02*
X143083390Y-91542695D01*
X143083390Y-91542695D02*
X143654819Y-92114123D01*
X143654819Y-92114123D02*
X143654819Y-91495076D01*
X142654819Y-90637933D02*
X142654819Y-90828409D01*
X142654819Y-90828409D02*
X142702438Y-90923647D01*
X142702438Y-90923647D02*
X142750057Y-90971266D01*
X142750057Y-90971266D02*
X142892914Y-91066504D01*
X142892914Y-91066504D02*
X143083390Y-91114123D01*
X143083390Y-91114123D02*
X143464342Y-91114123D01*
X143464342Y-91114123D02*
X143559580Y-91066504D01*
X143559580Y-91066504D02*
X143607200Y-91018885D01*
X143607200Y-91018885D02*
X143654819Y-90923647D01*
X143654819Y-90923647D02*
X143654819Y-90733171D01*
X143654819Y-90733171D02*
X143607200Y-90637933D01*
X143607200Y-90637933D02*
X143559580Y-90590314D01*
X143559580Y-90590314D02*
X143464342Y-90542695D01*
X143464342Y-90542695D02*
X143226247Y-90542695D01*
X143226247Y-90542695D02*
X143131009Y-90590314D01*
X143131009Y-90590314D02*
X143083390Y-90637933D01*
X143083390Y-90637933D02*
X143035771Y-90733171D01*
X143035771Y-90733171D02*
X143035771Y-90923647D01*
X143035771Y-90923647D02*
X143083390Y-91018885D01*
X143083390Y-91018885D02*
X143131009Y-91066504D01*
X143131009Y-91066504D02*
X143226247Y-91114123D01*
X123600333Y-101581876D02*
X123295571Y-101581876D01*
X123295571Y-101581876D02*
X123295571Y-100941876D01*
X123783190Y-101002828D02*
X123813666Y-100972352D01*
X123813666Y-100972352D02*
X123874619Y-100941876D01*
X123874619Y-100941876D02*
X124027000Y-100941876D01*
X124027000Y-100941876D02*
X124087952Y-100972352D01*
X124087952Y-100972352D02*
X124118428Y-101002828D01*
X124118428Y-101002828D02*
X124148905Y-101063780D01*
X124148905Y-101063780D02*
X124148905Y-101124733D01*
X124148905Y-101124733D02*
X124118428Y-101216161D01*
X124118428Y-101216161D02*
X123752714Y-101581876D01*
X123752714Y-101581876D02*
X124148905Y-101581876D01*
X126404819Y-57971666D02*
X125928628Y-58304999D01*
X126404819Y-58543094D02*
X125404819Y-58543094D01*
X125404819Y-58543094D02*
X125404819Y-58162142D01*
X125404819Y-58162142D02*
X125452438Y-58066904D01*
X125452438Y-58066904D02*
X125500057Y-58019285D01*
X125500057Y-58019285D02*
X125595295Y-57971666D01*
X125595295Y-57971666D02*
X125738152Y-57971666D01*
X125738152Y-57971666D02*
X125833390Y-58019285D01*
X125833390Y-58019285D02*
X125881009Y-58066904D01*
X125881009Y-58066904D02*
X125928628Y-58162142D01*
X125928628Y-58162142D02*
X125928628Y-58543094D01*
X125738152Y-57114523D02*
X126404819Y-57114523D01*
X125357200Y-57352618D02*
X126071485Y-57590713D01*
X126071485Y-57590713D02*
X126071485Y-56971666D01*
X166609580Y-36996666D02*
X166657200Y-37044285D01*
X166657200Y-37044285D02*
X166704819Y-37187142D01*
X166704819Y-37187142D02*
X166704819Y-37282380D01*
X166704819Y-37282380D02*
X166657200Y-37425237D01*
X166657200Y-37425237D02*
X166561961Y-37520475D01*
X166561961Y-37520475D02*
X166466723Y-37568094D01*
X166466723Y-37568094D02*
X166276247Y-37615713D01*
X166276247Y-37615713D02*
X166133390Y-37615713D01*
X166133390Y-37615713D02*
X165942914Y-37568094D01*
X165942914Y-37568094D02*
X165847676Y-37520475D01*
X165847676Y-37520475D02*
X165752438Y-37425237D01*
X165752438Y-37425237D02*
X165704819Y-37282380D01*
X165704819Y-37282380D02*
X165704819Y-37187142D01*
X165704819Y-37187142D02*
X165752438Y-37044285D01*
X165752438Y-37044285D02*
X165800057Y-36996666D01*
X165704819Y-36663332D02*
X165704819Y-35996666D01*
X165704819Y-35996666D02*
X166704819Y-36425237D01*
X157741024Y-87740938D02*
X157407691Y-87264747D01*
X157169596Y-87740938D02*
X157169596Y-86740938D01*
X157169596Y-86740938D02*
X157550548Y-86740938D01*
X157550548Y-86740938D02*
X157645786Y-86788557D01*
X157645786Y-86788557D02*
X157693405Y-86836176D01*
X157693405Y-86836176D02*
X157741024Y-86931414D01*
X157741024Y-86931414D02*
X157741024Y-87074271D01*
X157741024Y-87074271D02*
X157693405Y-87169509D01*
X157693405Y-87169509D02*
X157645786Y-87217128D01*
X157645786Y-87217128D02*
X157550548Y-87264747D01*
X157550548Y-87264747D02*
X157169596Y-87264747D01*
X158693405Y-87740938D02*
X158121977Y-87740938D01*
X158407691Y-87740938D02*
X158407691Y-86740938D01*
X158407691Y-86740938D02*
X158312453Y-86883795D01*
X158312453Y-86883795D02*
X158217215Y-86979033D01*
X158217215Y-86979033D02*
X158121977Y-87026652D01*
X159026739Y-86740938D02*
X159645786Y-86740938D01*
X159645786Y-86740938D02*
X159312453Y-87121890D01*
X159312453Y-87121890D02*
X159455310Y-87121890D01*
X159455310Y-87121890D02*
X159550548Y-87169509D01*
X159550548Y-87169509D02*
X159598167Y-87217128D01*
X159598167Y-87217128D02*
X159645786Y-87312366D01*
X159645786Y-87312366D02*
X159645786Y-87550461D01*
X159645786Y-87550461D02*
X159598167Y-87645699D01*
X159598167Y-87645699D02*
X159550548Y-87693319D01*
X159550548Y-87693319D02*
X159455310Y-87740938D01*
X159455310Y-87740938D02*
X159169596Y-87740938D01*
X159169596Y-87740938D02*
X159074358Y-87693319D01*
X159074358Y-87693319D02*
X159026739Y-87645699D01*
X146888095Y-107306819D02*
X147459523Y-107306819D01*
X147173809Y-108306819D02*
X147173809Y-107306819D01*
X147792857Y-108306819D02*
X147792857Y-107306819D01*
X147792857Y-107306819D02*
X148173809Y-107306819D01*
X148173809Y-107306819D02*
X148269047Y-107354438D01*
X148269047Y-107354438D02*
X148316666Y-107402057D01*
X148316666Y-107402057D02*
X148364285Y-107497295D01*
X148364285Y-107497295D02*
X148364285Y-107640152D01*
X148364285Y-107640152D02*
X148316666Y-107735390D01*
X148316666Y-107735390D02*
X148269047Y-107783009D01*
X148269047Y-107783009D02*
X148173809Y-107830628D01*
X148173809Y-107830628D02*
X147792857Y-107830628D01*
X148745238Y-107402057D02*
X148792857Y-107354438D01*
X148792857Y-107354438D02*
X148888095Y-107306819D01*
X148888095Y-107306819D02*
X149126190Y-107306819D01*
X149126190Y-107306819D02*
X149221428Y-107354438D01*
X149221428Y-107354438D02*
X149269047Y-107402057D01*
X149269047Y-107402057D02*
X149316666Y-107497295D01*
X149316666Y-107497295D02*
X149316666Y-107592533D01*
X149316666Y-107592533D02*
X149269047Y-107735390D01*
X149269047Y-107735390D02*
X148697619Y-108306819D01*
X148697619Y-108306819D02*
X149316666Y-108306819D01*
X147959523Y-110954819D02*
X147483333Y-110954819D01*
X147483333Y-110954819D02*
X147435714Y-111431009D01*
X147435714Y-111431009D02*
X147483333Y-111383390D01*
X147483333Y-111383390D02*
X147578571Y-111335771D01*
X147578571Y-111335771D02*
X147816666Y-111335771D01*
X147816666Y-111335771D02*
X147911904Y-111383390D01*
X147911904Y-111383390D02*
X147959523Y-111431009D01*
X147959523Y-111431009D02*
X148007142Y-111526247D01*
X148007142Y-111526247D02*
X148007142Y-111764342D01*
X148007142Y-111764342D02*
X147959523Y-111859580D01*
X147959523Y-111859580D02*
X147911904Y-111907200D01*
X147911904Y-111907200D02*
X147816666Y-111954819D01*
X147816666Y-111954819D02*
X147578571Y-111954819D01*
X147578571Y-111954819D02*
X147483333Y-111907200D01*
X147483333Y-111907200D02*
X147435714Y-111859580D01*
X148292857Y-110954819D02*
X148626190Y-111954819D01*
X148626190Y-111954819D02*
X148959523Y-110954819D01*
X126599040Y-71239582D02*
X126551421Y-71287202D01*
X126551421Y-71287202D02*
X126408564Y-71334821D01*
X126408564Y-71334821D02*
X126313326Y-71334821D01*
X126313326Y-71334821D02*
X126170469Y-71287202D01*
X126170469Y-71287202D02*
X126075231Y-71191963D01*
X126075231Y-71191963D02*
X126027612Y-71096725D01*
X126027612Y-71096725D02*
X125979993Y-70906249D01*
X125979993Y-70906249D02*
X125979993Y-70763392D01*
X125979993Y-70763392D02*
X126027612Y-70572916D01*
X126027612Y-70572916D02*
X126075231Y-70477678D01*
X126075231Y-70477678D02*
X126170469Y-70382440D01*
X126170469Y-70382440D02*
X126313326Y-70334821D01*
X126313326Y-70334821D02*
X126408564Y-70334821D01*
X126408564Y-70334821D02*
X126551421Y-70382440D01*
X126551421Y-70382440D02*
X126599040Y-70430059D01*
X127551421Y-71334821D02*
X126979993Y-71334821D01*
X127265707Y-71334821D02*
X127265707Y-70334821D01*
X127265707Y-70334821D02*
X127170469Y-70477678D01*
X127170469Y-70477678D02*
X127075231Y-70572916D01*
X127075231Y-70572916D02*
X126979993Y-70620535D01*
X128170469Y-70334821D02*
X128265707Y-70334821D01*
X128265707Y-70334821D02*
X128360945Y-70382440D01*
X128360945Y-70382440D02*
X128408564Y-70430059D01*
X128408564Y-70430059D02*
X128456183Y-70525297D01*
X128456183Y-70525297D02*
X128503802Y-70715773D01*
X128503802Y-70715773D02*
X128503802Y-70953868D01*
X128503802Y-70953868D02*
X128456183Y-71144344D01*
X128456183Y-71144344D02*
X128408564Y-71239582D01*
X128408564Y-71239582D02*
X128360945Y-71287202D01*
X128360945Y-71287202D02*
X128265707Y-71334821D01*
X128265707Y-71334821D02*
X128170469Y-71334821D01*
X128170469Y-71334821D02*
X128075231Y-71287202D01*
X128075231Y-71287202D02*
X128027612Y-71239582D01*
X128027612Y-71239582D02*
X127979993Y-71144344D01*
X127979993Y-71144344D02*
X127932374Y-70953868D01*
X127932374Y-70953868D02*
X127932374Y-70715773D01*
X127932374Y-70715773D02*
X127979993Y-70525297D01*
X127979993Y-70525297D02*
X128027612Y-70430059D01*
X128027612Y-70430059D02*
X128075231Y-70382440D01*
X128075231Y-70382440D02*
X128170469Y-70334821D01*
X136383333Y-67759580D02*
X136335714Y-67807200D01*
X136335714Y-67807200D02*
X136192857Y-67854819D01*
X136192857Y-67854819D02*
X136097619Y-67854819D01*
X136097619Y-67854819D02*
X135954762Y-67807200D01*
X135954762Y-67807200D02*
X135859524Y-67711961D01*
X135859524Y-67711961D02*
X135811905Y-67616723D01*
X135811905Y-67616723D02*
X135764286Y-67426247D01*
X135764286Y-67426247D02*
X135764286Y-67283390D01*
X135764286Y-67283390D02*
X135811905Y-67092914D01*
X135811905Y-67092914D02*
X135859524Y-66997676D01*
X135859524Y-66997676D02*
X135954762Y-66902438D01*
X135954762Y-66902438D02*
X136097619Y-66854819D01*
X136097619Y-66854819D02*
X136192857Y-66854819D01*
X136192857Y-66854819D02*
X136335714Y-66902438D01*
X136335714Y-66902438D02*
X136383333Y-66950057D01*
X137335714Y-67854819D02*
X136764286Y-67854819D01*
X137050000Y-67854819D02*
X137050000Y-66854819D01*
X137050000Y-66854819D02*
X136954762Y-66997676D01*
X136954762Y-66997676D02*
X136859524Y-67092914D01*
X136859524Y-67092914D02*
X136764286Y-67140533D01*
X161539580Y-41562857D02*
X161587200Y-41610476D01*
X161587200Y-41610476D02*
X161634819Y-41753333D01*
X161634819Y-41753333D02*
X161634819Y-41848571D01*
X161634819Y-41848571D02*
X161587200Y-41991428D01*
X161587200Y-41991428D02*
X161491961Y-42086666D01*
X161491961Y-42086666D02*
X161396723Y-42134285D01*
X161396723Y-42134285D02*
X161206247Y-42181904D01*
X161206247Y-42181904D02*
X161063390Y-42181904D01*
X161063390Y-42181904D02*
X160872914Y-42134285D01*
X160872914Y-42134285D02*
X160777676Y-42086666D01*
X160777676Y-42086666D02*
X160682438Y-41991428D01*
X160682438Y-41991428D02*
X160634819Y-41848571D01*
X160634819Y-41848571D02*
X160634819Y-41753333D01*
X160634819Y-41753333D02*
X160682438Y-41610476D01*
X160682438Y-41610476D02*
X160730057Y-41562857D01*
X161634819Y-40610476D02*
X161634819Y-41181904D01*
X161634819Y-40896190D02*
X160634819Y-40896190D01*
X160634819Y-40896190D02*
X160777676Y-40991428D01*
X160777676Y-40991428D02*
X160872914Y-41086666D01*
X160872914Y-41086666D02*
X160920533Y-41181904D01*
X160634819Y-40277142D02*
X160634819Y-39658095D01*
X160634819Y-39658095D02*
X161015771Y-39991428D01*
X161015771Y-39991428D02*
X161015771Y-39848571D01*
X161015771Y-39848571D02*
X161063390Y-39753333D01*
X161063390Y-39753333D02*
X161111009Y-39705714D01*
X161111009Y-39705714D02*
X161206247Y-39658095D01*
X161206247Y-39658095D02*
X161444342Y-39658095D01*
X161444342Y-39658095D02*
X161539580Y-39705714D01*
X161539580Y-39705714D02*
X161587200Y-39753333D01*
X161587200Y-39753333D02*
X161634819Y-39848571D01*
X161634819Y-39848571D02*
X161634819Y-40134285D01*
X161634819Y-40134285D02*
X161587200Y-40229523D01*
X161587200Y-40229523D02*
X161539580Y-40277142D01*
X133038095Y-76906819D02*
X133609523Y-76906819D01*
X133323809Y-77906819D02*
X133323809Y-76906819D01*
X133942857Y-77906819D02*
X133942857Y-76906819D01*
X133942857Y-76906819D02*
X134323809Y-76906819D01*
X134323809Y-76906819D02*
X134419047Y-76954438D01*
X134419047Y-76954438D02*
X134466666Y-77002057D01*
X134466666Y-77002057D02*
X134514285Y-77097295D01*
X134514285Y-77097295D02*
X134514285Y-77240152D01*
X134514285Y-77240152D02*
X134466666Y-77335390D01*
X134466666Y-77335390D02*
X134419047Y-77383009D01*
X134419047Y-77383009D02*
X134323809Y-77430628D01*
X134323809Y-77430628D02*
X133942857Y-77430628D01*
X135371428Y-77240152D02*
X135371428Y-77906819D01*
X135133333Y-76859200D02*
X134895238Y-77573485D01*
X134895238Y-77573485D02*
X135514285Y-77573485D01*
X133014286Y-81223866D02*
X133776191Y-81223866D01*
X134728571Y-80604819D02*
X134252381Y-80604819D01*
X134252381Y-80604819D02*
X134204762Y-81081009D01*
X134204762Y-81081009D02*
X134252381Y-81033390D01*
X134252381Y-81033390D02*
X134347619Y-80985771D01*
X134347619Y-80985771D02*
X134585714Y-80985771D01*
X134585714Y-80985771D02*
X134680952Y-81033390D01*
X134680952Y-81033390D02*
X134728571Y-81081009D01*
X134728571Y-81081009D02*
X134776190Y-81176247D01*
X134776190Y-81176247D02*
X134776190Y-81414342D01*
X134776190Y-81414342D02*
X134728571Y-81509580D01*
X134728571Y-81509580D02*
X134680952Y-81557200D01*
X134680952Y-81557200D02*
X134585714Y-81604819D01*
X134585714Y-81604819D02*
X134347619Y-81604819D01*
X134347619Y-81604819D02*
X134252381Y-81557200D01*
X134252381Y-81557200D02*
X134204762Y-81509580D01*
X135061905Y-80604819D02*
X135395238Y-81604819D01*
X135395238Y-81604819D02*
X135728571Y-80604819D01*
X129270680Y-92792857D02*
X129318300Y-92840476D01*
X129318300Y-92840476D02*
X129365919Y-92983333D01*
X129365919Y-92983333D02*
X129365919Y-93078571D01*
X129365919Y-93078571D02*
X129318300Y-93221428D01*
X129318300Y-93221428D02*
X129223061Y-93316666D01*
X129223061Y-93316666D02*
X129127823Y-93364285D01*
X129127823Y-93364285D02*
X128937347Y-93411904D01*
X128937347Y-93411904D02*
X128794490Y-93411904D01*
X128794490Y-93411904D02*
X128604014Y-93364285D01*
X128604014Y-93364285D02*
X128508776Y-93316666D01*
X128508776Y-93316666D02*
X128413538Y-93221428D01*
X128413538Y-93221428D02*
X128365919Y-93078571D01*
X128365919Y-93078571D02*
X128365919Y-92983333D01*
X128365919Y-92983333D02*
X128413538Y-92840476D01*
X128413538Y-92840476D02*
X128461157Y-92792857D01*
X128365919Y-92459523D02*
X128365919Y-91840476D01*
X128365919Y-91840476D02*
X128746871Y-92173809D01*
X128746871Y-92173809D02*
X128746871Y-92030952D01*
X128746871Y-92030952D02*
X128794490Y-91935714D01*
X128794490Y-91935714D02*
X128842109Y-91888095D01*
X128842109Y-91888095D02*
X128937347Y-91840476D01*
X128937347Y-91840476D02*
X129175442Y-91840476D01*
X129175442Y-91840476D02*
X129270680Y-91888095D01*
X129270680Y-91888095D02*
X129318300Y-91935714D01*
X129318300Y-91935714D02*
X129365919Y-92030952D01*
X129365919Y-92030952D02*
X129365919Y-92316666D01*
X129365919Y-92316666D02*
X129318300Y-92411904D01*
X129318300Y-92411904D02*
X129270680Y-92459523D01*
X128699252Y-90983333D02*
X129365919Y-90983333D01*
X128318300Y-91221428D02*
X129032585Y-91459523D01*
X129032585Y-91459523D02*
X129032585Y-90840476D01*
X166738095Y-43806819D02*
X167309523Y-43806819D01*
X167023809Y-44806819D02*
X167023809Y-43806819D01*
X167642857Y-44806819D02*
X167642857Y-43806819D01*
X167642857Y-43806819D02*
X168023809Y-43806819D01*
X168023809Y-43806819D02*
X168119047Y-43854438D01*
X168119047Y-43854438D02*
X168166666Y-43902057D01*
X168166666Y-43902057D02*
X168214285Y-43997295D01*
X168214285Y-43997295D02*
X168214285Y-44140152D01*
X168214285Y-44140152D02*
X168166666Y-44235390D01*
X168166666Y-44235390D02*
X168119047Y-44283009D01*
X168119047Y-44283009D02*
X168023809Y-44330628D01*
X168023809Y-44330628D02*
X167642857Y-44330628D01*
X169071428Y-43806819D02*
X168880952Y-43806819D01*
X168880952Y-43806819D02*
X168785714Y-43854438D01*
X168785714Y-43854438D02*
X168738095Y-43902057D01*
X168738095Y-43902057D02*
X168642857Y-44044914D01*
X168642857Y-44044914D02*
X168595238Y-44235390D01*
X168595238Y-44235390D02*
X168595238Y-44616342D01*
X168595238Y-44616342D02*
X168642857Y-44711580D01*
X168642857Y-44711580D02*
X168690476Y-44759200D01*
X168690476Y-44759200D02*
X168785714Y-44806819D01*
X168785714Y-44806819D02*
X168976190Y-44806819D01*
X168976190Y-44806819D02*
X169071428Y-44759200D01*
X169071428Y-44759200D02*
X169119047Y-44711580D01*
X169119047Y-44711580D02*
X169166666Y-44616342D01*
X169166666Y-44616342D02*
X169166666Y-44378247D01*
X169166666Y-44378247D02*
X169119047Y-44283009D01*
X169119047Y-44283009D02*
X169071428Y-44235390D01*
X169071428Y-44235390D02*
X168976190Y-44187771D01*
X168976190Y-44187771D02*
X168785714Y-44187771D01*
X168785714Y-44187771D02*
X168690476Y-44235390D01*
X168690476Y-44235390D02*
X168642857Y-44283009D01*
X168642857Y-44283009D02*
X168595238Y-44378247D01*
X166666666Y-48454819D02*
X166095238Y-48454819D01*
X166380952Y-48454819D02*
X166380952Y-47454819D01*
X166380952Y-47454819D02*
X166285714Y-47597676D01*
X166285714Y-47597676D02*
X166190476Y-47692914D01*
X166190476Y-47692914D02*
X166095238Y-47740533D01*
X167142857Y-48407200D02*
X167142857Y-48454819D01*
X167142857Y-48454819D02*
X167095238Y-48550057D01*
X167095238Y-48550057D02*
X167047619Y-48597676D01*
X167999999Y-47454819D02*
X167809523Y-47454819D01*
X167809523Y-47454819D02*
X167714285Y-47502438D01*
X167714285Y-47502438D02*
X167666666Y-47550057D01*
X167666666Y-47550057D02*
X167571428Y-47692914D01*
X167571428Y-47692914D02*
X167523809Y-47883390D01*
X167523809Y-47883390D02*
X167523809Y-48264342D01*
X167523809Y-48264342D02*
X167571428Y-48359580D01*
X167571428Y-48359580D02*
X167619047Y-48407200D01*
X167619047Y-48407200D02*
X167714285Y-48454819D01*
X167714285Y-48454819D02*
X167904761Y-48454819D01*
X167904761Y-48454819D02*
X167999999Y-48407200D01*
X167999999Y-48407200D02*
X168047618Y-48359580D01*
X168047618Y-48359580D02*
X168095237Y-48264342D01*
X168095237Y-48264342D02*
X168095237Y-48026247D01*
X168095237Y-48026247D02*
X168047618Y-47931009D01*
X168047618Y-47931009D02*
X167999999Y-47883390D01*
X167999999Y-47883390D02*
X167904761Y-47835771D01*
X167904761Y-47835771D02*
X167714285Y-47835771D01*
X167714285Y-47835771D02*
X167619047Y-47883390D01*
X167619047Y-47883390D02*
X167571428Y-47931009D01*
X167571428Y-47931009D02*
X167523809Y-48026247D01*
X168999999Y-47454819D02*
X168523809Y-47454819D01*
X168523809Y-47454819D02*
X168476190Y-47931009D01*
X168476190Y-47931009D02*
X168523809Y-47883390D01*
X168523809Y-47883390D02*
X168619047Y-47835771D01*
X168619047Y-47835771D02*
X168857142Y-47835771D01*
X168857142Y-47835771D02*
X168952380Y-47883390D01*
X168952380Y-47883390D02*
X168999999Y-47931009D01*
X168999999Y-47931009D02*
X169047618Y-48026247D01*
X169047618Y-48026247D02*
X169047618Y-48264342D01*
X169047618Y-48264342D02*
X168999999Y-48359580D01*
X168999999Y-48359580D02*
X168952380Y-48407200D01*
X168952380Y-48407200D02*
X168857142Y-48454819D01*
X168857142Y-48454819D02*
X168619047Y-48454819D01*
X168619047Y-48454819D02*
X168523809Y-48407200D01*
X168523809Y-48407200D02*
X168476190Y-48359580D01*
X169333333Y-47454819D02*
X169666666Y-48454819D01*
X169666666Y-48454819D02*
X169999999Y-47454819D01*
X132402142Y-114759580D02*
X132354523Y-114807200D01*
X132354523Y-114807200D02*
X132211666Y-114854819D01*
X132211666Y-114854819D02*
X132116428Y-114854819D01*
X132116428Y-114854819D02*
X131973571Y-114807200D01*
X131973571Y-114807200D02*
X131878333Y-114711961D01*
X131878333Y-114711961D02*
X131830714Y-114616723D01*
X131830714Y-114616723D02*
X131783095Y-114426247D01*
X131783095Y-114426247D02*
X131783095Y-114283390D01*
X131783095Y-114283390D02*
X131830714Y-114092914D01*
X131830714Y-114092914D02*
X131878333Y-113997676D01*
X131878333Y-113997676D02*
X131973571Y-113902438D01*
X131973571Y-113902438D02*
X132116428Y-113854819D01*
X132116428Y-113854819D02*
X132211666Y-113854819D01*
X132211666Y-113854819D02*
X132354523Y-113902438D01*
X132354523Y-113902438D02*
X132402142Y-113950057D01*
X133259285Y-114188152D02*
X133259285Y-114854819D01*
X133021190Y-113807200D02*
X132783095Y-114521485D01*
X132783095Y-114521485D02*
X133402142Y-114521485D01*
X134306904Y-114854819D02*
X133735476Y-114854819D01*
X134021190Y-114854819D02*
X134021190Y-113854819D01*
X134021190Y-113854819D02*
X133925952Y-113997676D01*
X133925952Y-113997676D02*
X133830714Y-114092914D01*
X133830714Y-114092914D02*
X133735476Y-114140533D01*
X157538392Y-43499819D02*
X157205059Y-43023628D01*
X156966964Y-43499819D02*
X156966964Y-42499819D01*
X156966964Y-42499819D02*
X157347916Y-42499819D01*
X157347916Y-42499819D02*
X157443154Y-42547438D01*
X157443154Y-42547438D02*
X157490773Y-42595057D01*
X157490773Y-42595057D02*
X157538392Y-42690295D01*
X157538392Y-42690295D02*
X157538392Y-42833152D01*
X157538392Y-42833152D02*
X157490773Y-42928390D01*
X157490773Y-42928390D02*
X157443154Y-42976009D01*
X157443154Y-42976009D02*
X157347916Y-43023628D01*
X157347916Y-43023628D02*
X156966964Y-43023628D01*
X158490773Y-43499819D02*
X157919345Y-43499819D01*
X158205059Y-43499819D02*
X158205059Y-42499819D01*
X158205059Y-42499819D02*
X158109821Y-42642676D01*
X158109821Y-42642676D02*
X158014583Y-42737914D01*
X158014583Y-42737914D02*
X157919345Y-42785533D01*
X159109821Y-42499819D02*
X159205059Y-42499819D01*
X159205059Y-42499819D02*
X159300297Y-42547438D01*
X159300297Y-42547438D02*
X159347916Y-42595057D01*
X159347916Y-42595057D02*
X159395535Y-42690295D01*
X159395535Y-42690295D02*
X159443154Y-42880771D01*
X159443154Y-42880771D02*
X159443154Y-43118866D01*
X159443154Y-43118866D02*
X159395535Y-43309342D01*
X159395535Y-43309342D02*
X159347916Y-43404580D01*
X159347916Y-43404580D02*
X159300297Y-43452200D01*
X159300297Y-43452200D02*
X159205059Y-43499819D01*
X159205059Y-43499819D02*
X159109821Y-43499819D01*
X159109821Y-43499819D02*
X159014583Y-43452200D01*
X159014583Y-43452200D02*
X158966964Y-43404580D01*
X158966964Y-43404580D02*
X158919345Y-43309342D01*
X158919345Y-43309342D02*
X158871726Y-43118866D01*
X158871726Y-43118866D02*
X158871726Y-42880771D01*
X158871726Y-42880771D02*
X158919345Y-42690295D01*
X158919345Y-42690295D02*
X158966964Y-42595057D01*
X158966964Y-42595057D02*
X159014583Y-42547438D01*
X159014583Y-42547438D02*
X159109821Y-42499819D01*
X154060830Y-54380357D02*
X154108450Y-54427976D01*
X154108450Y-54427976D02*
X154156069Y-54570833D01*
X154156069Y-54570833D02*
X154156069Y-54666071D01*
X154156069Y-54666071D02*
X154108450Y-54808928D01*
X154108450Y-54808928D02*
X154013211Y-54904166D01*
X154013211Y-54904166D02*
X153917973Y-54951785D01*
X153917973Y-54951785D02*
X153727497Y-54999404D01*
X153727497Y-54999404D02*
X153584640Y-54999404D01*
X153584640Y-54999404D02*
X153394164Y-54951785D01*
X153394164Y-54951785D02*
X153298926Y-54904166D01*
X153298926Y-54904166D02*
X153203688Y-54808928D01*
X153203688Y-54808928D02*
X153156069Y-54666071D01*
X153156069Y-54666071D02*
X153156069Y-54570833D01*
X153156069Y-54570833D02*
X153203688Y-54427976D01*
X153203688Y-54427976D02*
X153251307Y-54380357D01*
X153251307Y-53999404D02*
X153203688Y-53951785D01*
X153203688Y-53951785D02*
X153156069Y-53856547D01*
X153156069Y-53856547D02*
X153156069Y-53618452D01*
X153156069Y-53618452D02*
X153203688Y-53523214D01*
X153203688Y-53523214D02*
X153251307Y-53475595D01*
X153251307Y-53475595D02*
X153346545Y-53427976D01*
X153346545Y-53427976D02*
X153441783Y-53427976D01*
X153441783Y-53427976D02*
X153584640Y-53475595D01*
X153584640Y-53475595D02*
X154156069Y-54047023D01*
X154156069Y-54047023D02*
X154156069Y-53427976D01*
X153156069Y-52808928D02*
X153156069Y-52713690D01*
X153156069Y-52713690D02*
X153203688Y-52618452D01*
X153203688Y-52618452D02*
X153251307Y-52570833D01*
X153251307Y-52570833D02*
X153346545Y-52523214D01*
X153346545Y-52523214D02*
X153537021Y-52475595D01*
X153537021Y-52475595D02*
X153775116Y-52475595D01*
X153775116Y-52475595D02*
X153965592Y-52523214D01*
X153965592Y-52523214D02*
X154060830Y-52570833D01*
X154060830Y-52570833D02*
X154108450Y-52618452D01*
X154108450Y-52618452D02*
X154156069Y-52713690D01*
X154156069Y-52713690D02*
X154156069Y-52808928D01*
X154156069Y-52808928D02*
X154108450Y-52904166D01*
X154108450Y-52904166D02*
X154060830Y-52951785D01*
X154060830Y-52951785D02*
X153965592Y-52999404D01*
X153965592Y-52999404D02*
X153775116Y-53047023D01*
X153775116Y-53047023D02*
X153537021Y-53047023D01*
X153537021Y-53047023D02*
X153346545Y-52999404D01*
X153346545Y-52999404D02*
X153251307Y-52951785D01*
X153251307Y-52951785D02*
X153203688Y-52904166D01*
X153203688Y-52904166D02*
X153156069Y-52808928D01*
X132916666Y-38104819D02*
X132916666Y-38819104D01*
X132916666Y-38819104D02*
X132869047Y-38961961D01*
X132869047Y-38961961D02*
X132773809Y-39057200D01*
X132773809Y-39057200D02*
X132630952Y-39104819D01*
X132630952Y-39104819D02*
X132535714Y-39104819D01*
X133345238Y-38200057D02*
X133392857Y-38152438D01*
X133392857Y-38152438D02*
X133488095Y-38104819D01*
X133488095Y-38104819D02*
X133726190Y-38104819D01*
X133726190Y-38104819D02*
X133821428Y-38152438D01*
X133821428Y-38152438D02*
X133869047Y-38200057D01*
X133869047Y-38200057D02*
X133916666Y-38295295D01*
X133916666Y-38295295D02*
X133916666Y-38390533D01*
X133916666Y-38390533D02*
X133869047Y-38533390D01*
X133869047Y-38533390D02*
X133297619Y-39104819D01*
X133297619Y-39104819D02*
X133916666Y-39104819D01*
X122180000Y-24089419D02*
X122180000Y-24327514D01*
X121941905Y-24232276D02*
X122180000Y-24327514D01*
X122180000Y-24327514D02*
X122418095Y-24232276D01*
X122037143Y-24517990D02*
X122180000Y-24327514D01*
X122180000Y-24327514D02*
X122322857Y-24517990D01*
X122180000Y-24089419D02*
X122180000Y-24327514D01*
X121941905Y-24232276D02*
X122180000Y-24327514D01*
X122180000Y-24327514D02*
X122418095Y-24232276D01*
X122037143Y-24517990D02*
X122180000Y-24327514D01*
X122180000Y-24327514D02*
X122322857Y-24517990D01*
X127534580Y-111942857D02*
X127582200Y-111990476D01*
X127582200Y-111990476D02*
X127629819Y-112133333D01*
X127629819Y-112133333D02*
X127629819Y-112228571D01*
X127629819Y-112228571D02*
X127582200Y-112371428D01*
X127582200Y-112371428D02*
X127486961Y-112466666D01*
X127486961Y-112466666D02*
X127391723Y-112514285D01*
X127391723Y-112514285D02*
X127201247Y-112561904D01*
X127201247Y-112561904D02*
X127058390Y-112561904D01*
X127058390Y-112561904D02*
X126867914Y-112514285D01*
X126867914Y-112514285D02*
X126772676Y-112466666D01*
X126772676Y-112466666D02*
X126677438Y-112371428D01*
X126677438Y-112371428D02*
X126629819Y-112228571D01*
X126629819Y-112228571D02*
X126629819Y-112133333D01*
X126629819Y-112133333D02*
X126677438Y-111990476D01*
X126677438Y-111990476D02*
X126725057Y-111942857D01*
X126629819Y-111609523D02*
X126629819Y-110990476D01*
X126629819Y-110990476D02*
X127010771Y-111323809D01*
X127010771Y-111323809D02*
X127010771Y-111180952D01*
X127010771Y-111180952D02*
X127058390Y-111085714D01*
X127058390Y-111085714D02*
X127106009Y-111038095D01*
X127106009Y-111038095D02*
X127201247Y-110990476D01*
X127201247Y-110990476D02*
X127439342Y-110990476D01*
X127439342Y-110990476D02*
X127534580Y-111038095D01*
X127534580Y-111038095D02*
X127582200Y-111085714D01*
X127582200Y-111085714D02*
X127629819Y-111180952D01*
X127629819Y-111180952D02*
X127629819Y-111466666D01*
X127629819Y-111466666D02*
X127582200Y-111561904D01*
X127582200Y-111561904D02*
X127534580Y-111609523D01*
X126629819Y-110133333D02*
X126629819Y-110323809D01*
X126629819Y-110323809D02*
X126677438Y-110419047D01*
X126677438Y-110419047D02*
X126725057Y-110466666D01*
X126725057Y-110466666D02*
X126867914Y-110561904D01*
X126867914Y-110561904D02*
X127058390Y-110609523D01*
X127058390Y-110609523D02*
X127439342Y-110609523D01*
X127439342Y-110609523D02*
X127534580Y-110561904D01*
X127534580Y-110561904D02*
X127582200Y-110514285D01*
X127582200Y-110514285D02*
X127629819Y-110419047D01*
X127629819Y-110419047D02*
X127629819Y-110228571D01*
X127629819Y-110228571D02*
X127582200Y-110133333D01*
X127582200Y-110133333D02*
X127534580Y-110085714D01*
X127534580Y-110085714D02*
X127439342Y-110038095D01*
X127439342Y-110038095D02*
X127201247Y-110038095D01*
X127201247Y-110038095D02*
X127106009Y-110085714D01*
X127106009Y-110085714D02*
X127058390Y-110133333D01*
X127058390Y-110133333D02*
X127010771Y-110228571D01*
X127010771Y-110228571D02*
X127010771Y-110419047D01*
X127010771Y-110419047D02*
X127058390Y-110514285D01*
X127058390Y-110514285D02*
X127106009Y-110561904D01*
X127106009Y-110561904D02*
X127201247Y-110609523D01*
X148876995Y-93954819D02*
X148876995Y-94764342D01*
X148876995Y-94764342D02*
X148924614Y-94859580D01*
X148924614Y-94859580D02*
X148972233Y-94907200D01*
X148972233Y-94907200D02*
X149067471Y-94954819D01*
X149067471Y-94954819D02*
X149257947Y-94954819D01*
X149257947Y-94954819D02*
X149353185Y-94907200D01*
X149353185Y-94907200D02*
X149400804Y-94859580D01*
X149400804Y-94859580D02*
X149448423Y-94764342D01*
X149448423Y-94764342D02*
X149448423Y-93954819D01*
X150067471Y-94383390D02*
X149972233Y-94335771D01*
X149972233Y-94335771D02*
X149924614Y-94288152D01*
X149924614Y-94288152D02*
X149876995Y-94192914D01*
X149876995Y-94192914D02*
X149876995Y-94145295D01*
X149876995Y-94145295D02*
X149924614Y-94050057D01*
X149924614Y-94050057D02*
X149972233Y-94002438D01*
X149972233Y-94002438D02*
X150067471Y-93954819D01*
X150067471Y-93954819D02*
X150257947Y-93954819D01*
X150257947Y-93954819D02*
X150353185Y-94002438D01*
X150353185Y-94002438D02*
X150400804Y-94050057D01*
X150400804Y-94050057D02*
X150448423Y-94145295D01*
X150448423Y-94145295D02*
X150448423Y-94192914D01*
X150448423Y-94192914D02*
X150400804Y-94288152D01*
X150400804Y-94288152D02*
X150353185Y-94335771D01*
X150353185Y-94335771D02*
X150257947Y-94383390D01*
X150257947Y-94383390D02*
X150067471Y-94383390D01*
X150067471Y-94383390D02*
X149972233Y-94431009D01*
X149972233Y-94431009D02*
X149924614Y-94478628D01*
X149924614Y-94478628D02*
X149876995Y-94573866D01*
X149876995Y-94573866D02*
X149876995Y-94764342D01*
X149876995Y-94764342D02*
X149924614Y-94859580D01*
X149924614Y-94859580D02*
X149972233Y-94907200D01*
X149972233Y-94907200D02*
X150067471Y-94954819D01*
X150067471Y-94954819D02*
X150257947Y-94954819D01*
X150257947Y-94954819D02*
X150353185Y-94907200D01*
X150353185Y-94907200D02*
X150400804Y-94859580D01*
X150400804Y-94859580D02*
X150448423Y-94764342D01*
X150448423Y-94764342D02*
X150448423Y-94573866D01*
X150448423Y-94573866D02*
X150400804Y-94478628D01*
X150400804Y-94478628D02*
X150353185Y-94431009D01*
X150353185Y-94431009D02*
X150257947Y-94383390D01*
X152109049Y-93945180D02*
X152109049Y-93707085D01*
X152347144Y-93802323D02*
X152109049Y-93707085D01*
X152109049Y-93707085D02*
X151870954Y-93802323D01*
X152251906Y-93516609D02*
X152109049Y-93707085D01*
X152109049Y-93707085D02*
X151966192Y-93516609D01*
X152109050Y-93477219D02*
X152109050Y-93715314D01*
X151870955Y-93620076D02*
X152109050Y-93715314D01*
X152109050Y-93715314D02*
X152347145Y-93620076D01*
X151966193Y-93905790D02*
X152109050Y-93715314D01*
X152109050Y-93715314D02*
X152251907Y-93905790D01*
X154409580Y-106392857D02*
X154457200Y-106440476D01*
X154457200Y-106440476D02*
X154504819Y-106583333D01*
X154504819Y-106583333D02*
X154504819Y-106678571D01*
X154504819Y-106678571D02*
X154457200Y-106821428D01*
X154457200Y-106821428D02*
X154361961Y-106916666D01*
X154361961Y-106916666D02*
X154266723Y-106964285D01*
X154266723Y-106964285D02*
X154076247Y-107011904D01*
X154076247Y-107011904D02*
X153933390Y-107011904D01*
X153933390Y-107011904D02*
X153742914Y-106964285D01*
X153742914Y-106964285D02*
X153647676Y-106916666D01*
X153647676Y-106916666D02*
X153552438Y-106821428D01*
X153552438Y-106821428D02*
X153504819Y-106678571D01*
X153504819Y-106678571D02*
X153504819Y-106583333D01*
X153504819Y-106583333D02*
X153552438Y-106440476D01*
X153552438Y-106440476D02*
X153600057Y-106392857D01*
X153838152Y-105535714D02*
X154504819Y-105535714D01*
X153457200Y-105773809D02*
X154171485Y-106011904D01*
X154171485Y-106011904D02*
X154171485Y-105392857D01*
X153600057Y-105059523D02*
X153552438Y-105011904D01*
X153552438Y-105011904D02*
X153504819Y-104916666D01*
X153504819Y-104916666D02*
X153504819Y-104678571D01*
X153504819Y-104678571D02*
X153552438Y-104583333D01*
X153552438Y-104583333D02*
X153600057Y-104535714D01*
X153600057Y-104535714D02*
X153695295Y-104488095D01*
X153695295Y-104488095D02*
X153790533Y-104488095D01*
X153790533Y-104488095D02*
X153933390Y-104535714D01*
X153933390Y-104535714D02*
X154504819Y-105107142D01*
X154504819Y-105107142D02*
X154504819Y-104488095D01*
X135002142Y-100274819D02*
X134668809Y-99798628D01*
X134430714Y-100274819D02*
X134430714Y-99274819D01*
X134430714Y-99274819D02*
X134811666Y-99274819D01*
X134811666Y-99274819D02*
X134906904Y-99322438D01*
X134906904Y-99322438D02*
X134954523Y-99370057D01*
X134954523Y-99370057D02*
X135002142Y-99465295D01*
X135002142Y-99465295D02*
X135002142Y-99608152D01*
X135002142Y-99608152D02*
X134954523Y-99703390D01*
X134954523Y-99703390D02*
X134906904Y-99751009D01*
X134906904Y-99751009D02*
X134811666Y-99798628D01*
X134811666Y-99798628D02*
X134430714Y-99798628D01*
X135954523Y-100274819D02*
X135383095Y-100274819D01*
X135668809Y-100274819D02*
X135668809Y-99274819D01*
X135668809Y-99274819D02*
X135573571Y-99417676D01*
X135573571Y-99417676D02*
X135478333Y-99512914D01*
X135478333Y-99512914D02*
X135383095Y-99560533D01*
X136430714Y-100274819D02*
X136621190Y-100274819D01*
X136621190Y-100274819D02*
X136716428Y-100227200D01*
X136716428Y-100227200D02*
X136764047Y-100179580D01*
X136764047Y-100179580D02*
X136859285Y-100036723D01*
X136859285Y-100036723D02*
X136906904Y-99846247D01*
X136906904Y-99846247D02*
X136906904Y-99465295D01*
X136906904Y-99465295D02*
X136859285Y-99370057D01*
X136859285Y-99370057D02*
X136811666Y-99322438D01*
X136811666Y-99322438D02*
X136716428Y-99274819D01*
X136716428Y-99274819D02*
X136525952Y-99274819D01*
X136525952Y-99274819D02*
X136430714Y-99322438D01*
X136430714Y-99322438D02*
X136383095Y-99370057D01*
X136383095Y-99370057D02*
X136335476Y-99465295D01*
X136335476Y-99465295D02*
X136335476Y-99703390D01*
X136335476Y-99703390D02*
X136383095Y-99798628D01*
X136383095Y-99798628D02*
X136430714Y-99846247D01*
X136430714Y-99846247D02*
X136525952Y-99893866D01*
X136525952Y-99893866D02*
X136716428Y-99893866D01*
X136716428Y-99893866D02*
X136811666Y-99846247D01*
X136811666Y-99846247D02*
X136859285Y-99798628D01*
X136859285Y-99798628D02*
X136906904Y-99703390D01*
X169709580Y-95592857D02*
X169757200Y-95640476D01*
X169757200Y-95640476D02*
X169804819Y-95783333D01*
X169804819Y-95783333D02*
X169804819Y-95878571D01*
X169804819Y-95878571D02*
X169757200Y-96021428D01*
X169757200Y-96021428D02*
X169661961Y-96116666D01*
X169661961Y-96116666D02*
X169566723Y-96164285D01*
X169566723Y-96164285D02*
X169376247Y-96211904D01*
X169376247Y-96211904D02*
X169233390Y-96211904D01*
X169233390Y-96211904D02*
X169042914Y-96164285D01*
X169042914Y-96164285D02*
X168947676Y-96116666D01*
X168947676Y-96116666D02*
X168852438Y-96021428D01*
X168852438Y-96021428D02*
X168804819Y-95878571D01*
X168804819Y-95878571D02*
X168804819Y-95783333D01*
X168804819Y-95783333D02*
X168852438Y-95640476D01*
X168852438Y-95640476D02*
X168900057Y-95592857D01*
X168804819Y-95259523D02*
X168804819Y-94640476D01*
X168804819Y-94640476D02*
X169185771Y-94973809D01*
X169185771Y-94973809D02*
X169185771Y-94830952D01*
X169185771Y-94830952D02*
X169233390Y-94735714D01*
X169233390Y-94735714D02*
X169281009Y-94688095D01*
X169281009Y-94688095D02*
X169376247Y-94640476D01*
X169376247Y-94640476D02*
X169614342Y-94640476D01*
X169614342Y-94640476D02*
X169709580Y-94688095D01*
X169709580Y-94688095D02*
X169757200Y-94735714D01*
X169757200Y-94735714D02*
X169804819Y-94830952D01*
X169804819Y-94830952D02*
X169804819Y-95116666D01*
X169804819Y-95116666D02*
X169757200Y-95211904D01*
X169757200Y-95211904D02*
X169709580Y-95259523D01*
X168900057Y-94259523D02*
X168852438Y-94211904D01*
X168852438Y-94211904D02*
X168804819Y-94116666D01*
X168804819Y-94116666D02*
X168804819Y-93878571D01*
X168804819Y-93878571D02*
X168852438Y-93783333D01*
X168852438Y-93783333D02*
X168900057Y-93735714D01*
X168900057Y-93735714D02*
X168995295Y-93688095D01*
X168995295Y-93688095D02*
X169090533Y-93688095D01*
X169090533Y-93688095D02*
X169233390Y-93735714D01*
X169233390Y-93735714D02*
X169804819Y-94307142D01*
X169804819Y-94307142D02*
X169804819Y-93688095D01*
X121588417Y-57971666D02*
X121112226Y-58304999D01*
X121588417Y-58543094D02*
X120588417Y-58543094D01*
X120588417Y-58543094D02*
X120588417Y-58162142D01*
X120588417Y-58162142D02*
X120636036Y-58066904D01*
X120636036Y-58066904D02*
X120683655Y-58019285D01*
X120683655Y-58019285D02*
X120778893Y-57971666D01*
X120778893Y-57971666D02*
X120921750Y-57971666D01*
X120921750Y-57971666D02*
X121016988Y-58019285D01*
X121016988Y-58019285D02*
X121064607Y-58066904D01*
X121064607Y-58066904D02*
X121112226Y-58162142D01*
X121112226Y-58162142D02*
X121112226Y-58543094D01*
X120588417Y-57114523D02*
X120588417Y-57304999D01*
X120588417Y-57304999D02*
X120636036Y-57400237D01*
X120636036Y-57400237D02*
X120683655Y-57447856D01*
X120683655Y-57447856D02*
X120826512Y-57543094D01*
X120826512Y-57543094D02*
X121016988Y-57590713D01*
X121016988Y-57590713D02*
X121397940Y-57590713D01*
X121397940Y-57590713D02*
X121493178Y-57543094D01*
X121493178Y-57543094D02*
X121540798Y-57495475D01*
X121540798Y-57495475D02*
X121588417Y-57400237D01*
X121588417Y-57400237D02*
X121588417Y-57209761D01*
X121588417Y-57209761D02*
X121540798Y-57114523D01*
X121540798Y-57114523D02*
X121493178Y-57066904D01*
X121493178Y-57066904D02*
X121397940Y-57019285D01*
X121397940Y-57019285D02*
X121159845Y-57019285D01*
X121159845Y-57019285D02*
X121064607Y-57066904D01*
X121064607Y-57066904D02*
X121016988Y-57114523D01*
X121016988Y-57114523D02*
X120969369Y-57209761D01*
X120969369Y-57209761D02*
X120969369Y-57400237D01*
X120969369Y-57400237D02*
X121016988Y-57495475D01*
X121016988Y-57495475D02*
X121064607Y-57543094D01*
X121064607Y-57543094D02*
X121159845Y-57590713D01*
X142811905Y-75256819D02*
X143383333Y-75256819D01*
X143097619Y-76256819D02*
X143097619Y-75256819D01*
X143716667Y-76256819D02*
X143716667Y-75256819D01*
X143716667Y-75256819D02*
X144097619Y-75256819D01*
X144097619Y-75256819D02*
X144192857Y-75304438D01*
X144192857Y-75304438D02*
X144240476Y-75352057D01*
X144240476Y-75352057D02*
X144288095Y-75447295D01*
X144288095Y-75447295D02*
X144288095Y-75590152D01*
X144288095Y-75590152D02*
X144240476Y-75685390D01*
X144240476Y-75685390D02*
X144192857Y-75733009D01*
X144192857Y-75733009D02*
X144097619Y-75780628D01*
X144097619Y-75780628D02*
X143716667Y-75780628D01*
X145240476Y-76256819D02*
X144669048Y-76256819D01*
X144954762Y-76256819D02*
X144954762Y-75256819D01*
X144954762Y-75256819D02*
X144859524Y-75399676D01*
X144859524Y-75399676D02*
X144764286Y-75494914D01*
X144764286Y-75494914D02*
X144669048Y-75542533D01*
X145573810Y-75256819D02*
X146240476Y-75256819D01*
X146240476Y-75256819D02*
X145811905Y-76256819D01*
X138557142Y-41559580D02*
X138509523Y-41607200D01*
X138509523Y-41607200D02*
X138366666Y-41654819D01*
X138366666Y-41654819D02*
X138271428Y-41654819D01*
X138271428Y-41654819D02*
X138128571Y-41607200D01*
X138128571Y-41607200D02*
X138033333Y-41511961D01*
X138033333Y-41511961D02*
X137985714Y-41416723D01*
X137985714Y-41416723D02*
X137938095Y-41226247D01*
X137938095Y-41226247D02*
X137938095Y-41083390D01*
X137938095Y-41083390D02*
X137985714Y-40892914D01*
X137985714Y-40892914D02*
X138033333Y-40797676D01*
X138033333Y-40797676D02*
X138128571Y-40702438D01*
X138128571Y-40702438D02*
X138271428Y-40654819D01*
X138271428Y-40654819D02*
X138366666Y-40654819D01*
X138366666Y-40654819D02*
X138509523Y-40702438D01*
X138509523Y-40702438D02*
X138557142Y-40750057D01*
X139414285Y-40988152D02*
X139414285Y-41654819D01*
X139176190Y-40607200D02*
X138938095Y-41321485D01*
X138938095Y-41321485D02*
X139557142Y-41321485D01*
X140366666Y-40988152D02*
X140366666Y-41654819D01*
X140128571Y-40607200D02*
X139890476Y-41321485D01*
X139890476Y-41321485D02*
X140509523Y-41321485D01*
X142461905Y-110106819D02*
X143033333Y-110106819D01*
X142747619Y-111106819D02*
X142747619Y-110106819D01*
X143366667Y-111106819D02*
X143366667Y-110106819D01*
X143366667Y-110106819D02*
X143747619Y-110106819D01*
X143747619Y-110106819D02*
X143842857Y-110154438D01*
X143842857Y-110154438D02*
X143890476Y-110202057D01*
X143890476Y-110202057D02*
X143938095Y-110297295D01*
X143938095Y-110297295D02*
X143938095Y-110440152D01*
X143938095Y-110440152D02*
X143890476Y-110535390D01*
X143890476Y-110535390D02*
X143842857Y-110583009D01*
X143842857Y-110583009D02*
X143747619Y-110630628D01*
X143747619Y-110630628D02*
X143366667Y-110630628D01*
X144890476Y-111106819D02*
X144319048Y-111106819D01*
X144604762Y-111106819D02*
X144604762Y-110106819D01*
X144604762Y-110106819D02*
X144509524Y-110249676D01*
X144509524Y-110249676D02*
X144414286Y-110344914D01*
X144414286Y-110344914D02*
X144319048Y-110392533D01*
X145795238Y-110106819D02*
X145319048Y-110106819D01*
X145319048Y-110106819D02*
X145271429Y-110583009D01*
X145271429Y-110583009D02*
X145319048Y-110535390D01*
X145319048Y-110535390D02*
X145414286Y-110487771D01*
X145414286Y-110487771D02*
X145652381Y-110487771D01*
X145652381Y-110487771D02*
X145747619Y-110535390D01*
X145747619Y-110535390D02*
X145795238Y-110583009D01*
X145795238Y-110583009D02*
X145842857Y-110678247D01*
X145842857Y-110678247D02*
X145842857Y-110916342D01*
X145842857Y-110916342D02*
X145795238Y-111011580D01*
X145795238Y-111011580D02*
X145747619Y-111059200D01*
X145747619Y-111059200D02*
X145652381Y-111106819D01*
X145652381Y-111106819D02*
X145414286Y-111106819D01*
X145414286Y-111106819D02*
X145319048Y-111059200D01*
X145319048Y-111059200D02*
X145271429Y-111011580D01*
X165170830Y-54517857D02*
X165218450Y-54565476D01*
X165218450Y-54565476D02*
X165266069Y-54708333D01*
X165266069Y-54708333D02*
X165266069Y-54803571D01*
X165266069Y-54803571D02*
X165218450Y-54946428D01*
X165218450Y-54946428D02*
X165123211Y-55041666D01*
X165123211Y-55041666D02*
X165027973Y-55089285D01*
X165027973Y-55089285D02*
X164837497Y-55136904D01*
X164837497Y-55136904D02*
X164694640Y-55136904D01*
X164694640Y-55136904D02*
X164504164Y-55089285D01*
X164504164Y-55089285D02*
X164408926Y-55041666D01*
X164408926Y-55041666D02*
X164313688Y-54946428D01*
X164313688Y-54946428D02*
X164266069Y-54803571D01*
X164266069Y-54803571D02*
X164266069Y-54708333D01*
X164266069Y-54708333D02*
X164313688Y-54565476D01*
X164313688Y-54565476D02*
X164361307Y-54517857D01*
X165266069Y-53565476D02*
X165266069Y-54136904D01*
X165266069Y-53851190D02*
X164266069Y-53851190D01*
X164266069Y-53851190D02*
X164408926Y-53946428D01*
X164408926Y-53946428D02*
X164504164Y-54041666D01*
X164504164Y-54041666D02*
X164551783Y-54136904D01*
X164266069Y-53232142D02*
X164266069Y-52565476D01*
X164266069Y-52565476D02*
X165266069Y-52994047D01*
X154407142Y-71959580D02*
X154359523Y-72007200D01*
X154359523Y-72007200D02*
X154216666Y-72054819D01*
X154216666Y-72054819D02*
X154121428Y-72054819D01*
X154121428Y-72054819D02*
X153978571Y-72007200D01*
X153978571Y-72007200D02*
X153883333Y-71911961D01*
X153883333Y-71911961D02*
X153835714Y-71816723D01*
X153835714Y-71816723D02*
X153788095Y-71626247D01*
X153788095Y-71626247D02*
X153788095Y-71483390D01*
X153788095Y-71483390D02*
X153835714Y-71292914D01*
X153835714Y-71292914D02*
X153883333Y-71197676D01*
X153883333Y-71197676D02*
X153978571Y-71102438D01*
X153978571Y-71102438D02*
X154121428Y-71054819D01*
X154121428Y-71054819D02*
X154216666Y-71054819D01*
X154216666Y-71054819D02*
X154359523Y-71102438D01*
X154359523Y-71102438D02*
X154407142Y-71150057D01*
X155264285Y-71388152D02*
X155264285Y-72054819D01*
X155026190Y-71007200D02*
X154788095Y-71721485D01*
X154788095Y-71721485D02*
X155407142Y-71721485D01*
X156216666Y-71054819D02*
X156026190Y-71054819D01*
X156026190Y-71054819D02*
X155930952Y-71102438D01*
X155930952Y-71102438D02*
X155883333Y-71150057D01*
X155883333Y-71150057D02*
X155788095Y-71292914D01*
X155788095Y-71292914D02*
X155740476Y-71483390D01*
X155740476Y-71483390D02*
X155740476Y-71864342D01*
X155740476Y-71864342D02*
X155788095Y-71959580D01*
X155788095Y-71959580D02*
X155835714Y-72007200D01*
X155835714Y-72007200D02*
X155930952Y-72054819D01*
X155930952Y-72054819D02*
X156121428Y-72054819D01*
X156121428Y-72054819D02*
X156216666Y-72007200D01*
X156216666Y-72007200D02*
X156264285Y-71959580D01*
X156264285Y-71959580D02*
X156311904Y-71864342D01*
X156311904Y-71864342D02*
X156311904Y-71626247D01*
X156311904Y-71626247D02*
X156264285Y-71531009D01*
X156264285Y-71531009D02*
X156216666Y-71483390D01*
X156216666Y-71483390D02*
X156121428Y-71435771D01*
X156121428Y-71435771D02*
X155930952Y-71435771D01*
X155930952Y-71435771D02*
X155835714Y-71483390D01*
X155835714Y-71483390D02*
X155788095Y-71531009D01*
X155788095Y-71531009D02*
X155740476Y-71626247D01*
X121061905Y-67306819D02*
X121633333Y-67306819D01*
X121347619Y-68306819D02*
X121347619Y-67306819D01*
X121966667Y-68306819D02*
X121966667Y-67306819D01*
X121966667Y-67306819D02*
X122347619Y-67306819D01*
X122347619Y-67306819D02*
X122442857Y-67354438D01*
X122442857Y-67354438D02*
X122490476Y-67402057D01*
X122490476Y-67402057D02*
X122538095Y-67497295D01*
X122538095Y-67497295D02*
X122538095Y-67640152D01*
X122538095Y-67640152D02*
X122490476Y-67735390D01*
X122490476Y-67735390D02*
X122442857Y-67783009D01*
X122442857Y-67783009D02*
X122347619Y-67830628D01*
X122347619Y-67830628D02*
X121966667Y-67830628D01*
X123490476Y-68306819D02*
X122919048Y-68306819D01*
X123204762Y-68306819D02*
X123204762Y-67306819D01*
X123204762Y-67306819D02*
X123109524Y-67449676D01*
X123109524Y-67449676D02*
X123014286Y-67544914D01*
X123014286Y-67544914D02*
X122919048Y-67592533D01*
X123871429Y-67402057D02*
X123919048Y-67354438D01*
X123919048Y-67354438D02*
X124014286Y-67306819D01*
X124014286Y-67306819D02*
X124252381Y-67306819D01*
X124252381Y-67306819D02*
X124347619Y-67354438D01*
X124347619Y-67354438D02*
X124395238Y-67402057D01*
X124395238Y-67402057D02*
X124442857Y-67497295D01*
X124442857Y-67497295D02*
X124442857Y-67592533D01*
X124442857Y-67592533D02*
X124395238Y-67735390D01*
X124395238Y-67735390D02*
X123823810Y-68306819D01*
X123823810Y-68306819D02*
X124442857Y-68306819D01*
X143226042Y-86509580D02*
X143178423Y-86557200D01*
X143178423Y-86557200D02*
X143035566Y-86604819D01*
X143035566Y-86604819D02*
X142940328Y-86604819D01*
X142940328Y-86604819D02*
X142797471Y-86557200D01*
X142797471Y-86557200D02*
X142702233Y-86461961D01*
X142702233Y-86461961D02*
X142654614Y-86366723D01*
X142654614Y-86366723D02*
X142606995Y-86176247D01*
X142606995Y-86176247D02*
X142606995Y-86033390D01*
X142606995Y-86033390D02*
X142654614Y-85842914D01*
X142654614Y-85842914D02*
X142702233Y-85747676D01*
X142702233Y-85747676D02*
X142797471Y-85652438D01*
X142797471Y-85652438D02*
X142940328Y-85604819D01*
X142940328Y-85604819D02*
X143035566Y-85604819D01*
X143035566Y-85604819D02*
X143178423Y-85652438D01*
X143178423Y-85652438D02*
X143226042Y-85700057D01*
X143606995Y-85700057D02*
X143654614Y-85652438D01*
X143654614Y-85652438D02*
X143749852Y-85604819D01*
X143749852Y-85604819D02*
X143987947Y-85604819D01*
X143987947Y-85604819D02*
X144083185Y-85652438D01*
X144083185Y-85652438D02*
X144130804Y-85700057D01*
X144130804Y-85700057D02*
X144178423Y-85795295D01*
X144178423Y-85795295D02*
X144178423Y-85890533D01*
X144178423Y-85890533D02*
X144130804Y-86033390D01*
X144130804Y-86033390D02*
X143559376Y-86604819D01*
X143559376Y-86604819D02*
X144178423Y-86604819D01*
X144654614Y-86604819D02*
X144845090Y-86604819D01*
X144845090Y-86604819D02*
X144940328Y-86557200D01*
X144940328Y-86557200D02*
X144987947Y-86509580D01*
X144987947Y-86509580D02*
X145083185Y-86366723D01*
X145083185Y-86366723D02*
X145130804Y-86176247D01*
X145130804Y-86176247D02*
X145130804Y-85795295D01*
X145130804Y-85795295D02*
X145083185Y-85700057D01*
X145083185Y-85700057D02*
X145035566Y-85652438D01*
X145035566Y-85652438D02*
X144940328Y-85604819D01*
X144940328Y-85604819D02*
X144749852Y-85604819D01*
X144749852Y-85604819D02*
X144654614Y-85652438D01*
X144654614Y-85652438D02*
X144606995Y-85700057D01*
X144606995Y-85700057D02*
X144559376Y-85795295D01*
X144559376Y-85795295D02*
X144559376Y-86033390D01*
X144559376Y-86033390D02*
X144606995Y-86128628D01*
X144606995Y-86128628D02*
X144654614Y-86176247D01*
X144654614Y-86176247D02*
X144749852Y-86223866D01*
X144749852Y-86223866D02*
X144940328Y-86223866D01*
X144940328Y-86223866D02*
X145035566Y-86176247D01*
X145035566Y-86176247D02*
X145083185Y-86128628D01*
X145083185Y-86128628D02*
X145130804Y-86033390D01*
X163007142Y-42009580D02*
X162959523Y-42057200D01*
X162959523Y-42057200D02*
X162816666Y-42104819D01*
X162816666Y-42104819D02*
X162721428Y-42104819D01*
X162721428Y-42104819D02*
X162578571Y-42057200D01*
X162578571Y-42057200D02*
X162483333Y-41961961D01*
X162483333Y-41961961D02*
X162435714Y-41866723D01*
X162435714Y-41866723D02*
X162388095Y-41676247D01*
X162388095Y-41676247D02*
X162388095Y-41533390D01*
X162388095Y-41533390D02*
X162435714Y-41342914D01*
X162435714Y-41342914D02*
X162483333Y-41247676D01*
X162483333Y-41247676D02*
X162578571Y-41152438D01*
X162578571Y-41152438D02*
X162721428Y-41104819D01*
X162721428Y-41104819D02*
X162816666Y-41104819D01*
X162816666Y-41104819D02*
X162959523Y-41152438D01*
X162959523Y-41152438D02*
X163007142Y-41200057D01*
X163959523Y-42104819D02*
X163388095Y-42104819D01*
X163673809Y-42104819D02*
X163673809Y-41104819D01*
X163673809Y-41104819D02*
X163578571Y-41247676D01*
X163578571Y-41247676D02*
X163483333Y-41342914D01*
X163483333Y-41342914D02*
X163388095Y-41390533D01*
X164816666Y-41438152D02*
X164816666Y-42104819D01*
X164578571Y-41057200D02*
X164340476Y-41771485D01*
X164340476Y-41771485D02*
X164959523Y-41771485D01*
X129225180Y-89317856D02*
X129272800Y-89365475D01*
X129272800Y-89365475D02*
X129320419Y-89508332D01*
X129320419Y-89508332D02*
X129320419Y-89603570D01*
X129320419Y-89603570D02*
X129272800Y-89746427D01*
X129272800Y-89746427D02*
X129177561Y-89841665D01*
X129177561Y-89841665D02*
X129082323Y-89889284D01*
X129082323Y-89889284D02*
X128891847Y-89936903D01*
X128891847Y-89936903D02*
X128748990Y-89936903D01*
X128748990Y-89936903D02*
X128558514Y-89889284D01*
X128558514Y-89889284D02*
X128463276Y-89841665D01*
X128463276Y-89841665D02*
X128368038Y-89746427D01*
X128368038Y-89746427D02*
X128320419Y-89603570D01*
X128320419Y-89603570D02*
X128320419Y-89508332D01*
X128320419Y-89508332D02*
X128368038Y-89365475D01*
X128368038Y-89365475D02*
X128415657Y-89317856D01*
X128320419Y-88984522D02*
X128320419Y-88365475D01*
X128320419Y-88365475D02*
X128701371Y-88698808D01*
X128701371Y-88698808D02*
X128701371Y-88555951D01*
X128701371Y-88555951D02*
X128748990Y-88460713D01*
X128748990Y-88460713D02*
X128796609Y-88413094D01*
X128796609Y-88413094D02*
X128891847Y-88365475D01*
X128891847Y-88365475D02*
X129129942Y-88365475D01*
X129129942Y-88365475D02*
X129225180Y-88413094D01*
X129225180Y-88413094D02*
X129272800Y-88460713D01*
X129272800Y-88460713D02*
X129320419Y-88555951D01*
X129320419Y-88555951D02*
X129320419Y-88841665D01*
X129320419Y-88841665D02*
X129272800Y-88936903D01*
X129272800Y-88936903D02*
X129225180Y-88984522D01*
X128320419Y-88032141D02*
X128320419Y-87413094D01*
X128320419Y-87413094D02*
X128701371Y-87746427D01*
X128701371Y-87746427D02*
X128701371Y-87603570D01*
X128701371Y-87603570D02*
X128748990Y-87508332D01*
X128748990Y-87508332D02*
X128796609Y-87460713D01*
X128796609Y-87460713D02*
X128891847Y-87413094D01*
X128891847Y-87413094D02*
X129129942Y-87413094D01*
X129129942Y-87413094D02*
X129225180Y-87460713D01*
X129225180Y-87460713D02*
X129272800Y-87508332D01*
X129272800Y-87508332D02*
X129320419Y-87603570D01*
X129320419Y-87603570D02*
X129320419Y-87889284D01*
X129320419Y-87889284D02*
X129272800Y-87984522D01*
X129272800Y-87984522D02*
X129225180Y-88032141D01*
X107811905Y-108604819D02*
X108383333Y-108604819D01*
X108097619Y-109604819D02*
X108097619Y-108604819D01*
X108716667Y-109604819D02*
X108716667Y-108604819D01*
X108716667Y-108604819D02*
X109097619Y-108604819D01*
X109097619Y-108604819D02*
X109192857Y-108652438D01*
X109192857Y-108652438D02*
X109240476Y-108700057D01*
X109240476Y-108700057D02*
X109288095Y-108795295D01*
X109288095Y-108795295D02*
X109288095Y-108938152D01*
X109288095Y-108938152D02*
X109240476Y-109033390D01*
X109240476Y-109033390D02*
X109192857Y-109081009D01*
X109192857Y-109081009D02*
X109097619Y-109128628D01*
X109097619Y-109128628D02*
X108716667Y-109128628D01*
X110240476Y-109604819D02*
X109669048Y-109604819D01*
X109954762Y-109604819D02*
X109954762Y-108604819D01*
X109954762Y-108604819D02*
X109859524Y-108747676D01*
X109859524Y-108747676D02*
X109764286Y-108842914D01*
X109764286Y-108842914D02*
X109669048Y-108890533D01*
X111097619Y-108604819D02*
X110907143Y-108604819D01*
X110907143Y-108604819D02*
X110811905Y-108652438D01*
X110811905Y-108652438D02*
X110764286Y-108700057D01*
X110764286Y-108700057D02*
X110669048Y-108842914D01*
X110669048Y-108842914D02*
X110621429Y-109033390D01*
X110621429Y-109033390D02*
X110621429Y-109414342D01*
X110621429Y-109414342D02*
X110669048Y-109509580D01*
X110669048Y-109509580D02*
X110716667Y-109557200D01*
X110716667Y-109557200D02*
X110811905Y-109604819D01*
X110811905Y-109604819D02*
X111002381Y-109604819D01*
X111002381Y-109604819D02*
X111097619Y-109557200D01*
X111097619Y-109557200D02*
X111145238Y-109509580D01*
X111145238Y-109509580D02*
X111192857Y-109414342D01*
X111192857Y-109414342D02*
X111192857Y-109176247D01*
X111192857Y-109176247D02*
X111145238Y-109081009D01*
X111145238Y-109081009D02*
X111097619Y-109033390D01*
X111097619Y-109033390D02*
X111002381Y-108985771D01*
X111002381Y-108985771D02*
X110811905Y-108985771D01*
X110811905Y-108985771D02*
X110716667Y-109033390D01*
X110716667Y-109033390D02*
X110669048Y-109081009D01*
X110669048Y-109081009D02*
X110621429Y-109176247D01*
X107228571Y-110823866D02*
X107990476Y-110823866D01*
X107609523Y-111204819D02*
X107609523Y-110442914D01*
X108799999Y-110681009D02*
X108942856Y-110728628D01*
X108942856Y-110728628D02*
X108990475Y-110776247D01*
X108990475Y-110776247D02*
X109038094Y-110871485D01*
X109038094Y-110871485D02*
X109038094Y-111014342D01*
X109038094Y-111014342D02*
X108990475Y-111109580D01*
X108990475Y-111109580D02*
X108942856Y-111157200D01*
X108942856Y-111157200D02*
X108847618Y-111204819D01*
X108847618Y-111204819D02*
X108466666Y-111204819D01*
X108466666Y-111204819D02*
X108466666Y-110204819D01*
X108466666Y-110204819D02*
X108799999Y-110204819D01*
X108799999Y-110204819D02*
X108895237Y-110252438D01*
X108895237Y-110252438D02*
X108942856Y-110300057D01*
X108942856Y-110300057D02*
X108990475Y-110395295D01*
X108990475Y-110395295D02*
X108990475Y-110490533D01*
X108990475Y-110490533D02*
X108942856Y-110585771D01*
X108942856Y-110585771D02*
X108895237Y-110633390D01*
X108895237Y-110633390D02*
X108799999Y-110681009D01*
X108799999Y-110681009D02*
X108466666Y-110681009D01*
X109419047Y-110919104D02*
X109895237Y-110919104D01*
X109323809Y-111204819D02*
X109657142Y-110204819D01*
X109657142Y-110204819D02*
X109990475Y-111204819D01*
X110180952Y-110204819D02*
X110752380Y-110204819D01*
X110466666Y-111204819D02*
X110466666Y-110204819D01*
X110942857Y-110204819D02*
X111514285Y-110204819D01*
X111228571Y-111204819D02*
X111228571Y-110204819D01*
X146634580Y-105342857D02*
X146682200Y-105390476D01*
X146682200Y-105390476D02*
X146729819Y-105533333D01*
X146729819Y-105533333D02*
X146729819Y-105628571D01*
X146729819Y-105628571D02*
X146682200Y-105771428D01*
X146682200Y-105771428D02*
X146586961Y-105866666D01*
X146586961Y-105866666D02*
X146491723Y-105914285D01*
X146491723Y-105914285D02*
X146301247Y-105961904D01*
X146301247Y-105961904D02*
X146158390Y-105961904D01*
X146158390Y-105961904D02*
X145967914Y-105914285D01*
X145967914Y-105914285D02*
X145872676Y-105866666D01*
X145872676Y-105866666D02*
X145777438Y-105771428D01*
X145777438Y-105771428D02*
X145729819Y-105628571D01*
X145729819Y-105628571D02*
X145729819Y-105533333D01*
X145729819Y-105533333D02*
X145777438Y-105390476D01*
X145777438Y-105390476D02*
X145825057Y-105342857D01*
X146063152Y-104485714D02*
X146729819Y-104485714D01*
X145682200Y-104723809D02*
X146396485Y-104961904D01*
X146396485Y-104961904D02*
X146396485Y-104342857D01*
X145729819Y-103771428D02*
X145729819Y-103676190D01*
X145729819Y-103676190D02*
X145777438Y-103580952D01*
X145777438Y-103580952D02*
X145825057Y-103533333D01*
X145825057Y-103533333D02*
X145920295Y-103485714D01*
X145920295Y-103485714D02*
X146110771Y-103438095D01*
X146110771Y-103438095D02*
X146348866Y-103438095D01*
X146348866Y-103438095D02*
X146539342Y-103485714D01*
X146539342Y-103485714D02*
X146634580Y-103533333D01*
X146634580Y-103533333D02*
X146682200Y-103580952D01*
X146682200Y-103580952D02*
X146729819Y-103676190D01*
X146729819Y-103676190D02*
X146729819Y-103771428D01*
X146729819Y-103771428D02*
X146682200Y-103866666D01*
X146682200Y-103866666D02*
X146634580Y-103914285D01*
X146634580Y-103914285D02*
X146539342Y-103961904D01*
X146539342Y-103961904D02*
X146348866Y-104009523D01*
X146348866Y-104009523D02*
X146110771Y-104009523D01*
X146110771Y-104009523D02*
X145920295Y-103961904D01*
X145920295Y-103961904D02*
X145825057Y-103914285D01*
X145825057Y-103914285D02*
X145777438Y-103866666D01*
X145777438Y-103866666D02*
X145729819Y-103771428D01*
X124959580Y-46692857D02*
X125007200Y-46740476D01*
X125007200Y-46740476D02*
X125054819Y-46883333D01*
X125054819Y-46883333D02*
X125054819Y-46978571D01*
X125054819Y-46978571D02*
X125007200Y-47121428D01*
X125007200Y-47121428D02*
X124911961Y-47216666D01*
X124911961Y-47216666D02*
X124816723Y-47264285D01*
X124816723Y-47264285D02*
X124626247Y-47311904D01*
X124626247Y-47311904D02*
X124483390Y-47311904D01*
X124483390Y-47311904D02*
X124292914Y-47264285D01*
X124292914Y-47264285D02*
X124197676Y-47216666D01*
X124197676Y-47216666D02*
X124102438Y-47121428D01*
X124102438Y-47121428D02*
X124054819Y-46978571D01*
X124054819Y-46978571D02*
X124054819Y-46883333D01*
X124054819Y-46883333D02*
X124102438Y-46740476D01*
X124102438Y-46740476D02*
X124150057Y-46692857D01*
X125054819Y-45740476D02*
X125054819Y-46311904D01*
X125054819Y-46026190D02*
X124054819Y-46026190D01*
X124054819Y-46026190D02*
X124197676Y-46121428D01*
X124197676Y-46121428D02*
X124292914Y-46216666D01*
X124292914Y-46216666D02*
X124340533Y-46311904D01*
X124150057Y-45359523D02*
X124102438Y-45311904D01*
X124102438Y-45311904D02*
X124054819Y-45216666D01*
X124054819Y-45216666D02*
X124054819Y-44978571D01*
X124054819Y-44978571D02*
X124102438Y-44883333D01*
X124102438Y-44883333D02*
X124150057Y-44835714D01*
X124150057Y-44835714D02*
X124245295Y-44788095D01*
X124245295Y-44788095D02*
X124340533Y-44788095D01*
X124340533Y-44788095D02*
X124483390Y-44835714D01*
X124483390Y-44835714D02*
X125054819Y-45407142D01*
X125054819Y-45407142D02*
X125054819Y-44788095D01*
X149088095Y-77706819D02*
X149659523Y-77706819D01*
X149373809Y-78706819D02*
X149373809Y-77706819D01*
X149992857Y-78706819D02*
X149992857Y-77706819D01*
X149992857Y-77706819D02*
X150373809Y-77706819D01*
X150373809Y-77706819D02*
X150469047Y-77754438D01*
X150469047Y-77754438D02*
X150516666Y-77802057D01*
X150516666Y-77802057D02*
X150564285Y-77897295D01*
X150564285Y-77897295D02*
X150564285Y-78040152D01*
X150564285Y-78040152D02*
X150516666Y-78135390D01*
X150516666Y-78135390D02*
X150469047Y-78183009D01*
X150469047Y-78183009D02*
X150373809Y-78230628D01*
X150373809Y-78230628D02*
X149992857Y-78230628D01*
X150897619Y-77706819D02*
X151516666Y-77706819D01*
X151516666Y-77706819D02*
X151183333Y-78087771D01*
X151183333Y-78087771D02*
X151326190Y-78087771D01*
X151326190Y-78087771D02*
X151421428Y-78135390D01*
X151421428Y-78135390D02*
X151469047Y-78183009D01*
X151469047Y-78183009D02*
X151516666Y-78278247D01*
X151516666Y-78278247D02*
X151516666Y-78516342D01*
X151516666Y-78516342D02*
X151469047Y-78611580D01*
X151469047Y-78611580D02*
X151421428Y-78659200D01*
X151421428Y-78659200D02*
X151326190Y-78706819D01*
X151326190Y-78706819D02*
X151040476Y-78706819D01*
X151040476Y-78706819D02*
X150945238Y-78659200D01*
X150945238Y-78659200D02*
X150897619Y-78611580D01*
X149064286Y-81973866D02*
X149826191Y-81973866D01*
X149445238Y-82354819D02*
X149445238Y-81592914D01*
X150778571Y-81354819D02*
X150302381Y-81354819D01*
X150302381Y-81354819D02*
X150254762Y-81831009D01*
X150254762Y-81831009D02*
X150302381Y-81783390D01*
X150302381Y-81783390D02*
X150397619Y-81735771D01*
X150397619Y-81735771D02*
X150635714Y-81735771D01*
X150635714Y-81735771D02*
X150730952Y-81783390D01*
X150730952Y-81783390D02*
X150778571Y-81831009D01*
X150778571Y-81831009D02*
X150826190Y-81926247D01*
X150826190Y-81926247D02*
X150826190Y-82164342D01*
X150826190Y-82164342D02*
X150778571Y-82259580D01*
X150778571Y-82259580D02*
X150730952Y-82307200D01*
X150730952Y-82307200D02*
X150635714Y-82354819D01*
X150635714Y-82354819D02*
X150397619Y-82354819D01*
X150397619Y-82354819D02*
X150302381Y-82307200D01*
X150302381Y-82307200D02*
X150254762Y-82259580D01*
X151111905Y-81354819D02*
X151445238Y-82354819D01*
X151445238Y-82354819D02*
X151778571Y-81354819D01*
X154156069Y-58442858D02*
X153679878Y-58776191D01*
X154156069Y-59014286D02*
X153156069Y-59014286D01*
X153156069Y-59014286D02*
X153156069Y-58633334D01*
X153156069Y-58633334D02*
X153203688Y-58538096D01*
X153203688Y-58538096D02*
X153251307Y-58490477D01*
X153251307Y-58490477D02*
X153346545Y-58442858D01*
X153346545Y-58442858D02*
X153489402Y-58442858D01*
X153489402Y-58442858D02*
X153584640Y-58490477D01*
X153584640Y-58490477D02*
X153632259Y-58538096D01*
X153632259Y-58538096D02*
X153679878Y-58633334D01*
X153679878Y-58633334D02*
X153679878Y-59014286D01*
X154156069Y-57490477D02*
X154156069Y-58061905D01*
X154156069Y-57776191D02*
X153156069Y-57776191D01*
X153156069Y-57776191D02*
X153298926Y-57871429D01*
X153298926Y-57871429D02*
X153394164Y-57966667D01*
X153394164Y-57966667D02*
X153441783Y-58061905D01*
X154156069Y-56538096D02*
X154156069Y-57109524D01*
X154156069Y-56823810D02*
X153156069Y-56823810D01*
X153156069Y-56823810D02*
X153298926Y-56919048D01*
X153298926Y-56919048D02*
X153394164Y-57014286D01*
X153394164Y-57014286D02*
X153441783Y-57109524D01*
X161519345Y-60054819D02*
X161519345Y-60864342D01*
X161519345Y-60864342D02*
X161566964Y-60959580D01*
X161566964Y-60959580D02*
X161614583Y-61007200D01*
X161614583Y-61007200D02*
X161709821Y-61054819D01*
X161709821Y-61054819D02*
X161900297Y-61054819D01*
X161900297Y-61054819D02*
X161995535Y-61007200D01*
X161995535Y-61007200D02*
X162043154Y-60959580D01*
X162043154Y-60959580D02*
X162090773Y-60864342D01*
X162090773Y-60864342D02*
X162090773Y-60054819D01*
X163043154Y-60054819D02*
X162566964Y-60054819D01*
X162566964Y-60054819D02*
X162519345Y-60531009D01*
X162519345Y-60531009D02*
X162566964Y-60483390D01*
X162566964Y-60483390D02*
X162662202Y-60435771D01*
X162662202Y-60435771D02*
X162900297Y-60435771D01*
X162900297Y-60435771D02*
X162995535Y-60483390D01*
X162995535Y-60483390D02*
X163043154Y-60531009D01*
X163043154Y-60531009D02*
X163090773Y-60626247D01*
X163090773Y-60626247D02*
X163090773Y-60864342D01*
X163090773Y-60864342D02*
X163043154Y-60959580D01*
X163043154Y-60959580D02*
X162995535Y-61007200D01*
X162995535Y-61007200D02*
X162900297Y-61054819D01*
X162900297Y-61054819D02*
X162662202Y-61054819D01*
X162662202Y-61054819D02*
X162566964Y-61007200D01*
X162566964Y-61007200D02*
X162519345Y-60959580D01*
X159855550Y-55329819D02*
X159855550Y-55567914D01*
X159617455Y-55472676D02*
X159855550Y-55567914D01*
X159855550Y-55567914D02*
X160093645Y-55472676D01*
X159712693Y-55758390D02*
X159855550Y-55567914D01*
X159855550Y-55567914D02*
X159998407Y-55758390D01*
X159855550Y-55329819D02*
X159855550Y-55567914D01*
X159617455Y-55472676D02*
X159855550Y-55567914D01*
X159855550Y-55567914D02*
X160093645Y-55472676D01*
X159712693Y-55758390D02*
X159855550Y-55567914D01*
X159855550Y-55567914D02*
X159998407Y-55758390D01*
X141349819Y-110102857D02*
X140873628Y-110436190D01*
X141349819Y-110674285D02*
X140349819Y-110674285D01*
X140349819Y-110674285D02*
X140349819Y-110293333D01*
X140349819Y-110293333D02*
X140397438Y-110198095D01*
X140397438Y-110198095D02*
X140445057Y-110150476D01*
X140445057Y-110150476D02*
X140540295Y-110102857D01*
X140540295Y-110102857D02*
X140683152Y-110102857D01*
X140683152Y-110102857D02*
X140778390Y-110150476D01*
X140778390Y-110150476D02*
X140826009Y-110198095D01*
X140826009Y-110198095D02*
X140873628Y-110293333D01*
X140873628Y-110293333D02*
X140873628Y-110674285D01*
X141349819Y-109150476D02*
X141349819Y-109721904D01*
X141349819Y-109436190D02*
X140349819Y-109436190D01*
X140349819Y-109436190D02*
X140492676Y-109531428D01*
X140492676Y-109531428D02*
X140587914Y-109626666D01*
X140587914Y-109626666D02*
X140635533Y-109721904D01*
X140349819Y-108817142D02*
X140349819Y-108150476D01*
X140349819Y-108150476D02*
X141349819Y-108579047D01*
X132711905Y-106504819D02*
X132711905Y-107314342D01*
X132711905Y-107314342D02*
X132759524Y-107409580D01*
X132759524Y-107409580D02*
X132807143Y-107457200D01*
X132807143Y-107457200D02*
X132902381Y-107504819D01*
X132902381Y-107504819D02*
X133092857Y-107504819D01*
X133092857Y-107504819D02*
X133188095Y-107457200D01*
X133188095Y-107457200D02*
X133235714Y-107409580D01*
X133235714Y-107409580D02*
X133283333Y-107314342D01*
X133283333Y-107314342D02*
X133283333Y-106504819D01*
X134283333Y-107504819D02*
X133711905Y-107504819D01*
X133997619Y-107504819D02*
X133997619Y-106504819D01*
X133997619Y-106504819D02*
X133902381Y-106647676D01*
X133902381Y-106647676D02*
X133807143Y-106742914D01*
X133807143Y-106742914D02*
X133711905Y-106790533D01*
X135140476Y-106838152D02*
X135140476Y-107504819D01*
X134902381Y-106457200D02*
X134664286Y-107171485D01*
X134664286Y-107171485D02*
X135283333Y-107171485D01*
X121661905Y-72606819D02*
X122233333Y-72606819D01*
X121947619Y-73606819D02*
X121947619Y-72606819D01*
X122566667Y-73606819D02*
X122566667Y-72606819D01*
X122566667Y-72606819D02*
X122947619Y-72606819D01*
X122947619Y-72606819D02*
X123042857Y-72654438D01*
X123042857Y-72654438D02*
X123090476Y-72702057D01*
X123090476Y-72702057D02*
X123138095Y-72797295D01*
X123138095Y-72797295D02*
X123138095Y-72940152D01*
X123138095Y-72940152D02*
X123090476Y-73035390D01*
X123090476Y-73035390D02*
X123042857Y-73083009D01*
X123042857Y-73083009D02*
X122947619Y-73130628D01*
X122947619Y-73130628D02*
X122566667Y-73130628D01*
X124090476Y-73606819D02*
X123519048Y-73606819D01*
X123804762Y-73606819D02*
X123804762Y-72606819D01*
X123804762Y-72606819D02*
X123709524Y-72749676D01*
X123709524Y-72749676D02*
X123614286Y-72844914D01*
X123614286Y-72844914D02*
X123519048Y-72892533D01*
X125042857Y-73606819D02*
X124471429Y-73606819D01*
X124757143Y-73606819D02*
X124757143Y-72606819D01*
X124757143Y-72606819D02*
X124661905Y-72749676D01*
X124661905Y-72749676D02*
X124566667Y-72844914D01*
X124566667Y-72844914D02*
X124471429Y-72892533D01*
X130634580Y-111942857D02*
X130682200Y-111990476D01*
X130682200Y-111990476D02*
X130729819Y-112133333D01*
X130729819Y-112133333D02*
X130729819Y-112228571D01*
X130729819Y-112228571D02*
X130682200Y-112371428D01*
X130682200Y-112371428D02*
X130586961Y-112466666D01*
X130586961Y-112466666D02*
X130491723Y-112514285D01*
X130491723Y-112514285D02*
X130301247Y-112561904D01*
X130301247Y-112561904D02*
X130158390Y-112561904D01*
X130158390Y-112561904D02*
X129967914Y-112514285D01*
X129967914Y-112514285D02*
X129872676Y-112466666D01*
X129872676Y-112466666D02*
X129777438Y-112371428D01*
X129777438Y-112371428D02*
X129729819Y-112228571D01*
X129729819Y-112228571D02*
X129729819Y-112133333D01*
X129729819Y-112133333D02*
X129777438Y-111990476D01*
X129777438Y-111990476D02*
X129825057Y-111942857D01*
X129729819Y-111609523D02*
X129729819Y-110990476D01*
X129729819Y-110990476D02*
X130110771Y-111323809D01*
X130110771Y-111323809D02*
X130110771Y-111180952D01*
X130110771Y-111180952D02*
X130158390Y-111085714D01*
X130158390Y-111085714D02*
X130206009Y-111038095D01*
X130206009Y-111038095D02*
X130301247Y-110990476D01*
X130301247Y-110990476D02*
X130539342Y-110990476D01*
X130539342Y-110990476D02*
X130634580Y-111038095D01*
X130634580Y-111038095D02*
X130682200Y-111085714D01*
X130682200Y-111085714D02*
X130729819Y-111180952D01*
X130729819Y-111180952D02*
X130729819Y-111466666D01*
X130729819Y-111466666D02*
X130682200Y-111561904D01*
X130682200Y-111561904D02*
X130634580Y-111609523D01*
X129729819Y-110085714D02*
X129729819Y-110561904D01*
X129729819Y-110561904D02*
X130206009Y-110609523D01*
X130206009Y-110609523D02*
X130158390Y-110561904D01*
X130158390Y-110561904D02*
X130110771Y-110466666D01*
X130110771Y-110466666D02*
X130110771Y-110228571D01*
X130110771Y-110228571D02*
X130158390Y-110133333D01*
X130158390Y-110133333D02*
X130206009Y-110085714D01*
X130206009Y-110085714D02*
X130301247Y-110038095D01*
X130301247Y-110038095D02*
X130539342Y-110038095D01*
X130539342Y-110038095D02*
X130634580Y-110085714D01*
X130634580Y-110085714D02*
X130682200Y-110133333D01*
X130682200Y-110133333D02*
X130729819Y-110228571D01*
X130729819Y-110228571D02*
X130729819Y-110466666D01*
X130729819Y-110466666D02*
X130682200Y-110561904D01*
X130682200Y-110561904D02*
X130634580Y-110609523D01*
X155073002Y-64104819D02*
X155073002Y-64914342D01*
X155073002Y-64914342D02*
X155120621Y-65009580D01*
X155120621Y-65009580D02*
X155168240Y-65057200D01*
X155168240Y-65057200D02*
X155263478Y-65104819D01*
X155263478Y-65104819D02*
X155453954Y-65104819D01*
X155453954Y-65104819D02*
X155549192Y-65057200D01*
X155549192Y-65057200D02*
X155596811Y-65009580D01*
X155596811Y-65009580D02*
X155644430Y-64914342D01*
X155644430Y-64914342D02*
X155644430Y-64104819D01*
X156644430Y-65104819D02*
X156073002Y-65104819D01*
X156358716Y-65104819D02*
X156358716Y-64104819D01*
X156358716Y-64104819D02*
X156263478Y-64247676D01*
X156263478Y-64247676D02*
X156168240Y-64342914D01*
X156168240Y-64342914D02*
X156073002Y-64390533D01*
X157263478Y-64104819D02*
X157358716Y-64104819D01*
X157358716Y-64104819D02*
X157453954Y-64152438D01*
X157453954Y-64152438D02*
X157501573Y-64200057D01*
X157501573Y-64200057D02*
X157549192Y-64295295D01*
X157549192Y-64295295D02*
X157596811Y-64485771D01*
X157596811Y-64485771D02*
X157596811Y-64723866D01*
X157596811Y-64723866D02*
X157549192Y-64914342D01*
X157549192Y-64914342D02*
X157501573Y-65009580D01*
X157501573Y-65009580D02*
X157453954Y-65057200D01*
X157453954Y-65057200D02*
X157358716Y-65104819D01*
X157358716Y-65104819D02*
X157263478Y-65104819D01*
X157263478Y-65104819D02*
X157168240Y-65057200D01*
X157168240Y-65057200D02*
X157120621Y-65009580D01*
X157120621Y-65009580D02*
X157073002Y-64914342D01*
X157073002Y-64914342D02*
X157025383Y-64723866D01*
X157025383Y-64723866D02*
X157025383Y-64485771D01*
X157025383Y-64485771D02*
X157073002Y-64295295D01*
X157073002Y-64295295D02*
X157120621Y-64200057D01*
X157120621Y-64200057D02*
X157168240Y-64152438D01*
X157168240Y-64152438D02*
X157263478Y-64104819D01*
X153885397Y-64181620D02*
X153885397Y-64419715D01*
X153647302Y-64324477D02*
X153885397Y-64419715D01*
X153885397Y-64419715D02*
X154123492Y-64324477D01*
X153742540Y-64610191D02*
X153885397Y-64419715D01*
X153885397Y-64419715D02*
X154028254Y-64610191D01*
X153885397Y-64181620D02*
X153885397Y-64419715D01*
X153647302Y-64324477D02*
X153885397Y-64419715D01*
X153885397Y-64419715D02*
X154123492Y-64324477D01*
X153742540Y-64610191D02*
X153885397Y-64419715D01*
X153885397Y-64419715D02*
X154028254Y-64610191D01*
X159911905Y-112704819D02*
X159911905Y-113514342D01*
X159911905Y-113514342D02*
X159959524Y-113609580D01*
X159959524Y-113609580D02*
X160007143Y-113657200D01*
X160007143Y-113657200D02*
X160102381Y-113704819D01*
X160102381Y-113704819D02*
X160292857Y-113704819D01*
X160292857Y-113704819D02*
X160388095Y-113657200D01*
X160388095Y-113657200D02*
X160435714Y-113609580D01*
X160435714Y-113609580D02*
X160483333Y-113514342D01*
X160483333Y-113514342D02*
X160483333Y-112704819D01*
X161483333Y-113704819D02*
X160911905Y-113704819D01*
X161197619Y-113704819D02*
X161197619Y-112704819D01*
X161197619Y-112704819D02*
X161102381Y-112847676D01*
X161102381Y-112847676D02*
X161007143Y-112942914D01*
X161007143Y-112942914D02*
X160911905Y-112990533D01*
X162388095Y-112704819D02*
X161911905Y-112704819D01*
X161911905Y-112704819D02*
X161864286Y-113181009D01*
X161864286Y-113181009D02*
X161911905Y-113133390D01*
X161911905Y-113133390D02*
X162007143Y-113085771D01*
X162007143Y-113085771D02*
X162245238Y-113085771D01*
X162245238Y-113085771D02*
X162340476Y-113133390D01*
X162340476Y-113133390D02*
X162388095Y-113181009D01*
X162388095Y-113181009D02*
X162435714Y-113276247D01*
X162435714Y-113276247D02*
X162435714Y-113514342D01*
X162435714Y-113514342D02*
X162388095Y-113609580D01*
X162388095Y-113609580D02*
X162340476Y-113657200D01*
X162340476Y-113657200D02*
X162245238Y-113704819D01*
X162245238Y-113704819D02*
X162007143Y-113704819D01*
X162007143Y-113704819D02*
X161911905Y-113657200D01*
X161911905Y-113657200D02*
X161864286Y-113609580D01*
X119161905Y-44454819D02*
X119733333Y-44454819D01*
X119447619Y-45454819D02*
X119447619Y-44454819D01*
X120066667Y-45454819D02*
X120066667Y-44454819D01*
X120066667Y-44454819D02*
X120447619Y-44454819D01*
X120447619Y-44454819D02*
X120542857Y-44502438D01*
X120542857Y-44502438D02*
X120590476Y-44550057D01*
X120590476Y-44550057D02*
X120638095Y-44645295D01*
X120638095Y-44645295D02*
X120638095Y-44788152D01*
X120638095Y-44788152D02*
X120590476Y-44883390D01*
X120590476Y-44883390D02*
X120542857Y-44931009D01*
X120542857Y-44931009D02*
X120447619Y-44978628D01*
X120447619Y-44978628D02*
X120066667Y-44978628D01*
X121590476Y-45454819D02*
X121019048Y-45454819D01*
X121304762Y-45454819D02*
X121304762Y-44454819D01*
X121304762Y-44454819D02*
X121209524Y-44597676D01*
X121209524Y-44597676D02*
X121114286Y-44692914D01*
X121114286Y-44692914D02*
X121019048Y-44740533D01*
X122209524Y-44454819D02*
X122304762Y-44454819D01*
X122304762Y-44454819D02*
X122400000Y-44502438D01*
X122400000Y-44502438D02*
X122447619Y-44550057D01*
X122447619Y-44550057D02*
X122495238Y-44645295D01*
X122495238Y-44645295D02*
X122542857Y-44835771D01*
X122542857Y-44835771D02*
X122542857Y-45073866D01*
X122542857Y-45073866D02*
X122495238Y-45264342D01*
X122495238Y-45264342D02*
X122447619Y-45359580D01*
X122447619Y-45359580D02*
X122400000Y-45407200D01*
X122400000Y-45407200D02*
X122304762Y-45454819D01*
X122304762Y-45454819D02*
X122209524Y-45454819D01*
X122209524Y-45454819D02*
X122114286Y-45407200D01*
X122114286Y-45407200D02*
X122066667Y-45359580D01*
X122066667Y-45359580D02*
X122019048Y-45264342D01*
X122019048Y-45264342D02*
X121971429Y-45073866D01*
X121971429Y-45073866D02*
X121971429Y-44835771D01*
X121971429Y-44835771D02*
X122019048Y-44645295D01*
X122019048Y-44645295D02*
X122066667Y-44550057D01*
X122066667Y-44550057D02*
X122114286Y-44502438D01*
X122114286Y-44502438D02*
X122209524Y-44454819D01*
X144864285Y-139182509D02*
X145007142Y-139230128D01*
X145007142Y-139230128D02*
X145054761Y-139277747D01*
X145054761Y-139277747D02*
X145102380Y-139372985D01*
X145102380Y-139372985D02*
X145102380Y-139515842D01*
X145102380Y-139515842D02*
X145054761Y-139611080D01*
X145054761Y-139611080D02*
X145007142Y-139658700D01*
X145007142Y-139658700D02*
X144911904Y-139706319D01*
X144911904Y-139706319D02*
X144530952Y-139706319D01*
X144530952Y-139706319D02*
X144530952Y-138706319D01*
X144530952Y-138706319D02*
X144864285Y-138706319D01*
X144864285Y-138706319D02*
X144959523Y-138753938D01*
X144959523Y-138753938D02*
X145007142Y-138801557D01*
X145007142Y-138801557D02*
X145054761Y-138896795D01*
X145054761Y-138896795D02*
X145054761Y-138992033D01*
X145054761Y-138992033D02*
X145007142Y-139087271D01*
X145007142Y-139087271D02*
X144959523Y-139134890D01*
X144959523Y-139134890D02*
X144864285Y-139182509D01*
X144864285Y-139182509D02*
X144530952Y-139182509D01*
X145388095Y-138706319D02*
X145959523Y-138706319D01*
X145673809Y-139706319D02*
X145673809Y-138706319D01*
X146816666Y-139706319D02*
X146245238Y-139706319D01*
X146530952Y-139706319D02*
X146530952Y-138706319D01*
X146530952Y-138706319D02*
X146435714Y-138849176D01*
X146435714Y-138849176D02*
X146340476Y-138944414D01*
X146340476Y-138944414D02*
X146245238Y-138992033D01*
X121261905Y-76706819D02*
X121833333Y-76706819D01*
X121547619Y-77706819D02*
X121547619Y-76706819D01*
X122166667Y-77706819D02*
X122166667Y-76706819D01*
X122166667Y-76706819D02*
X122547619Y-76706819D01*
X122547619Y-76706819D02*
X122642857Y-76754438D01*
X122642857Y-76754438D02*
X122690476Y-76802057D01*
X122690476Y-76802057D02*
X122738095Y-76897295D01*
X122738095Y-76897295D02*
X122738095Y-77040152D01*
X122738095Y-77040152D02*
X122690476Y-77135390D01*
X122690476Y-77135390D02*
X122642857Y-77183009D01*
X122642857Y-77183009D02*
X122547619Y-77230628D01*
X122547619Y-77230628D02*
X122166667Y-77230628D01*
X123690476Y-77706819D02*
X123119048Y-77706819D01*
X123404762Y-77706819D02*
X123404762Y-76706819D01*
X123404762Y-76706819D02*
X123309524Y-76849676D01*
X123309524Y-76849676D02*
X123214286Y-76944914D01*
X123214286Y-76944914D02*
X123119048Y-76992533D01*
X124023810Y-76706819D02*
X124642857Y-76706819D01*
X124642857Y-76706819D02*
X124309524Y-77087771D01*
X124309524Y-77087771D02*
X124452381Y-77087771D01*
X124452381Y-77087771D02*
X124547619Y-77135390D01*
X124547619Y-77135390D02*
X124595238Y-77183009D01*
X124595238Y-77183009D02*
X124642857Y-77278247D01*
X124642857Y-77278247D02*
X124642857Y-77516342D01*
X124642857Y-77516342D02*
X124595238Y-77611580D01*
X124595238Y-77611580D02*
X124547619Y-77659200D01*
X124547619Y-77659200D02*
X124452381Y-77706819D01*
X124452381Y-77706819D02*
X124166667Y-77706819D01*
X124166667Y-77706819D02*
X124071429Y-77659200D01*
X124071429Y-77659200D02*
X124023810Y-77611580D01*
X135604819Y-49909167D02*
X135128628Y-50242500D01*
X135604819Y-50480595D02*
X134604819Y-50480595D01*
X134604819Y-50480595D02*
X134604819Y-50099643D01*
X134604819Y-50099643D02*
X134652438Y-50004405D01*
X134652438Y-50004405D02*
X134700057Y-49956786D01*
X134700057Y-49956786D02*
X134795295Y-49909167D01*
X134795295Y-49909167D02*
X134938152Y-49909167D01*
X134938152Y-49909167D02*
X135033390Y-49956786D01*
X135033390Y-49956786D02*
X135081009Y-50004405D01*
X135081009Y-50004405D02*
X135128628Y-50099643D01*
X135128628Y-50099643D02*
X135128628Y-50480595D01*
X134604819Y-49575833D02*
X134604819Y-48956786D01*
X134604819Y-48956786D02*
X134985771Y-49290119D01*
X134985771Y-49290119D02*
X134985771Y-49147262D01*
X134985771Y-49147262D02*
X135033390Y-49052024D01*
X135033390Y-49052024D02*
X135081009Y-49004405D01*
X135081009Y-49004405D02*
X135176247Y-48956786D01*
X135176247Y-48956786D02*
X135414342Y-48956786D01*
X135414342Y-48956786D02*
X135509580Y-49004405D01*
X135509580Y-49004405D02*
X135557200Y-49052024D01*
X135557200Y-49052024D02*
X135604819Y-49147262D01*
X135604819Y-49147262D02*
X135604819Y-49432976D01*
X135604819Y-49432976D02*
X135557200Y-49528214D01*
X135557200Y-49528214D02*
X135509580Y-49575833D01*
X140834580Y-105342857D02*
X140882200Y-105390476D01*
X140882200Y-105390476D02*
X140929819Y-105533333D01*
X140929819Y-105533333D02*
X140929819Y-105628571D01*
X140929819Y-105628571D02*
X140882200Y-105771428D01*
X140882200Y-105771428D02*
X140786961Y-105866666D01*
X140786961Y-105866666D02*
X140691723Y-105914285D01*
X140691723Y-105914285D02*
X140501247Y-105961904D01*
X140501247Y-105961904D02*
X140358390Y-105961904D01*
X140358390Y-105961904D02*
X140167914Y-105914285D01*
X140167914Y-105914285D02*
X140072676Y-105866666D01*
X140072676Y-105866666D02*
X139977438Y-105771428D01*
X139977438Y-105771428D02*
X139929819Y-105628571D01*
X139929819Y-105628571D02*
X139929819Y-105533333D01*
X139929819Y-105533333D02*
X139977438Y-105390476D01*
X139977438Y-105390476D02*
X140025057Y-105342857D01*
X139929819Y-105009523D02*
X139929819Y-104390476D01*
X139929819Y-104390476D02*
X140310771Y-104723809D01*
X140310771Y-104723809D02*
X140310771Y-104580952D01*
X140310771Y-104580952D02*
X140358390Y-104485714D01*
X140358390Y-104485714D02*
X140406009Y-104438095D01*
X140406009Y-104438095D02*
X140501247Y-104390476D01*
X140501247Y-104390476D02*
X140739342Y-104390476D01*
X140739342Y-104390476D02*
X140834580Y-104438095D01*
X140834580Y-104438095D02*
X140882200Y-104485714D01*
X140882200Y-104485714D02*
X140929819Y-104580952D01*
X140929819Y-104580952D02*
X140929819Y-104866666D01*
X140929819Y-104866666D02*
X140882200Y-104961904D01*
X140882200Y-104961904D02*
X140834580Y-105009523D01*
X140358390Y-103819047D02*
X140310771Y-103914285D01*
X140310771Y-103914285D02*
X140263152Y-103961904D01*
X140263152Y-103961904D02*
X140167914Y-104009523D01*
X140167914Y-104009523D02*
X140120295Y-104009523D01*
X140120295Y-104009523D02*
X140025057Y-103961904D01*
X140025057Y-103961904D02*
X139977438Y-103914285D01*
X139977438Y-103914285D02*
X139929819Y-103819047D01*
X139929819Y-103819047D02*
X139929819Y-103628571D01*
X139929819Y-103628571D02*
X139977438Y-103533333D01*
X139977438Y-103533333D02*
X140025057Y-103485714D01*
X140025057Y-103485714D02*
X140120295Y-103438095D01*
X140120295Y-103438095D02*
X140167914Y-103438095D01*
X140167914Y-103438095D02*
X140263152Y-103485714D01*
X140263152Y-103485714D02*
X140310771Y-103533333D01*
X140310771Y-103533333D02*
X140358390Y-103628571D01*
X140358390Y-103628571D02*
X140358390Y-103819047D01*
X140358390Y-103819047D02*
X140406009Y-103914285D01*
X140406009Y-103914285D02*
X140453628Y-103961904D01*
X140453628Y-103961904D02*
X140548866Y-104009523D01*
X140548866Y-104009523D02*
X140739342Y-104009523D01*
X140739342Y-104009523D02*
X140834580Y-103961904D01*
X140834580Y-103961904D02*
X140882200Y-103914285D01*
X140882200Y-103914285D02*
X140929819Y-103819047D01*
X140929819Y-103819047D02*
X140929819Y-103628571D01*
X140929819Y-103628571D02*
X140882200Y-103533333D01*
X140882200Y-103533333D02*
X140834580Y-103485714D01*
X140834580Y-103485714D02*
X140739342Y-103438095D01*
X140739342Y-103438095D02*
X140548866Y-103438095D01*
X140548866Y-103438095D02*
X140453628Y-103485714D01*
X140453628Y-103485714D02*
X140406009Y-103533333D01*
X140406009Y-103533333D02*
X140358390Y-103628571D01*
X160290830Y-54167857D02*
X160338450Y-54215476D01*
X160338450Y-54215476D02*
X160386069Y-54358333D01*
X160386069Y-54358333D02*
X160386069Y-54453571D01*
X160386069Y-54453571D02*
X160338450Y-54596428D01*
X160338450Y-54596428D02*
X160243211Y-54691666D01*
X160243211Y-54691666D02*
X160147973Y-54739285D01*
X160147973Y-54739285D02*
X159957497Y-54786904D01*
X159957497Y-54786904D02*
X159814640Y-54786904D01*
X159814640Y-54786904D02*
X159624164Y-54739285D01*
X159624164Y-54739285D02*
X159528926Y-54691666D01*
X159528926Y-54691666D02*
X159433688Y-54596428D01*
X159433688Y-54596428D02*
X159386069Y-54453571D01*
X159386069Y-54453571D02*
X159386069Y-54358333D01*
X159386069Y-54358333D02*
X159433688Y-54215476D01*
X159433688Y-54215476D02*
X159481307Y-54167857D01*
X160386069Y-53215476D02*
X160386069Y-53786904D01*
X160386069Y-53501190D02*
X159386069Y-53501190D01*
X159386069Y-53501190D02*
X159528926Y-53596428D01*
X159528926Y-53596428D02*
X159624164Y-53691666D01*
X159624164Y-53691666D02*
X159671783Y-53786904D01*
X159386069Y-52358333D02*
X159386069Y-52548809D01*
X159386069Y-52548809D02*
X159433688Y-52644047D01*
X159433688Y-52644047D02*
X159481307Y-52691666D01*
X159481307Y-52691666D02*
X159624164Y-52786904D01*
X159624164Y-52786904D02*
X159814640Y-52834523D01*
X159814640Y-52834523D02*
X160195592Y-52834523D01*
X160195592Y-52834523D02*
X160290830Y-52786904D01*
X160290830Y-52786904D02*
X160338450Y-52739285D01*
X160338450Y-52739285D02*
X160386069Y-52644047D01*
X160386069Y-52644047D02*
X160386069Y-52453571D01*
X160386069Y-52453571D02*
X160338450Y-52358333D01*
X160338450Y-52358333D02*
X160290830Y-52310714D01*
X160290830Y-52310714D02*
X160195592Y-52263095D01*
X160195592Y-52263095D02*
X159957497Y-52263095D01*
X159957497Y-52263095D02*
X159862259Y-52310714D01*
X159862259Y-52310714D02*
X159814640Y-52358333D01*
X159814640Y-52358333D02*
X159767021Y-52453571D01*
X159767021Y-52453571D02*
X159767021Y-52644047D01*
X159767021Y-52644047D02*
X159814640Y-52739285D01*
X159814640Y-52739285D02*
X159862259Y-52786904D01*
X159862259Y-52786904D02*
X159957497Y-52834523D01*
D11*
X113295312Y-25452180D02*
X113247693Y-25499800D01*
X113247693Y-25499800D02*
X113104836Y-25547419D01*
X113104836Y-25547419D02*
X113009598Y-25547419D01*
X113009598Y-25547419D02*
X112866741Y-25499800D01*
X112866741Y-25499800D02*
X112771503Y-25404561D01*
X112771503Y-25404561D02*
X112723884Y-25309323D01*
X112723884Y-25309323D02*
X112676265Y-25118847D01*
X112676265Y-25118847D02*
X112676265Y-24975990D01*
X112676265Y-24975990D02*
X112723884Y-24785514D01*
X112723884Y-24785514D02*
X112771503Y-24690276D01*
X112771503Y-24690276D02*
X112866741Y-24595038D01*
X112866741Y-24595038D02*
X113009598Y-24547419D01*
X113009598Y-24547419D02*
X113104836Y-24547419D01*
X113104836Y-24547419D02*
X113247693Y-24595038D01*
X113247693Y-24595038D02*
X113295312Y-24642657D01*
X113723884Y-25547419D02*
X113723884Y-24547419D01*
X113723884Y-24547419D02*
X114295312Y-25547419D01*
X114295312Y-25547419D02*
X114295312Y-24547419D01*
X115295312Y-25547419D02*
X114723884Y-25547419D01*
X115009598Y-25547419D02*
X115009598Y-24547419D01*
X115009598Y-24547419D02*
X114914360Y-24690276D01*
X114914360Y-24690276D02*
X114819122Y-24785514D01*
X114819122Y-24785514D02*
X114723884Y-24833133D01*
X116247693Y-25547419D02*
X115676265Y-25547419D01*
X115961979Y-25547419D02*
X115961979Y-24547419D01*
X115961979Y-24547419D02*
X115866741Y-24690276D01*
X115866741Y-24690276D02*
X115771503Y-24785514D01*
X115771503Y-24785514D02*
X115676265Y-24833133D01*
X174195312Y-25352180D02*
X174147693Y-25399800D01*
X174147693Y-25399800D02*
X174004836Y-25447419D01*
X174004836Y-25447419D02*
X173909598Y-25447419D01*
X173909598Y-25447419D02*
X173766741Y-25399800D01*
X173766741Y-25399800D02*
X173671503Y-25304561D01*
X173671503Y-25304561D02*
X173623884Y-25209323D01*
X173623884Y-25209323D02*
X173576265Y-25018847D01*
X173576265Y-25018847D02*
X173576265Y-24875990D01*
X173576265Y-24875990D02*
X173623884Y-24685514D01*
X173623884Y-24685514D02*
X173671503Y-24590276D01*
X173671503Y-24590276D02*
X173766741Y-24495038D01*
X173766741Y-24495038D02*
X173909598Y-24447419D01*
X173909598Y-24447419D02*
X174004836Y-24447419D01*
X174004836Y-24447419D02*
X174147693Y-24495038D01*
X174147693Y-24495038D02*
X174195312Y-24542657D01*
X174623884Y-25447419D02*
X174623884Y-24447419D01*
X174623884Y-24447419D02*
X175195312Y-25447419D01*
X175195312Y-25447419D02*
X175195312Y-24447419D01*
X176195312Y-25447419D02*
X175623884Y-25447419D01*
X175909598Y-25447419D02*
X175909598Y-24447419D01*
X175909598Y-24447419D02*
X175814360Y-24590276D01*
X175814360Y-24590276D02*
X175719122Y-24685514D01*
X175719122Y-24685514D02*
X175623884Y-24733133D01*
X176576265Y-24542657D02*
X176623884Y-24495038D01*
X176623884Y-24495038D02*
X176719122Y-24447419D01*
X176719122Y-24447419D02*
X176957217Y-24447419D01*
X176957217Y-24447419D02*
X177052455Y-24495038D01*
X177052455Y-24495038D02*
X177100074Y-24542657D01*
X177100074Y-24542657D02*
X177147693Y-24637895D01*
X177147693Y-24637895D02*
X177147693Y-24733133D01*
X177147693Y-24733133D02*
X177100074Y-24875990D01*
X177100074Y-24875990D02*
X176528646Y-25447419D01*
X176528646Y-25447419D02*
X177147693Y-25447419D01*
D10*
X161083333Y-39004819D02*
X160750000Y-38528628D01*
X160511905Y-39004819D02*
X160511905Y-38004819D01*
X160511905Y-38004819D02*
X160892857Y-38004819D01*
X160892857Y-38004819D02*
X160988095Y-38052438D01*
X160988095Y-38052438D02*
X161035714Y-38100057D01*
X161035714Y-38100057D02*
X161083333Y-38195295D01*
X161083333Y-38195295D02*
X161083333Y-38338152D01*
X161083333Y-38338152D02*
X161035714Y-38433390D01*
X161035714Y-38433390D02*
X160988095Y-38481009D01*
X160988095Y-38481009D02*
X160892857Y-38528628D01*
X160892857Y-38528628D02*
X160511905Y-38528628D01*
X161988095Y-38004819D02*
X161511905Y-38004819D01*
X161511905Y-38004819D02*
X161464286Y-38481009D01*
X161464286Y-38481009D02*
X161511905Y-38433390D01*
X161511905Y-38433390D02*
X161607143Y-38385771D01*
X161607143Y-38385771D02*
X161845238Y-38385771D01*
X161845238Y-38385771D02*
X161940476Y-38433390D01*
X161940476Y-38433390D02*
X161988095Y-38481009D01*
X161988095Y-38481009D02*
X162035714Y-38576247D01*
X162035714Y-38576247D02*
X162035714Y-38814342D01*
X162035714Y-38814342D02*
X161988095Y-38909580D01*
X161988095Y-38909580D02*
X161940476Y-38957200D01*
X161940476Y-38957200D02*
X161845238Y-39004819D01*
X161845238Y-39004819D02*
X161607143Y-39004819D01*
X161607143Y-39004819D02*
X161511905Y-38957200D01*
X161511905Y-38957200D02*
X161464286Y-38909580D01*
X167338095Y-105106819D02*
X167909523Y-105106819D01*
X167623809Y-106106819D02*
X167623809Y-105106819D01*
X168242857Y-106106819D02*
X168242857Y-105106819D01*
X168242857Y-105106819D02*
X168623809Y-105106819D01*
X168623809Y-105106819D02*
X168719047Y-105154438D01*
X168719047Y-105154438D02*
X168766666Y-105202057D01*
X168766666Y-105202057D02*
X168814285Y-105297295D01*
X168814285Y-105297295D02*
X168814285Y-105440152D01*
X168814285Y-105440152D02*
X168766666Y-105535390D01*
X168766666Y-105535390D02*
X168719047Y-105583009D01*
X168719047Y-105583009D02*
X168623809Y-105630628D01*
X168623809Y-105630628D02*
X168242857Y-105630628D01*
X169719047Y-105106819D02*
X169242857Y-105106819D01*
X169242857Y-105106819D02*
X169195238Y-105583009D01*
X169195238Y-105583009D02*
X169242857Y-105535390D01*
X169242857Y-105535390D02*
X169338095Y-105487771D01*
X169338095Y-105487771D02*
X169576190Y-105487771D01*
X169576190Y-105487771D02*
X169671428Y-105535390D01*
X169671428Y-105535390D02*
X169719047Y-105583009D01*
X169719047Y-105583009D02*
X169766666Y-105678247D01*
X169766666Y-105678247D02*
X169766666Y-105916342D01*
X169766666Y-105916342D02*
X169719047Y-106011580D01*
X169719047Y-106011580D02*
X169671428Y-106059200D01*
X169671428Y-106059200D02*
X169576190Y-106106819D01*
X169576190Y-106106819D02*
X169338095Y-106106819D01*
X169338095Y-106106819D02*
X169242857Y-106059200D01*
X169242857Y-106059200D02*
X169195238Y-106011580D01*
X161641024Y-87704819D02*
X161307691Y-87228628D01*
X161069596Y-87704819D02*
X161069596Y-86704819D01*
X161069596Y-86704819D02*
X161450548Y-86704819D01*
X161450548Y-86704819D02*
X161545786Y-86752438D01*
X161545786Y-86752438D02*
X161593405Y-86800057D01*
X161593405Y-86800057D02*
X161641024Y-86895295D01*
X161641024Y-86895295D02*
X161641024Y-87038152D01*
X161641024Y-87038152D02*
X161593405Y-87133390D01*
X161593405Y-87133390D02*
X161545786Y-87181009D01*
X161545786Y-87181009D02*
X161450548Y-87228628D01*
X161450548Y-87228628D02*
X161069596Y-87228628D01*
X162593405Y-87704819D02*
X162021977Y-87704819D01*
X162307691Y-87704819D02*
X162307691Y-86704819D01*
X162307691Y-86704819D02*
X162212453Y-86847676D01*
X162212453Y-86847676D02*
X162117215Y-86942914D01*
X162117215Y-86942914D02*
X162021977Y-86990533D01*
X163450548Y-87038152D02*
X163450548Y-87704819D01*
X163212453Y-86657200D02*
X162974358Y-87371485D01*
X162974358Y-87371485D02*
X163593405Y-87371485D01*
X128788095Y-41654819D02*
X129359523Y-41654819D01*
X129073809Y-42654819D02*
X129073809Y-41654819D01*
X129692857Y-42654819D02*
X129692857Y-41654819D01*
X129692857Y-41654819D02*
X130073809Y-41654819D01*
X130073809Y-41654819D02*
X130169047Y-41702438D01*
X130169047Y-41702438D02*
X130216666Y-41750057D01*
X130216666Y-41750057D02*
X130264285Y-41845295D01*
X130264285Y-41845295D02*
X130264285Y-41988152D01*
X130264285Y-41988152D02*
X130216666Y-42083390D01*
X130216666Y-42083390D02*
X130169047Y-42131009D01*
X130169047Y-42131009D02*
X130073809Y-42178628D01*
X130073809Y-42178628D02*
X129692857Y-42178628D01*
X130740476Y-42654819D02*
X130930952Y-42654819D01*
X130930952Y-42654819D02*
X131026190Y-42607200D01*
X131026190Y-42607200D02*
X131073809Y-42559580D01*
X131073809Y-42559580D02*
X131169047Y-42416723D01*
X131169047Y-42416723D02*
X131216666Y-42226247D01*
X131216666Y-42226247D02*
X131216666Y-41845295D01*
X131216666Y-41845295D02*
X131169047Y-41750057D01*
X131169047Y-41750057D02*
X131121428Y-41702438D01*
X131121428Y-41702438D02*
X131026190Y-41654819D01*
X131026190Y-41654819D02*
X130835714Y-41654819D01*
X130835714Y-41654819D02*
X130740476Y-41702438D01*
X130740476Y-41702438D02*
X130692857Y-41750057D01*
X130692857Y-41750057D02*
X130645238Y-41845295D01*
X130645238Y-41845295D02*
X130645238Y-42083390D01*
X130645238Y-42083390D02*
X130692857Y-42178628D01*
X130692857Y-42178628D02*
X130740476Y-42226247D01*
X130740476Y-42226247D02*
X130835714Y-42273866D01*
X130835714Y-42273866D02*
X131026190Y-42273866D01*
X131026190Y-42273866D02*
X131121428Y-42226247D01*
X131121428Y-42226247D02*
X131169047Y-42178628D01*
X131169047Y-42178628D02*
X131216666Y-42083390D01*
X143734580Y-105342857D02*
X143782200Y-105390476D01*
X143782200Y-105390476D02*
X143829819Y-105533333D01*
X143829819Y-105533333D02*
X143829819Y-105628571D01*
X143829819Y-105628571D02*
X143782200Y-105771428D01*
X143782200Y-105771428D02*
X143686961Y-105866666D01*
X143686961Y-105866666D02*
X143591723Y-105914285D01*
X143591723Y-105914285D02*
X143401247Y-105961904D01*
X143401247Y-105961904D02*
X143258390Y-105961904D01*
X143258390Y-105961904D02*
X143067914Y-105914285D01*
X143067914Y-105914285D02*
X142972676Y-105866666D01*
X142972676Y-105866666D02*
X142877438Y-105771428D01*
X142877438Y-105771428D02*
X142829819Y-105628571D01*
X142829819Y-105628571D02*
X142829819Y-105533333D01*
X142829819Y-105533333D02*
X142877438Y-105390476D01*
X142877438Y-105390476D02*
X142925057Y-105342857D01*
X142829819Y-105009523D02*
X142829819Y-104390476D01*
X142829819Y-104390476D02*
X143210771Y-104723809D01*
X143210771Y-104723809D02*
X143210771Y-104580952D01*
X143210771Y-104580952D02*
X143258390Y-104485714D01*
X143258390Y-104485714D02*
X143306009Y-104438095D01*
X143306009Y-104438095D02*
X143401247Y-104390476D01*
X143401247Y-104390476D02*
X143639342Y-104390476D01*
X143639342Y-104390476D02*
X143734580Y-104438095D01*
X143734580Y-104438095D02*
X143782200Y-104485714D01*
X143782200Y-104485714D02*
X143829819Y-104580952D01*
X143829819Y-104580952D02*
X143829819Y-104866666D01*
X143829819Y-104866666D02*
X143782200Y-104961904D01*
X143782200Y-104961904D02*
X143734580Y-105009523D01*
X143829819Y-103914285D02*
X143829819Y-103723809D01*
X143829819Y-103723809D02*
X143782200Y-103628571D01*
X143782200Y-103628571D02*
X143734580Y-103580952D01*
X143734580Y-103580952D02*
X143591723Y-103485714D01*
X143591723Y-103485714D02*
X143401247Y-103438095D01*
X143401247Y-103438095D02*
X143020295Y-103438095D01*
X143020295Y-103438095D02*
X142925057Y-103485714D01*
X142925057Y-103485714D02*
X142877438Y-103533333D01*
X142877438Y-103533333D02*
X142829819Y-103628571D01*
X142829819Y-103628571D02*
X142829819Y-103819047D01*
X142829819Y-103819047D02*
X142877438Y-103914285D01*
X142877438Y-103914285D02*
X142925057Y-103961904D01*
X142925057Y-103961904D02*
X143020295Y-104009523D01*
X143020295Y-104009523D02*
X143258390Y-104009523D01*
X143258390Y-104009523D02*
X143353628Y-103961904D01*
X143353628Y-103961904D02*
X143401247Y-103914285D01*
X143401247Y-103914285D02*
X143448866Y-103819047D01*
X143448866Y-103819047D02*
X143448866Y-103628571D01*
X143448866Y-103628571D02*
X143401247Y-103533333D01*
X143401247Y-103533333D02*
X143353628Y-103485714D01*
X143353628Y-103485714D02*
X143258390Y-103438095D01*
X136309580Y-57984166D02*
X136357200Y-58031785D01*
X136357200Y-58031785D02*
X136404819Y-58174642D01*
X136404819Y-58174642D02*
X136404819Y-58269880D01*
X136404819Y-58269880D02*
X136357200Y-58412737D01*
X136357200Y-58412737D02*
X136261961Y-58507975D01*
X136261961Y-58507975D02*
X136166723Y-58555594D01*
X136166723Y-58555594D02*
X135976247Y-58603213D01*
X135976247Y-58603213D02*
X135833390Y-58603213D01*
X135833390Y-58603213D02*
X135642914Y-58555594D01*
X135642914Y-58555594D02*
X135547676Y-58507975D01*
X135547676Y-58507975D02*
X135452438Y-58412737D01*
X135452438Y-58412737D02*
X135404819Y-58269880D01*
X135404819Y-58269880D02*
X135404819Y-58174642D01*
X135404819Y-58174642D02*
X135452438Y-58031785D01*
X135452438Y-58031785D02*
X135500057Y-57984166D01*
X135404819Y-57127023D02*
X135404819Y-57317499D01*
X135404819Y-57317499D02*
X135452438Y-57412737D01*
X135452438Y-57412737D02*
X135500057Y-57460356D01*
X135500057Y-57460356D02*
X135642914Y-57555594D01*
X135642914Y-57555594D02*
X135833390Y-57603213D01*
X135833390Y-57603213D02*
X136214342Y-57603213D01*
X136214342Y-57603213D02*
X136309580Y-57555594D01*
X136309580Y-57555594D02*
X136357200Y-57507975D01*
X136357200Y-57507975D02*
X136404819Y-57412737D01*
X136404819Y-57412737D02*
X136404819Y-57222261D01*
X136404819Y-57222261D02*
X136357200Y-57127023D01*
X136357200Y-57127023D02*
X136309580Y-57079404D01*
X136309580Y-57079404D02*
X136214342Y-57031785D01*
X136214342Y-57031785D02*
X135976247Y-57031785D01*
X135976247Y-57031785D02*
X135881009Y-57079404D01*
X135881009Y-57079404D02*
X135833390Y-57127023D01*
X135833390Y-57127023D02*
X135785771Y-57222261D01*
X135785771Y-57222261D02*
X135785771Y-57412737D01*
X135785771Y-57412737D02*
X135833390Y-57507975D01*
X135833390Y-57507975D02*
X135881009Y-57555594D01*
X135881009Y-57555594D02*
X135976247Y-57603213D01*
X156959580Y-94242857D02*
X157007200Y-94290476D01*
X157007200Y-94290476D02*
X157054819Y-94433333D01*
X157054819Y-94433333D02*
X157054819Y-94528571D01*
X157054819Y-94528571D02*
X157007200Y-94671428D01*
X157007200Y-94671428D02*
X156911961Y-94766666D01*
X156911961Y-94766666D02*
X156816723Y-94814285D01*
X156816723Y-94814285D02*
X156626247Y-94861904D01*
X156626247Y-94861904D02*
X156483390Y-94861904D01*
X156483390Y-94861904D02*
X156292914Y-94814285D01*
X156292914Y-94814285D02*
X156197676Y-94766666D01*
X156197676Y-94766666D02*
X156102438Y-94671428D01*
X156102438Y-94671428D02*
X156054819Y-94528571D01*
X156054819Y-94528571D02*
X156054819Y-94433333D01*
X156054819Y-94433333D02*
X156102438Y-94290476D01*
X156102438Y-94290476D02*
X156150057Y-94242857D01*
X156054819Y-93909523D02*
X156054819Y-93290476D01*
X156054819Y-93290476D02*
X156435771Y-93623809D01*
X156435771Y-93623809D02*
X156435771Y-93480952D01*
X156435771Y-93480952D02*
X156483390Y-93385714D01*
X156483390Y-93385714D02*
X156531009Y-93338095D01*
X156531009Y-93338095D02*
X156626247Y-93290476D01*
X156626247Y-93290476D02*
X156864342Y-93290476D01*
X156864342Y-93290476D02*
X156959580Y-93338095D01*
X156959580Y-93338095D02*
X157007200Y-93385714D01*
X157007200Y-93385714D02*
X157054819Y-93480952D01*
X157054819Y-93480952D02*
X157054819Y-93766666D01*
X157054819Y-93766666D02*
X157007200Y-93861904D01*
X157007200Y-93861904D02*
X156959580Y-93909523D01*
X156054819Y-92671428D02*
X156054819Y-92576190D01*
X156054819Y-92576190D02*
X156102438Y-92480952D01*
X156102438Y-92480952D02*
X156150057Y-92433333D01*
X156150057Y-92433333D02*
X156245295Y-92385714D01*
X156245295Y-92385714D02*
X156435771Y-92338095D01*
X156435771Y-92338095D02*
X156673866Y-92338095D01*
X156673866Y-92338095D02*
X156864342Y-92385714D01*
X156864342Y-92385714D02*
X156959580Y-92433333D01*
X156959580Y-92433333D02*
X157007200Y-92480952D01*
X157007200Y-92480952D02*
X157054819Y-92576190D01*
X157054819Y-92576190D02*
X157054819Y-92671428D01*
X157054819Y-92671428D02*
X157007200Y-92766666D01*
X157007200Y-92766666D02*
X156959580Y-92814285D01*
X156959580Y-92814285D02*
X156864342Y-92861904D01*
X156864342Y-92861904D02*
X156673866Y-92909523D01*
X156673866Y-92909523D02*
X156435771Y-92909523D01*
X156435771Y-92909523D02*
X156245295Y-92861904D01*
X156245295Y-92861904D02*
X156150057Y-92814285D01*
X156150057Y-92814285D02*
X156102438Y-92766666D01*
X156102438Y-92766666D02*
X156054819Y-92671428D01*
X165757142Y-91109580D02*
X165709523Y-91157200D01*
X165709523Y-91157200D02*
X165566666Y-91204819D01*
X165566666Y-91204819D02*
X165471428Y-91204819D01*
X165471428Y-91204819D02*
X165328571Y-91157200D01*
X165328571Y-91157200D02*
X165233333Y-91061961D01*
X165233333Y-91061961D02*
X165185714Y-90966723D01*
X165185714Y-90966723D02*
X165138095Y-90776247D01*
X165138095Y-90776247D02*
X165138095Y-90633390D01*
X165138095Y-90633390D02*
X165185714Y-90442914D01*
X165185714Y-90442914D02*
X165233333Y-90347676D01*
X165233333Y-90347676D02*
X165328571Y-90252438D01*
X165328571Y-90252438D02*
X165471428Y-90204819D01*
X165471428Y-90204819D02*
X165566666Y-90204819D01*
X165566666Y-90204819D02*
X165709523Y-90252438D01*
X165709523Y-90252438D02*
X165757142Y-90300057D01*
X166138095Y-90300057D02*
X166185714Y-90252438D01*
X166185714Y-90252438D02*
X166280952Y-90204819D01*
X166280952Y-90204819D02*
X166519047Y-90204819D01*
X166519047Y-90204819D02*
X166614285Y-90252438D01*
X166614285Y-90252438D02*
X166661904Y-90300057D01*
X166661904Y-90300057D02*
X166709523Y-90395295D01*
X166709523Y-90395295D02*
X166709523Y-90490533D01*
X166709523Y-90490533D02*
X166661904Y-90633390D01*
X166661904Y-90633390D02*
X166090476Y-91204819D01*
X166090476Y-91204819D02*
X166709523Y-91204819D01*
X167280952Y-90633390D02*
X167185714Y-90585771D01*
X167185714Y-90585771D02*
X167138095Y-90538152D01*
X167138095Y-90538152D02*
X167090476Y-90442914D01*
X167090476Y-90442914D02*
X167090476Y-90395295D01*
X167090476Y-90395295D02*
X167138095Y-90300057D01*
X167138095Y-90300057D02*
X167185714Y-90252438D01*
X167185714Y-90252438D02*
X167280952Y-90204819D01*
X167280952Y-90204819D02*
X167471428Y-90204819D01*
X167471428Y-90204819D02*
X167566666Y-90252438D01*
X167566666Y-90252438D02*
X167614285Y-90300057D01*
X167614285Y-90300057D02*
X167661904Y-90395295D01*
X167661904Y-90395295D02*
X167661904Y-90442914D01*
X167661904Y-90442914D02*
X167614285Y-90538152D01*
X167614285Y-90538152D02*
X167566666Y-90585771D01*
X167566666Y-90585771D02*
X167471428Y-90633390D01*
X167471428Y-90633390D02*
X167280952Y-90633390D01*
X167280952Y-90633390D02*
X167185714Y-90681009D01*
X167185714Y-90681009D02*
X167138095Y-90728628D01*
X167138095Y-90728628D02*
X167090476Y-90823866D01*
X167090476Y-90823866D02*
X167090476Y-91014342D01*
X167090476Y-91014342D02*
X167138095Y-91109580D01*
X167138095Y-91109580D02*
X167185714Y-91157200D01*
X167185714Y-91157200D02*
X167280952Y-91204819D01*
X167280952Y-91204819D02*
X167471428Y-91204819D01*
X167471428Y-91204819D02*
X167566666Y-91157200D01*
X167566666Y-91157200D02*
X167614285Y-91109580D01*
X167614285Y-91109580D02*
X167661904Y-91014342D01*
X167661904Y-91014342D02*
X167661904Y-90823866D01*
X167661904Y-90823866D02*
X167614285Y-90728628D01*
X167614285Y-90728628D02*
X167566666Y-90681009D01*
X167566666Y-90681009D02*
X167471428Y-90633390D01*
X162884369Y-48616667D02*
X162408178Y-48950000D01*
X162884369Y-49188095D02*
X161884369Y-49188095D01*
X161884369Y-49188095D02*
X161884369Y-48807143D01*
X161884369Y-48807143D02*
X161931988Y-48711905D01*
X161931988Y-48711905D02*
X161979607Y-48664286D01*
X161979607Y-48664286D02*
X162074845Y-48616667D01*
X162074845Y-48616667D02*
X162217702Y-48616667D01*
X162217702Y-48616667D02*
X162312940Y-48664286D01*
X162312940Y-48664286D02*
X162360559Y-48711905D01*
X162360559Y-48711905D02*
X162408178Y-48807143D01*
X162408178Y-48807143D02*
X162408178Y-49188095D01*
X162312940Y-48045238D02*
X162265321Y-48140476D01*
X162265321Y-48140476D02*
X162217702Y-48188095D01*
X162217702Y-48188095D02*
X162122464Y-48235714D01*
X162122464Y-48235714D02*
X162074845Y-48235714D01*
X162074845Y-48235714D02*
X161979607Y-48188095D01*
X161979607Y-48188095D02*
X161931988Y-48140476D01*
X161931988Y-48140476D02*
X161884369Y-48045238D01*
X161884369Y-48045238D02*
X161884369Y-47854762D01*
X161884369Y-47854762D02*
X161931988Y-47759524D01*
X161931988Y-47759524D02*
X161979607Y-47711905D01*
X161979607Y-47711905D02*
X162074845Y-47664286D01*
X162074845Y-47664286D02*
X162122464Y-47664286D01*
X162122464Y-47664286D02*
X162217702Y-47711905D01*
X162217702Y-47711905D02*
X162265321Y-47759524D01*
X162265321Y-47759524D02*
X162312940Y-47854762D01*
X162312940Y-47854762D02*
X162312940Y-48045238D01*
X162312940Y-48045238D02*
X162360559Y-48140476D01*
X162360559Y-48140476D02*
X162408178Y-48188095D01*
X162408178Y-48188095D02*
X162503416Y-48235714D01*
X162503416Y-48235714D02*
X162693892Y-48235714D01*
X162693892Y-48235714D02*
X162789130Y-48188095D01*
X162789130Y-48188095D02*
X162836750Y-48140476D01*
X162836750Y-48140476D02*
X162884369Y-48045238D01*
X162884369Y-48045238D02*
X162884369Y-47854762D01*
X162884369Y-47854762D02*
X162836750Y-47759524D01*
X162836750Y-47759524D02*
X162789130Y-47711905D01*
X162789130Y-47711905D02*
X162693892Y-47664286D01*
X162693892Y-47664286D02*
X162503416Y-47664286D01*
X162503416Y-47664286D02*
X162408178Y-47711905D01*
X162408178Y-47711905D02*
X162360559Y-47759524D01*
X162360559Y-47759524D02*
X162312940Y-47854762D01*
X166016666Y-32954819D02*
X166016666Y-33669104D01*
X166016666Y-33669104D02*
X165969047Y-33811961D01*
X165969047Y-33811961D02*
X165873809Y-33907200D01*
X165873809Y-33907200D02*
X165730952Y-33954819D01*
X165730952Y-33954819D02*
X165635714Y-33954819D01*
X167016666Y-33954819D02*
X166445238Y-33954819D01*
X166730952Y-33954819D02*
X166730952Y-32954819D01*
X166730952Y-32954819D02*
X166635714Y-33097676D01*
X166635714Y-33097676D02*
X166540476Y-33192914D01*
X166540476Y-33192914D02*
X166445238Y-33240533D01*
X147144642Y-86404819D02*
X146811309Y-85928628D01*
X146573214Y-86404819D02*
X146573214Y-85404819D01*
X146573214Y-85404819D02*
X146954166Y-85404819D01*
X146954166Y-85404819D02*
X147049404Y-85452438D01*
X147049404Y-85452438D02*
X147097023Y-85500057D01*
X147097023Y-85500057D02*
X147144642Y-85595295D01*
X147144642Y-85595295D02*
X147144642Y-85738152D01*
X147144642Y-85738152D02*
X147097023Y-85833390D01*
X147097023Y-85833390D02*
X147049404Y-85881009D01*
X147049404Y-85881009D02*
X146954166Y-85928628D01*
X146954166Y-85928628D02*
X146573214Y-85928628D01*
X148097023Y-86404819D02*
X147525595Y-86404819D01*
X147811309Y-86404819D02*
X147811309Y-85404819D01*
X147811309Y-85404819D02*
X147716071Y-85547676D01*
X147716071Y-85547676D02*
X147620833Y-85642914D01*
X147620833Y-85642914D02*
X147525595Y-85690533D01*
X148477976Y-85500057D02*
X148525595Y-85452438D01*
X148525595Y-85452438D02*
X148620833Y-85404819D01*
X148620833Y-85404819D02*
X148858928Y-85404819D01*
X148858928Y-85404819D02*
X148954166Y-85452438D01*
X148954166Y-85452438D02*
X149001785Y-85500057D01*
X149001785Y-85500057D02*
X149049404Y-85595295D01*
X149049404Y-85595295D02*
X149049404Y-85690533D01*
X149049404Y-85690533D02*
X149001785Y-85833390D01*
X149001785Y-85833390D02*
X148430357Y-86404819D01*
X148430357Y-86404819D02*
X149049404Y-86404819D01*
X122538417Y-64571666D02*
X122062226Y-64904999D01*
X122538417Y-65143094D02*
X121538417Y-65143094D01*
X121538417Y-65143094D02*
X121538417Y-64762142D01*
X121538417Y-64762142D02*
X121586036Y-64666904D01*
X121586036Y-64666904D02*
X121633655Y-64619285D01*
X121633655Y-64619285D02*
X121728893Y-64571666D01*
X121728893Y-64571666D02*
X121871750Y-64571666D01*
X121871750Y-64571666D02*
X121966988Y-64619285D01*
X121966988Y-64619285D02*
X122014607Y-64666904D01*
X122014607Y-64666904D02*
X122062226Y-64762142D01*
X122062226Y-64762142D02*
X122062226Y-65143094D01*
X121633655Y-64190713D02*
X121586036Y-64143094D01*
X121586036Y-64143094D02*
X121538417Y-64047856D01*
X121538417Y-64047856D02*
X121538417Y-63809761D01*
X121538417Y-63809761D02*
X121586036Y-63714523D01*
X121586036Y-63714523D02*
X121633655Y-63666904D01*
X121633655Y-63666904D02*
X121728893Y-63619285D01*
X121728893Y-63619285D02*
X121824131Y-63619285D01*
X121824131Y-63619285D02*
X121966988Y-63666904D01*
X121966988Y-63666904D02*
X122538417Y-64238332D01*
X122538417Y-64238332D02*
X122538417Y-63619285D01*
X137632142Y-114754819D02*
X137298809Y-114278628D01*
X137060714Y-114754819D02*
X137060714Y-113754819D01*
X137060714Y-113754819D02*
X137441666Y-113754819D01*
X137441666Y-113754819D02*
X137536904Y-113802438D01*
X137536904Y-113802438D02*
X137584523Y-113850057D01*
X137584523Y-113850057D02*
X137632142Y-113945295D01*
X137632142Y-113945295D02*
X137632142Y-114088152D01*
X137632142Y-114088152D02*
X137584523Y-114183390D01*
X137584523Y-114183390D02*
X137536904Y-114231009D01*
X137536904Y-114231009D02*
X137441666Y-114278628D01*
X137441666Y-114278628D02*
X137060714Y-114278628D01*
X138584523Y-114754819D02*
X138013095Y-114754819D01*
X138298809Y-114754819D02*
X138298809Y-113754819D01*
X138298809Y-113754819D02*
X138203571Y-113897676D01*
X138203571Y-113897676D02*
X138108333Y-113992914D01*
X138108333Y-113992914D02*
X138013095Y-114040533D01*
X139155952Y-114183390D02*
X139060714Y-114135771D01*
X139060714Y-114135771D02*
X139013095Y-114088152D01*
X139013095Y-114088152D02*
X138965476Y-113992914D01*
X138965476Y-113992914D02*
X138965476Y-113945295D01*
X138965476Y-113945295D02*
X139013095Y-113850057D01*
X139013095Y-113850057D02*
X139060714Y-113802438D01*
X139060714Y-113802438D02*
X139155952Y-113754819D01*
X139155952Y-113754819D02*
X139346428Y-113754819D01*
X139346428Y-113754819D02*
X139441666Y-113802438D01*
X139441666Y-113802438D02*
X139489285Y-113850057D01*
X139489285Y-113850057D02*
X139536904Y-113945295D01*
X139536904Y-113945295D02*
X139536904Y-113992914D01*
X139536904Y-113992914D02*
X139489285Y-114088152D01*
X139489285Y-114088152D02*
X139441666Y-114135771D01*
X139441666Y-114135771D02*
X139346428Y-114183390D01*
X139346428Y-114183390D02*
X139155952Y-114183390D01*
X139155952Y-114183390D02*
X139060714Y-114231009D01*
X139060714Y-114231009D02*
X139013095Y-114278628D01*
X139013095Y-114278628D02*
X138965476Y-114373866D01*
X138965476Y-114373866D02*
X138965476Y-114564342D01*
X138965476Y-114564342D02*
X139013095Y-114659580D01*
X139013095Y-114659580D02*
X139060714Y-114707200D01*
X139060714Y-114707200D02*
X139155952Y-114754819D01*
X139155952Y-114754819D02*
X139346428Y-114754819D01*
X139346428Y-114754819D02*
X139441666Y-114707200D01*
X139441666Y-114707200D02*
X139489285Y-114659580D01*
X139489285Y-114659580D02*
X139536904Y-114564342D01*
X139536904Y-114564342D02*
X139536904Y-114373866D01*
X139536904Y-114373866D02*
X139489285Y-114278628D01*
X139489285Y-114278628D02*
X139441666Y-114231009D01*
X139441666Y-114231009D02*
X139346428Y-114183390D01*
X158438095Y-95454819D02*
X158438095Y-96264342D01*
X158438095Y-96264342D02*
X158485714Y-96359580D01*
X158485714Y-96359580D02*
X158533333Y-96407200D01*
X158533333Y-96407200D02*
X158628571Y-96454819D01*
X158628571Y-96454819D02*
X158819047Y-96454819D01*
X158819047Y-96454819D02*
X158914285Y-96407200D01*
X158914285Y-96407200D02*
X158961904Y-96359580D01*
X158961904Y-96359580D02*
X159009523Y-96264342D01*
X159009523Y-96264342D02*
X159009523Y-95454819D01*
X159533333Y-96454819D02*
X159723809Y-96454819D01*
X159723809Y-96454819D02*
X159819047Y-96407200D01*
X159819047Y-96407200D02*
X159866666Y-96359580D01*
X159866666Y-96359580D02*
X159961904Y-96216723D01*
X159961904Y-96216723D02*
X160009523Y-96026247D01*
X160009523Y-96026247D02*
X160009523Y-95645295D01*
X160009523Y-95645295D02*
X159961904Y-95550057D01*
X159961904Y-95550057D02*
X159914285Y-95502438D01*
X159914285Y-95502438D02*
X159819047Y-95454819D01*
X159819047Y-95454819D02*
X159628571Y-95454819D01*
X159628571Y-95454819D02*
X159533333Y-95502438D01*
X159533333Y-95502438D02*
X159485714Y-95550057D01*
X159485714Y-95550057D02*
X159438095Y-95645295D01*
X159438095Y-95645295D02*
X159438095Y-95883390D01*
X159438095Y-95883390D02*
X159485714Y-95978628D01*
X159485714Y-95978628D02*
X159533333Y-96026247D01*
X159533333Y-96026247D02*
X159628571Y-96073866D01*
X159628571Y-96073866D02*
X159819047Y-96073866D01*
X159819047Y-96073866D02*
X159914285Y-96026247D01*
X159914285Y-96026247D02*
X159961904Y-95978628D01*
X159961904Y-95978628D02*
X160009523Y-95883390D01*
X164818818Y-94967298D02*
X164818818Y-94729203D01*
X165056913Y-94824441D02*
X164818818Y-94729203D01*
X164818818Y-94729203D02*
X164580723Y-94824441D01*
X164961675Y-94538727D02*
X164818818Y-94729203D01*
X164818818Y-94729203D02*
X164675961Y-94538727D01*
X164818819Y-94504819D02*
X164818819Y-94742914D01*
X164580724Y-94647676D02*
X164818819Y-94742914D01*
X164818819Y-94742914D02*
X165056914Y-94647676D01*
X164675962Y-94933390D02*
X164818819Y-94742914D01*
X164818819Y-94742914D02*
X164961676Y-94933390D01*
X125159580Y-53659167D02*
X125207200Y-53706786D01*
X125207200Y-53706786D02*
X125254819Y-53849643D01*
X125254819Y-53849643D02*
X125254819Y-53944881D01*
X125254819Y-53944881D02*
X125207200Y-54087738D01*
X125207200Y-54087738D02*
X125111961Y-54182976D01*
X125111961Y-54182976D02*
X125016723Y-54230595D01*
X125016723Y-54230595D02*
X124826247Y-54278214D01*
X124826247Y-54278214D02*
X124683390Y-54278214D01*
X124683390Y-54278214D02*
X124492914Y-54230595D01*
X124492914Y-54230595D02*
X124397676Y-54182976D01*
X124397676Y-54182976D02*
X124302438Y-54087738D01*
X124302438Y-54087738D02*
X124254819Y-53944881D01*
X124254819Y-53944881D02*
X124254819Y-53849643D01*
X124254819Y-53849643D02*
X124302438Y-53706786D01*
X124302438Y-53706786D02*
X124350057Y-53659167D01*
X124588152Y-52802024D02*
X125254819Y-52802024D01*
X124207200Y-53040119D02*
X124921485Y-53278214D01*
X124921485Y-53278214D02*
X124921485Y-52659167D01*
X112039580Y-32842857D02*
X112087200Y-32890476D01*
X112087200Y-32890476D02*
X112134819Y-33033333D01*
X112134819Y-33033333D02*
X112134819Y-33128571D01*
X112134819Y-33128571D02*
X112087200Y-33271428D01*
X112087200Y-33271428D02*
X111991961Y-33366666D01*
X111991961Y-33366666D02*
X111896723Y-33414285D01*
X111896723Y-33414285D02*
X111706247Y-33461904D01*
X111706247Y-33461904D02*
X111563390Y-33461904D01*
X111563390Y-33461904D02*
X111372914Y-33414285D01*
X111372914Y-33414285D02*
X111277676Y-33366666D01*
X111277676Y-33366666D02*
X111182438Y-33271428D01*
X111182438Y-33271428D02*
X111134819Y-33128571D01*
X111134819Y-33128571D02*
X111134819Y-33033333D01*
X111134819Y-33033333D02*
X111182438Y-32890476D01*
X111182438Y-32890476D02*
X111230057Y-32842857D01*
X111468152Y-31985714D02*
X112134819Y-31985714D01*
X111087200Y-32223809D02*
X111801485Y-32461904D01*
X111801485Y-32461904D02*
X111801485Y-31842857D01*
X111563390Y-31319047D02*
X111515771Y-31414285D01*
X111515771Y-31414285D02*
X111468152Y-31461904D01*
X111468152Y-31461904D02*
X111372914Y-31509523D01*
X111372914Y-31509523D02*
X111325295Y-31509523D01*
X111325295Y-31509523D02*
X111230057Y-31461904D01*
X111230057Y-31461904D02*
X111182438Y-31414285D01*
X111182438Y-31414285D02*
X111134819Y-31319047D01*
X111134819Y-31319047D02*
X111134819Y-31128571D01*
X111134819Y-31128571D02*
X111182438Y-31033333D01*
X111182438Y-31033333D02*
X111230057Y-30985714D01*
X111230057Y-30985714D02*
X111325295Y-30938095D01*
X111325295Y-30938095D02*
X111372914Y-30938095D01*
X111372914Y-30938095D02*
X111468152Y-30985714D01*
X111468152Y-30985714D02*
X111515771Y-31033333D01*
X111515771Y-31033333D02*
X111563390Y-31128571D01*
X111563390Y-31128571D02*
X111563390Y-31319047D01*
X111563390Y-31319047D02*
X111611009Y-31414285D01*
X111611009Y-31414285D02*
X111658628Y-31461904D01*
X111658628Y-31461904D02*
X111753866Y-31509523D01*
X111753866Y-31509523D02*
X111944342Y-31509523D01*
X111944342Y-31509523D02*
X112039580Y-31461904D01*
X112039580Y-31461904D02*
X112087200Y-31414285D01*
X112087200Y-31414285D02*
X112134819Y-31319047D01*
X112134819Y-31319047D02*
X112134819Y-31128571D01*
X112134819Y-31128571D02*
X112087200Y-31033333D01*
X112087200Y-31033333D02*
X112039580Y-30985714D01*
X112039580Y-30985714D02*
X111944342Y-30938095D01*
X111944342Y-30938095D02*
X111753866Y-30938095D01*
X111753866Y-30938095D02*
X111658628Y-30985714D01*
X111658628Y-30985714D02*
X111611009Y-31033333D01*
X111611009Y-31033333D02*
X111563390Y-31128571D01*
X140086905Y-100054819D02*
X140086905Y-99054819D01*
X140086905Y-99054819D02*
X140325000Y-99054819D01*
X140325000Y-99054819D02*
X140467857Y-99102438D01*
X140467857Y-99102438D02*
X140563095Y-99197676D01*
X140563095Y-99197676D02*
X140610714Y-99292914D01*
X140610714Y-99292914D02*
X140658333Y-99483390D01*
X140658333Y-99483390D02*
X140658333Y-99626247D01*
X140658333Y-99626247D02*
X140610714Y-99816723D01*
X140610714Y-99816723D02*
X140563095Y-99911961D01*
X140563095Y-99911961D02*
X140467857Y-100007200D01*
X140467857Y-100007200D02*
X140325000Y-100054819D01*
X140325000Y-100054819D02*
X140086905Y-100054819D01*
X141610714Y-100054819D02*
X141039286Y-100054819D01*
X141325000Y-100054819D02*
X141325000Y-99054819D01*
X141325000Y-99054819D02*
X141229762Y-99197676D01*
X141229762Y-99197676D02*
X141134524Y-99292914D01*
X141134524Y-99292914D02*
X141039286Y-99340533D01*
X130809580Y-53666666D02*
X130857200Y-53714285D01*
X130857200Y-53714285D02*
X130904819Y-53857142D01*
X130904819Y-53857142D02*
X130904819Y-53952380D01*
X130904819Y-53952380D02*
X130857200Y-54095237D01*
X130857200Y-54095237D02*
X130761961Y-54190475D01*
X130761961Y-54190475D02*
X130666723Y-54238094D01*
X130666723Y-54238094D02*
X130476247Y-54285713D01*
X130476247Y-54285713D02*
X130333390Y-54285713D01*
X130333390Y-54285713D02*
X130142914Y-54238094D01*
X130142914Y-54238094D02*
X130047676Y-54190475D01*
X130047676Y-54190475D02*
X129952438Y-54095237D01*
X129952438Y-54095237D02*
X129904819Y-53952380D01*
X129904819Y-53952380D02*
X129904819Y-53857142D01*
X129904819Y-53857142D02*
X129952438Y-53714285D01*
X129952438Y-53714285D02*
X130000057Y-53666666D01*
X129904819Y-53333332D02*
X129904819Y-52714285D01*
X129904819Y-52714285D02*
X130285771Y-53047618D01*
X130285771Y-53047618D02*
X130285771Y-52904761D01*
X130285771Y-52904761D02*
X130333390Y-52809523D01*
X130333390Y-52809523D02*
X130381009Y-52761904D01*
X130381009Y-52761904D02*
X130476247Y-52714285D01*
X130476247Y-52714285D02*
X130714342Y-52714285D01*
X130714342Y-52714285D02*
X130809580Y-52761904D01*
X130809580Y-52761904D02*
X130857200Y-52809523D01*
X130857200Y-52809523D02*
X130904819Y-52904761D01*
X130904819Y-52904761D02*
X130904819Y-53190475D01*
X130904819Y-53190475D02*
X130857200Y-53285713D01*
X130857200Y-53285713D02*
X130809580Y-53333332D01*
X125407142Y-41259580D02*
X125359523Y-41307200D01*
X125359523Y-41307200D02*
X125216666Y-41354819D01*
X125216666Y-41354819D02*
X125121428Y-41354819D01*
X125121428Y-41354819D02*
X124978571Y-41307200D01*
X124978571Y-41307200D02*
X124883333Y-41211961D01*
X124883333Y-41211961D02*
X124835714Y-41116723D01*
X124835714Y-41116723D02*
X124788095Y-40926247D01*
X124788095Y-40926247D02*
X124788095Y-40783390D01*
X124788095Y-40783390D02*
X124835714Y-40592914D01*
X124835714Y-40592914D02*
X124883333Y-40497676D01*
X124883333Y-40497676D02*
X124978571Y-40402438D01*
X124978571Y-40402438D02*
X125121428Y-40354819D01*
X125121428Y-40354819D02*
X125216666Y-40354819D01*
X125216666Y-40354819D02*
X125359523Y-40402438D01*
X125359523Y-40402438D02*
X125407142Y-40450057D01*
X125788095Y-40450057D02*
X125835714Y-40402438D01*
X125835714Y-40402438D02*
X125930952Y-40354819D01*
X125930952Y-40354819D02*
X126169047Y-40354819D01*
X126169047Y-40354819D02*
X126264285Y-40402438D01*
X126264285Y-40402438D02*
X126311904Y-40450057D01*
X126311904Y-40450057D02*
X126359523Y-40545295D01*
X126359523Y-40545295D02*
X126359523Y-40640533D01*
X126359523Y-40640533D02*
X126311904Y-40783390D01*
X126311904Y-40783390D02*
X125740476Y-41354819D01*
X125740476Y-41354819D02*
X126359523Y-41354819D01*
X126740476Y-40450057D02*
X126788095Y-40402438D01*
X126788095Y-40402438D02*
X126883333Y-40354819D01*
X126883333Y-40354819D02*
X127121428Y-40354819D01*
X127121428Y-40354819D02*
X127216666Y-40402438D01*
X127216666Y-40402438D02*
X127264285Y-40450057D01*
X127264285Y-40450057D02*
X127311904Y-40545295D01*
X127311904Y-40545295D02*
X127311904Y-40640533D01*
X127311904Y-40640533D02*
X127264285Y-40783390D01*
X127264285Y-40783390D02*
X126692857Y-41354819D01*
X126692857Y-41354819D02*
X127311904Y-41354819D01*
X136395180Y-70521045D02*
X135585657Y-70521045D01*
X135585657Y-70521045D02*
X135490419Y-70568664D01*
X135490419Y-70568664D02*
X135442800Y-70616283D01*
X135442800Y-70616283D02*
X135395180Y-70711521D01*
X135395180Y-70711521D02*
X135395180Y-70901997D01*
X135395180Y-70901997D02*
X135442800Y-70997235D01*
X135442800Y-70997235D02*
X135490419Y-71044854D01*
X135490419Y-71044854D02*
X135585657Y-71092473D01*
X135585657Y-71092473D02*
X136395180Y-71092473D01*
X136299942Y-71521045D02*
X136347561Y-71568664D01*
X136347561Y-71568664D02*
X136395180Y-71663902D01*
X136395180Y-71663902D02*
X136395180Y-71901997D01*
X136395180Y-71901997D02*
X136347561Y-71997235D01*
X136347561Y-71997235D02*
X136299942Y-72044854D01*
X136299942Y-72044854D02*
X136204704Y-72092473D01*
X136204704Y-72092473D02*
X136109466Y-72092473D01*
X136109466Y-72092473D02*
X135966609Y-72044854D01*
X135966609Y-72044854D02*
X135395180Y-71473426D01*
X135395180Y-71473426D02*
X135395180Y-72092473D01*
X135270217Y-69650999D02*
X135508312Y-69650999D01*
X135413074Y-69889094D02*
X135508312Y-69650999D01*
X135508312Y-69650999D02*
X135413074Y-69412904D01*
X135698788Y-69793856D02*
X135508312Y-69650999D01*
X135508312Y-69650999D02*
X135698788Y-69508142D01*
X136360578Y-69651000D02*
X136122483Y-69651000D01*
X136217721Y-69412905D02*
X136122483Y-69651000D01*
X136122483Y-69651000D02*
X136217721Y-69889095D01*
X135932007Y-69508143D02*
X136122483Y-69651000D01*
X136122483Y-69651000D02*
X135932007Y-69793857D01*
X168840830Y-56667857D02*
X168888450Y-56715476D01*
X168888450Y-56715476D02*
X168936069Y-56858333D01*
X168936069Y-56858333D02*
X168936069Y-56953571D01*
X168936069Y-56953571D02*
X168888450Y-57096428D01*
X168888450Y-57096428D02*
X168793211Y-57191666D01*
X168793211Y-57191666D02*
X168697973Y-57239285D01*
X168697973Y-57239285D02*
X168507497Y-57286904D01*
X168507497Y-57286904D02*
X168364640Y-57286904D01*
X168364640Y-57286904D02*
X168174164Y-57239285D01*
X168174164Y-57239285D02*
X168078926Y-57191666D01*
X168078926Y-57191666D02*
X167983688Y-57096428D01*
X167983688Y-57096428D02*
X167936069Y-56953571D01*
X167936069Y-56953571D02*
X167936069Y-56858333D01*
X167936069Y-56858333D02*
X167983688Y-56715476D01*
X167983688Y-56715476D02*
X168031307Y-56667857D01*
X168936069Y-55715476D02*
X168936069Y-56286904D01*
X168936069Y-56001190D02*
X167936069Y-56001190D01*
X167936069Y-56001190D02*
X168078926Y-56096428D01*
X168078926Y-56096428D02*
X168174164Y-56191666D01*
X168174164Y-56191666D02*
X168221783Y-56286904D01*
X168936069Y-55239285D02*
X168936069Y-55048809D01*
X168936069Y-55048809D02*
X168888450Y-54953571D01*
X168888450Y-54953571D02*
X168840830Y-54905952D01*
X168840830Y-54905952D02*
X168697973Y-54810714D01*
X168697973Y-54810714D02*
X168507497Y-54763095D01*
X168507497Y-54763095D02*
X168126545Y-54763095D01*
X168126545Y-54763095D02*
X168031307Y-54810714D01*
X168031307Y-54810714D02*
X167983688Y-54858333D01*
X167983688Y-54858333D02*
X167936069Y-54953571D01*
X167936069Y-54953571D02*
X167936069Y-55144047D01*
X167936069Y-55144047D02*
X167983688Y-55239285D01*
X167983688Y-55239285D02*
X168031307Y-55286904D01*
X168031307Y-55286904D02*
X168126545Y-55334523D01*
X168126545Y-55334523D02*
X168364640Y-55334523D01*
X168364640Y-55334523D02*
X168459878Y-55286904D01*
X168459878Y-55286904D02*
X168507497Y-55239285D01*
X168507497Y-55239285D02*
X168555116Y-55144047D01*
X168555116Y-55144047D02*
X168555116Y-54953571D01*
X168555116Y-54953571D02*
X168507497Y-54858333D01*
X168507497Y-54858333D02*
X168459878Y-54810714D01*
X168459878Y-54810714D02*
X168364640Y-54763095D01*
X118288095Y-70804819D02*
X118859523Y-70804819D01*
X118573809Y-71804819D02*
X118573809Y-70804819D01*
X119192857Y-71804819D02*
X119192857Y-70804819D01*
X119192857Y-70804819D02*
X119573809Y-70804819D01*
X119573809Y-70804819D02*
X119669047Y-70852438D01*
X119669047Y-70852438D02*
X119716666Y-70900057D01*
X119716666Y-70900057D02*
X119764285Y-70995295D01*
X119764285Y-70995295D02*
X119764285Y-71138152D01*
X119764285Y-71138152D02*
X119716666Y-71233390D01*
X119716666Y-71233390D02*
X119669047Y-71281009D01*
X119669047Y-71281009D02*
X119573809Y-71328628D01*
X119573809Y-71328628D02*
X119192857Y-71328628D01*
X120335714Y-71233390D02*
X120240476Y-71185771D01*
X120240476Y-71185771D02*
X120192857Y-71138152D01*
X120192857Y-71138152D02*
X120145238Y-71042914D01*
X120145238Y-71042914D02*
X120145238Y-70995295D01*
X120145238Y-70995295D02*
X120192857Y-70900057D01*
X120192857Y-70900057D02*
X120240476Y-70852438D01*
X120240476Y-70852438D02*
X120335714Y-70804819D01*
X120335714Y-70804819D02*
X120526190Y-70804819D01*
X120526190Y-70804819D02*
X120621428Y-70852438D01*
X120621428Y-70852438D02*
X120669047Y-70900057D01*
X120669047Y-70900057D02*
X120716666Y-70995295D01*
X120716666Y-70995295D02*
X120716666Y-71042914D01*
X120716666Y-71042914D02*
X120669047Y-71138152D01*
X120669047Y-71138152D02*
X120621428Y-71185771D01*
X120621428Y-71185771D02*
X120526190Y-71233390D01*
X120526190Y-71233390D02*
X120335714Y-71233390D01*
X120335714Y-71233390D02*
X120240476Y-71281009D01*
X120240476Y-71281009D02*
X120192857Y-71328628D01*
X120192857Y-71328628D02*
X120145238Y-71423866D01*
X120145238Y-71423866D02*
X120145238Y-71614342D01*
X120145238Y-71614342D02*
X120192857Y-71709580D01*
X120192857Y-71709580D02*
X120240476Y-71757200D01*
X120240476Y-71757200D02*
X120335714Y-71804819D01*
X120335714Y-71804819D02*
X120526190Y-71804819D01*
X120526190Y-71804819D02*
X120621428Y-71757200D01*
X120621428Y-71757200D02*
X120669047Y-71709580D01*
X120669047Y-71709580D02*
X120716666Y-71614342D01*
X120716666Y-71614342D02*
X120716666Y-71423866D01*
X120716666Y-71423866D02*
X120669047Y-71328628D01*
X120669047Y-71328628D02*
X120621428Y-71281009D01*
X120621428Y-71281009D02*
X120526190Y-71233390D01*
X179511905Y-69756819D02*
X180083333Y-69756819D01*
X179797619Y-70756819D02*
X179797619Y-69756819D01*
X180416667Y-70756819D02*
X180416667Y-69756819D01*
X180416667Y-69756819D02*
X180797619Y-69756819D01*
X180797619Y-69756819D02*
X180892857Y-69804438D01*
X180892857Y-69804438D02*
X180940476Y-69852057D01*
X180940476Y-69852057D02*
X180988095Y-69947295D01*
X180988095Y-69947295D02*
X180988095Y-70090152D01*
X180988095Y-70090152D02*
X180940476Y-70185390D01*
X180940476Y-70185390D02*
X180892857Y-70233009D01*
X180892857Y-70233009D02*
X180797619Y-70280628D01*
X180797619Y-70280628D02*
X180416667Y-70280628D01*
X181940476Y-70756819D02*
X181369048Y-70756819D01*
X181654762Y-70756819D02*
X181654762Y-69756819D01*
X181654762Y-69756819D02*
X181559524Y-69899676D01*
X181559524Y-69899676D02*
X181464286Y-69994914D01*
X181464286Y-69994914D02*
X181369048Y-70042533D01*
X182797619Y-70090152D02*
X182797619Y-70756819D01*
X182559524Y-69709200D02*
X182321429Y-70423485D01*
X182321429Y-70423485D02*
X182940476Y-70423485D01*
X136309580Y-63216666D02*
X136357200Y-63264285D01*
X136357200Y-63264285D02*
X136404819Y-63407142D01*
X136404819Y-63407142D02*
X136404819Y-63502380D01*
X136404819Y-63502380D02*
X136357200Y-63645237D01*
X136357200Y-63645237D02*
X136261961Y-63740475D01*
X136261961Y-63740475D02*
X136166723Y-63788094D01*
X136166723Y-63788094D02*
X135976247Y-63835713D01*
X135976247Y-63835713D02*
X135833390Y-63835713D01*
X135833390Y-63835713D02*
X135642914Y-63788094D01*
X135642914Y-63788094D02*
X135547676Y-63740475D01*
X135547676Y-63740475D02*
X135452438Y-63645237D01*
X135452438Y-63645237D02*
X135404819Y-63502380D01*
X135404819Y-63502380D02*
X135404819Y-63407142D01*
X135404819Y-63407142D02*
X135452438Y-63264285D01*
X135452438Y-63264285D02*
X135500057Y-63216666D01*
X135500057Y-62835713D02*
X135452438Y-62788094D01*
X135452438Y-62788094D02*
X135404819Y-62692856D01*
X135404819Y-62692856D02*
X135404819Y-62454761D01*
X135404819Y-62454761D02*
X135452438Y-62359523D01*
X135452438Y-62359523D02*
X135500057Y-62311904D01*
X135500057Y-62311904D02*
X135595295Y-62264285D01*
X135595295Y-62264285D02*
X135690533Y-62264285D01*
X135690533Y-62264285D02*
X135833390Y-62311904D01*
X135833390Y-62311904D02*
X136404819Y-62883332D01*
X136404819Y-62883332D02*
X136404819Y-62264285D01*
X166057142Y-72009580D02*
X166009523Y-72057200D01*
X166009523Y-72057200D02*
X165866666Y-72104819D01*
X165866666Y-72104819D02*
X165771428Y-72104819D01*
X165771428Y-72104819D02*
X165628571Y-72057200D01*
X165628571Y-72057200D02*
X165533333Y-71961961D01*
X165533333Y-71961961D02*
X165485714Y-71866723D01*
X165485714Y-71866723D02*
X165438095Y-71676247D01*
X165438095Y-71676247D02*
X165438095Y-71533390D01*
X165438095Y-71533390D02*
X165485714Y-71342914D01*
X165485714Y-71342914D02*
X165533333Y-71247676D01*
X165533333Y-71247676D02*
X165628571Y-71152438D01*
X165628571Y-71152438D02*
X165771428Y-71104819D01*
X165771428Y-71104819D02*
X165866666Y-71104819D01*
X165866666Y-71104819D02*
X166009523Y-71152438D01*
X166009523Y-71152438D02*
X166057142Y-71200057D01*
X166914285Y-71438152D02*
X166914285Y-72104819D01*
X166676190Y-71057200D02*
X166438095Y-71771485D01*
X166438095Y-71771485D02*
X167057142Y-71771485D01*
X167342857Y-71104819D02*
X168009523Y-71104819D01*
X168009523Y-71104819D02*
X167580952Y-72104819D01*
X161704819Y-37016666D02*
X161228628Y-37349999D01*
X161704819Y-37588094D02*
X160704819Y-37588094D01*
X160704819Y-37588094D02*
X160704819Y-37207142D01*
X160704819Y-37207142D02*
X160752438Y-37111904D01*
X160752438Y-37111904D02*
X160800057Y-37064285D01*
X160800057Y-37064285D02*
X160895295Y-37016666D01*
X160895295Y-37016666D02*
X161038152Y-37016666D01*
X161038152Y-37016666D02*
X161133390Y-37064285D01*
X161133390Y-37064285D02*
X161181009Y-37111904D01*
X161181009Y-37111904D02*
X161228628Y-37207142D01*
X161228628Y-37207142D02*
X161228628Y-37588094D01*
X161704819Y-36064285D02*
X161704819Y-36635713D01*
X161704819Y-36349999D02*
X160704819Y-36349999D01*
X160704819Y-36349999D02*
X160847676Y-36445237D01*
X160847676Y-36445237D02*
X160942914Y-36540475D01*
X160942914Y-36540475D02*
X160990533Y-36635713D01*
X160538095Y-34104819D02*
X160538095Y-34914342D01*
X160538095Y-34914342D02*
X160585714Y-35009580D01*
X160585714Y-35009580D02*
X160633333Y-35057200D01*
X160633333Y-35057200D02*
X160728571Y-35104819D01*
X160728571Y-35104819D02*
X160919047Y-35104819D01*
X160919047Y-35104819D02*
X161014285Y-35057200D01*
X161014285Y-35057200D02*
X161061904Y-35009580D01*
X161061904Y-35009580D02*
X161109523Y-34914342D01*
X161109523Y-34914342D02*
X161109523Y-34104819D01*
X162014285Y-34104819D02*
X161823809Y-34104819D01*
X161823809Y-34104819D02*
X161728571Y-34152438D01*
X161728571Y-34152438D02*
X161680952Y-34200057D01*
X161680952Y-34200057D02*
X161585714Y-34342914D01*
X161585714Y-34342914D02*
X161538095Y-34533390D01*
X161538095Y-34533390D02*
X161538095Y-34914342D01*
X161538095Y-34914342D02*
X161585714Y-35009580D01*
X161585714Y-35009580D02*
X161633333Y-35057200D01*
X161633333Y-35057200D02*
X161728571Y-35104819D01*
X161728571Y-35104819D02*
X161919047Y-35104819D01*
X161919047Y-35104819D02*
X162014285Y-35057200D01*
X162014285Y-35057200D02*
X162061904Y-35009580D01*
X162061904Y-35009580D02*
X162109523Y-34914342D01*
X162109523Y-34914342D02*
X162109523Y-34676247D01*
X162109523Y-34676247D02*
X162061904Y-34581009D01*
X162061904Y-34581009D02*
X162014285Y-34533390D01*
X162014285Y-34533390D02*
X161919047Y-34485771D01*
X161919047Y-34485771D02*
X161728571Y-34485771D01*
X161728571Y-34485771D02*
X161633333Y-34533390D01*
X161633333Y-34533390D02*
X161585714Y-34581009D01*
X161585714Y-34581009D02*
X161538095Y-34676247D01*
X171209580Y-60542858D02*
X171257200Y-60590477D01*
X171257200Y-60590477D02*
X171304819Y-60733334D01*
X171304819Y-60733334D02*
X171304819Y-60828572D01*
X171304819Y-60828572D02*
X171257200Y-60971429D01*
X171257200Y-60971429D02*
X171161961Y-61066667D01*
X171161961Y-61066667D02*
X171066723Y-61114286D01*
X171066723Y-61114286D02*
X170876247Y-61161905D01*
X170876247Y-61161905D02*
X170733390Y-61161905D01*
X170733390Y-61161905D02*
X170542914Y-61114286D01*
X170542914Y-61114286D02*
X170447676Y-61066667D01*
X170447676Y-61066667D02*
X170352438Y-60971429D01*
X170352438Y-60971429D02*
X170304819Y-60828572D01*
X170304819Y-60828572D02*
X170304819Y-60733334D01*
X170304819Y-60733334D02*
X170352438Y-60590477D01*
X170352438Y-60590477D02*
X170400057Y-60542858D01*
X170400057Y-60161905D02*
X170352438Y-60114286D01*
X170352438Y-60114286D02*
X170304819Y-60019048D01*
X170304819Y-60019048D02*
X170304819Y-59780953D01*
X170304819Y-59780953D02*
X170352438Y-59685715D01*
X170352438Y-59685715D02*
X170400057Y-59638096D01*
X170400057Y-59638096D02*
X170495295Y-59590477D01*
X170495295Y-59590477D02*
X170590533Y-59590477D01*
X170590533Y-59590477D02*
X170733390Y-59638096D01*
X170733390Y-59638096D02*
X171304819Y-60209524D01*
X171304819Y-60209524D02*
X171304819Y-59590477D01*
X170304819Y-59257143D02*
X170304819Y-58638096D01*
X170304819Y-58638096D02*
X170685771Y-58971429D01*
X170685771Y-58971429D02*
X170685771Y-58828572D01*
X170685771Y-58828572D02*
X170733390Y-58733334D01*
X170733390Y-58733334D02*
X170781009Y-58685715D01*
X170781009Y-58685715D02*
X170876247Y-58638096D01*
X170876247Y-58638096D02*
X171114342Y-58638096D01*
X171114342Y-58638096D02*
X171209580Y-58685715D01*
X171209580Y-58685715D02*
X171257200Y-58733334D01*
X171257200Y-58733334D02*
X171304819Y-58828572D01*
X171304819Y-58828572D02*
X171304819Y-59114286D01*
X171304819Y-59114286D02*
X171257200Y-59209524D01*
X171257200Y-59209524D02*
X171209580Y-59257143D01*
X166473002Y-64154819D02*
X166473002Y-64964342D01*
X166473002Y-64964342D02*
X166520621Y-65059580D01*
X166520621Y-65059580D02*
X166568240Y-65107200D01*
X166568240Y-65107200D02*
X166663478Y-65154819D01*
X166663478Y-65154819D02*
X166853954Y-65154819D01*
X166853954Y-65154819D02*
X166949192Y-65107200D01*
X166949192Y-65107200D02*
X166996811Y-65059580D01*
X166996811Y-65059580D02*
X167044430Y-64964342D01*
X167044430Y-64964342D02*
X167044430Y-64154819D01*
X168044430Y-65154819D02*
X167473002Y-65154819D01*
X167758716Y-65154819D02*
X167758716Y-64154819D01*
X167758716Y-64154819D02*
X167663478Y-64297676D01*
X167663478Y-64297676D02*
X167568240Y-64392914D01*
X167568240Y-64392914D02*
X167473002Y-64440533D01*
X168996811Y-65154819D02*
X168425383Y-65154819D01*
X168711097Y-65154819D02*
X168711097Y-64154819D01*
X168711097Y-64154819D02*
X168615859Y-64297676D01*
X168615859Y-64297676D02*
X168520621Y-64392914D01*
X168520621Y-64392914D02*
X168425383Y-64440533D01*
X165285397Y-64181620D02*
X165285397Y-64419715D01*
X165047302Y-64324477D02*
X165285397Y-64419715D01*
X165285397Y-64419715D02*
X165523492Y-64324477D01*
X165142540Y-64610191D02*
X165285397Y-64419715D01*
X165285397Y-64419715D02*
X165428254Y-64610191D01*
X165285397Y-64181620D02*
X165285397Y-64419715D01*
X165047302Y-64324477D02*
X165285397Y-64419715D01*
X165285397Y-64419715D02*
X165523492Y-64324477D01*
X165142540Y-64610191D02*
X165285397Y-64419715D01*
X165285397Y-64419715D02*
X165428254Y-64610191D01*
X157684819Y-36416666D02*
X157208628Y-36749999D01*
X157684819Y-36988094D02*
X156684819Y-36988094D01*
X156684819Y-36988094D02*
X156684819Y-36607142D01*
X156684819Y-36607142D02*
X156732438Y-36511904D01*
X156732438Y-36511904D02*
X156780057Y-36464285D01*
X156780057Y-36464285D02*
X156875295Y-36416666D01*
X156875295Y-36416666D02*
X157018152Y-36416666D01*
X157018152Y-36416666D02*
X157113390Y-36464285D01*
X157113390Y-36464285D02*
X157161009Y-36511904D01*
X157161009Y-36511904D02*
X157208628Y-36607142D01*
X157208628Y-36607142D02*
X157208628Y-36988094D01*
X156684819Y-36083332D02*
X156684819Y-35416666D01*
X156684819Y-35416666D02*
X157684819Y-35845237D01*
X128251694Y-58854819D02*
X128251694Y-59664342D01*
X128251694Y-59664342D02*
X128299313Y-59759580D01*
X128299313Y-59759580D02*
X128346932Y-59807200D01*
X128346932Y-59807200D02*
X128442170Y-59854819D01*
X128442170Y-59854819D02*
X128632646Y-59854819D01*
X128632646Y-59854819D02*
X128727884Y-59807200D01*
X128727884Y-59807200D02*
X128775503Y-59759580D01*
X128775503Y-59759580D02*
X128823122Y-59664342D01*
X128823122Y-59664342D02*
X128823122Y-58854819D01*
X129823122Y-59854819D02*
X129251694Y-59854819D01*
X129537408Y-59854819D02*
X129537408Y-58854819D01*
X129537408Y-58854819D02*
X129442170Y-58997676D01*
X129442170Y-58997676D02*
X129346932Y-59092914D01*
X129346932Y-59092914D02*
X129251694Y-59140533D01*
X132402142Y-109264819D02*
X132068809Y-108788628D01*
X131830714Y-109264819D02*
X131830714Y-108264819D01*
X131830714Y-108264819D02*
X132211666Y-108264819D01*
X132211666Y-108264819D02*
X132306904Y-108312438D01*
X132306904Y-108312438D02*
X132354523Y-108360057D01*
X132354523Y-108360057D02*
X132402142Y-108455295D01*
X132402142Y-108455295D02*
X132402142Y-108598152D01*
X132402142Y-108598152D02*
X132354523Y-108693390D01*
X132354523Y-108693390D02*
X132306904Y-108741009D01*
X132306904Y-108741009D02*
X132211666Y-108788628D01*
X132211666Y-108788628D02*
X131830714Y-108788628D01*
X132783095Y-108360057D02*
X132830714Y-108312438D01*
X132830714Y-108312438D02*
X132925952Y-108264819D01*
X132925952Y-108264819D02*
X133164047Y-108264819D01*
X133164047Y-108264819D02*
X133259285Y-108312438D01*
X133259285Y-108312438D02*
X133306904Y-108360057D01*
X133306904Y-108360057D02*
X133354523Y-108455295D01*
X133354523Y-108455295D02*
X133354523Y-108550533D01*
X133354523Y-108550533D02*
X133306904Y-108693390D01*
X133306904Y-108693390D02*
X132735476Y-109264819D01*
X132735476Y-109264819D02*
X133354523Y-109264819D01*
X133973571Y-108264819D02*
X134068809Y-108264819D01*
X134068809Y-108264819D02*
X134164047Y-108312438D01*
X134164047Y-108312438D02*
X134211666Y-108360057D01*
X134211666Y-108360057D02*
X134259285Y-108455295D01*
X134259285Y-108455295D02*
X134306904Y-108645771D01*
X134306904Y-108645771D02*
X134306904Y-108883866D01*
X134306904Y-108883866D02*
X134259285Y-109074342D01*
X134259285Y-109074342D02*
X134211666Y-109169580D01*
X134211666Y-109169580D02*
X134164047Y-109217200D01*
X134164047Y-109217200D02*
X134068809Y-109264819D01*
X134068809Y-109264819D02*
X133973571Y-109264819D01*
X133973571Y-109264819D02*
X133878333Y-109217200D01*
X133878333Y-109217200D02*
X133830714Y-109169580D01*
X133830714Y-109169580D02*
X133783095Y-109074342D01*
X133783095Y-109074342D02*
X133735476Y-108883866D01*
X133735476Y-108883866D02*
X133735476Y-108645771D01*
X133735476Y-108645771D02*
X133783095Y-108455295D01*
X133783095Y-108455295D02*
X133830714Y-108360057D01*
X133830714Y-108360057D02*
X133878333Y-108312438D01*
X133878333Y-108312438D02*
X133973571Y-108264819D01*
X147038095Y-39106819D02*
X147609523Y-39106819D01*
X147323809Y-40106819D02*
X147323809Y-39106819D01*
X147942857Y-40106819D02*
X147942857Y-39106819D01*
X147942857Y-39106819D02*
X148323809Y-39106819D01*
X148323809Y-39106819D02*
X148419047Y-39154438D01*
X148419047Y-39154438D02*
X148466666Y-39202057D01*
X148466666Y-39202057D02*
X148514285Y-39297295D01*
X148514285Y-39297295D02*
X148514285Y-39440152D01*
X148514285Y-39440152D02*
X148466666Y-39535390D01*
X148466666Y-39535390D02*
X148419047Y-39583009D01*
X148419047Y-39583009D02*
X148323809Y-39630628D01*
X148323809Y-39630628D02*
X147942857Y-39630628D01*
X149466666Y-40106819D02*
X148895238Y-40106819D01*
X149180952Y-40106819D02*
X149180952Y-39106819D01*
X149180952Y-39106819D02*
X149085714Y-39249676D01*
X149085714Y-39249676D02*
X148990476Y-39344914D01*
X148990476Y-39344914D02*
X148895238Y-39392533D01*
X146823810Y-42754819D02*
X147442857Y-42754819D01*
X147442857Y-42754819D02*
X147109524Y-43135771D01*
X147109524Y-43135771D02*
X147252381Y-43135771D01*
X147252381Y-43135771D02*
X147347619Y-43183390D01*
X147347619Y-43183390D02*
X147395238Y-43231009D01*
X147395238Y-43231009D02*
X147442857Y-43326247D01*
X147442857Y-43326247D02*
X147442857Y-43564342D01*
X147442857Y-43564342D02*
X147395238Y-43659580D01*
X147395238Y-43659580D02*
X147347619Y-43707200D01*
X147347619Y-43707200D02*
X147252381Y-43754819D01*
X147252381Y-43754819D02*
X146966667Y-43754819D01*
X146966667Y-43754819D02*
X146871429Y-43707200D01*
X146871429Y-43707200D02*
X146823810Y-43659580D01*
X147919048Y-43707200D02*
X147919048Y-43754819D01*
X147919048Y-43754819D02*
X147871429Y-43850057D01*
X147871429Y-43850057D02*
X147823810Y-43897676D01*
X148252381Y-42754819D02*
X148871428Y-42754819D01*
X148871428Y-42754819D02*
X148538095Y-43135771D01*
X148538095Y-43135771D02*
X148680952Y-43135771D01*
X148680952Y-43135771D02*
X148776190Y-43183390D01*
X148776190Y-43183390D02*
X148823809Y-43231009D01*
X148823809Y-43231009D02*
X148871428Y-43326247D01*
X148871428Y-43326247D02*
X148871428Y-43564342D01*
X148871428Y-43564342D02*
X148823809Y-43659580D01*
X148823809Y-43659580D02*
X148776190Y-43707200D01*
X148776190Y-43707200D02*
X148680952Y-43754819D01*
X148680952Y-43754819D02*
X148395238Y-43754819D01*
X148395238Y-43754819D02*
X148300000Y-43707200D01*
X148300000Y-43707200D02*
X148252381Y-43659580D01*
X149157143Y-42754819D02*
X149490476Y-43754819D01*
X149490476Y-43754819D02*
X149823809Y-42754819D01*
X130309580Y-71366666D02*
X130357200Y-71414285D01*
X130357200Y-71414285D02*
X130404819Y-71557142D01*
X130404819Y-71557142D02*
X130404819Y-71652380D01*
X130404819Y-71652380D02*
X130357200Y-71795237D01*
X130357200Y-71795237D02*
X130261961Y-71890475D01*
X130261961Y-71890475D02*
X130166723Y-71938094D01*
X130166723Y-71938094D02*
X129976247Y-71985713D01*
X129976247Y-71985713D02*
X129833390Y-71985713D01*
X129833390Y-71985713D02*
X129642914Y-71938094D01*
X129642914Y-71938094D02*
X129547676Y-71890475D01*
X129547676Y-71890475D02*
X129452438Y-71795237D01*
X129452438Y-71795237D02*
X129404819Y-71652380D01*
X129404819Y-71652380D02*
X129404819Y-71557142D01*
X129404819Y-71557142D02*
X129452438Y-71414285D01*
X129452438Y-71414285D02*
X129500057Y-71366666D01*
X130404819Y-70890475D02*
X130404819Y-70699999D01*
X130404819Y-70699999D02*
X130357200Y-70604761D01*
X130357200Y-70604761D02*
X130309580Y-70557142D01*
X130309580Y-70557142D02*
X130166723Y-70461904D01*
X130166723Y-70461904D02*
X129976247Y-70414285D01*
X129976247Y-70414285D02*
X129595295Y-70414285D01*
X129595295Y-70414285D02*
X129500057Y-70461904D01*
X129500057Y-70461904D02*
X129452438Y-70509523D01*
X129452438Y-70509523D02*
X129404819Y-70604761D01*
X129404819Y-70604761D02*
X129404819Y-70795237D01*
X129404819Y-70795237D02*
X129452438Y-70890475D01*
X129452438Y-70890475D02*
X129500057Y-70938094D01*
X129500057Y-70938094D02*
X129595295Y-70985713D01*
X129595295Y-70985713D02*
X129833390Y-70985713D01*
X129833390Y-70985713D02*
X129928628Y-70938094D01*
X129928628Y-70938094D02*
X129976247Y-70890475D01*
X129976247Y-70890475D02*
X130023866Y-70795237D01*
X130023866Y-70795237D02*
X130023866Y-70604761D01*
X130023866Y-70604761D02*
X129976247Y-70509523D01*
X129976247Y-70509523D02*
X129928628Y-70461904D01*
X129928628Y-70461904D02*
X129833390Y-70414285D01*
X165357142Y-87604819D02*
X165023809Y-87128628D01*
X164785714Y-87604819D02*
X164785714Y-86604819D01*
X164785714Y-86604819D02*
X165166666Y-86604819D01*
X165166666Y-86604819D02*
X165261904Y-86652438D01*
X165261904Y-86652438D02*
X165309523Y-86700057D01*
X165309523Y-86700057D02*
X165357142Y-86795295D01*
X165357142Y-86795295D02*
X165357142Y-86938152D01*
X165357142Y-86938152D02*
X165309523Y-87033390D01*
X165309523Y-87033390D02*
X165261904Y-87081009D01*
X165261904Y-87081009D02*
X165166666Y-87128628D01*
X165166666Y-87128628D02*
X164785714Y-87128628D01*
X166309523Y-87604819D02*
X165738095Y-87604819D01*
X166023809Y-87604819D02*
X166023809Y-86604819D01*
X166023809Y-86604819D02*
X165928571Y-86747676D01*
X165928571Y-86747676D02*
X165833333Y-86842914D01*
X165833333Y-86842914D02*
X165738095Y-86890533D01*
X167166666Y-86604819D02*
X166976190Y-86604819D01*
X166976190Y-86604819D02*
X166880952Y-86652438D01*
X166880952Y-86652438D02*
X166833333Y-86700057D01*
X166833333Y-86700057D02*
X166738095Y-86842914D01*
X166738095Y-86842914D02*
X166690476Y-87033390D01*
X166690476Y-87033390D02*
X166690476Y-87414342D01*
X166690476Y-87414342D02*
X166738095Y-87509580D01*
X166738095Y-87509580D02*
X166785714Y-87557200D01*
X166785714Y-87557200D02*
X166880952Y-87604819D01*
X166880952Y-87604819D02*
X167071428Y-87604819D01*
X167071428Y-87604819D02*
X167166666Y-87557200D01*
X167166666Y-87557200D02*
X167214285Y-87509580D01*
X167214285Y-87509580D02*
X167261904Y-87414342D01*
X167261904Y-87414342D02*
X167261904Y-87176247D01*
X167261904Y-87176247D02*
X167214285Y-87081009D01*
X167214285Y-87081009D02*
X167166666Y-87033390D01*
X167166666Y-87033390D02*
X167071428Y-86985771D01*
X167071428Y-86985771D02*
X166880952Y-86985771D01*
X166880952Y-86985771D02*
X166785714Y-87033390D01*
X166785714Y-87033390D02*
X166738095Y-87081009D01*
X166738095Y-87081009D02*
X166690476Y-87176247D01*
X130759580Y-57966666D02*
X130807200Y-58014285D01*
X130807200Y-58014285D02*
X130854819Y-58157142D01*
X130854819Y-58157142D02*
X130854819Y-58252380D01*
X130854819Y-58252380D02*
X130807200Y-58395237D01*
X130807200Y-58395237D02*
X130711961Y-58490475D01*
X130711961Y-58490475D02*
X130616723Y-58538094D01*
X130616723Y-58538094D02*
X130426247Y-58585713D01*
X130426247Y-58585713D02*
X130283390Y-58585713D01*
X130283390Y-58585713D02*
X130092914Y-58538094D01*
X130092914Y-58538094D02*
X129997676Y-58490475D01*
X129997676Y-58490475D02*
X129902438Y-58395237D01*
X129902438Y-58395237D02*
X129854819Y-58252380D01*
X129854819Y-58252380D02*
X129854819Y-58157142D01*
X129854819Y-58157142D02*
X129902438Y-58014285D01*
X129902438Y-58014285D02*
X129950057Y-57966666D01*
X129854819Y-57061904D02*
X129854819Y-57538094D01*
X129854819Y-57538094D02*
X130331009Y-57585713D01*
X130331009Y-57585713D02*
X130283390Y-57538094D01*
X130283390Y-57538094D02*
X130235771Y-57442856D01*
X130235771Y-57442856D02*
X130235771Y-57204761D01*
X130235771Y-57204761D02*
X130283390Y-57109523D01*
X130283390Y-57109523D02*
X130331009Y-57061904D01*
X130331009Y-57061904D02*
X130426247Y-57014285D01*
X130426247Y-57014285D02*
X130664342Y-57014285D01*
X130664342Y-57014285D02*
X130759580Y-57061904D01*
X130759580Y-57061904D02*
X130807200Y-57109523D01*
X130807200Y-57109523D02*
X130854819Y-57204761D01*
X130854819Y-57204761D02*
X130854819Y-57442856D01*
X130854819Y-57442856D02*
X130807200Y-57538094D01*
X130807200Y-57538094D02*
X130759580Y-57585713D01*
X124635919Y-91042857D02*
X124159728Y-91376190D01*
X124635919Y-91614285D02*
X123635919Y-91614285D01*
X123635919Y-91614285D02*
X123635919Y-91233333D01*
X123635919Y-91233333D02*
X123683538Y-91138095D01*
X123683538Y-91138095D02*
X123731157Y-91090476D01*
X123731157Y-91090476D02*
X123826395Y-91042857D01*
X123826395Y-91042857D02*
X123969252Y-91042857D01*
X123969252Y-91042857D02*
X124064490Y-91090476D01*
X124064490Y-91090476D02*
X124112109Y-91138095D01*
X124112109Y-91138095D02*
X124159728Y-91233333D01*
X124159728Y-91233333D02*
X124159728Y-91614285D01*
X124635919Y-90090476D02*
X124635919Y-90661904D01*
X124635919Y-90376190D02*
X123635919Y-90376190D01*
X123635919Y-90376190D02*
X123778776Y-90471428D01*
X123778776Y-90471428D02*
X123874014Y-90566666D01*
X123874014Y-90566666D02*
X123921633Y-90661904D01*
X123635919Y-89185714D02*
X123635919Y-89661904D01*
X123635919Y-89661904D02*
X124112109Y-89709523D01*
X124112109Y-89709523D02*
X124064490Y-89661904D01*
X124064490Y-89661904D02*
X124016871Y-89566666D01*
X124016871Y-89566666D02*
X124016871Y-89328571D01*
X124016871Y-89328571D02*
X124064490Y-89233333D01*
X124064490Y-89233333D02*
X124112109Y-89185714D01*
X124112109Y-89185714D02*
X124207347Y-89138095D01*
X124207347Y-89138095D02*
X124445442Y-89138095D01*
X124445442Y-89138095D02*
X124540680Y-89185714D01*
X124540680Y-89185714D02*
X124588300Y-89233333D01*
X124588300Y-89233333D02*
X124635919Y-89328571D01*
X124635919Y-89328571D02*
X124635919Y-89566666D01*
X124635919Y-89566666D02*
X124588300Y-89661904D01*
X124588300Y-89661904D02*
X124540680Y-89709523D01*
X144149192Y-64054819D02*
X144149192Y-64864342D01*
X144149192Y-64864342D02*
X144196811Y-64959580D01*
X144196811Y-64959580D02*
X144244430Y-65007200D01*
X144244430Y-65007200D02*
X144339668Y-65054819D01*
X144339668Y-65054819D02*
X144530144Y-65054819D01*
X144530144Y-65054819D02*
X144625382Y-65007200D01*
X144625382Y-65007200D02*
X144673001Y-64959580D01*
X144673001Y-64959580D02*
X144720620Y-64864342D01*
X144720620Y-64864342D02*
X144720620Y-64054819D01*
X145101573Y-64054819D02*
X145768239Y-64054819D01*
X145768239Y-64054819D02*
X145339668Y-65054819D01*
X142485397Y-64031620D02*
X142485397Y-64269715D01*
X142247302Y-64174477D02*
X142485397Y-64269715D01*
X142485397Y-64269715D02*
X142723492Y-64174477D01*
X142342540Y-64460191D02*
X142485397Y-64269715D01*
X142485397Y-64269715D02*
X142628254Y-64460191D01*
X142485397Y-64031620D02*
X142485397Y-64269715D01*
X142247302Y-64174477D02*
X142485397Y-64269715D01*
X142485397Y-64269715D02*
X142723492Y-64174477D01*
X142342540Y-64460191D02*
X142485397Y-64269715D01*
X142485397Y-64269715D02*
X142628254Y-64460191D01*
X131611905Y-85679818D02*
X131611905Y-86489341D01*
X131611905Y-86489341D02*
X131659524Y-86584579D01*
X131659524Y-86584579D02*
X131707143Y-86632199D01*
X131707143Y-86632199D02*
X131802381Y-86679818D01*
X131802381Y-86679818D02*
X131992857Y-86679818D01*
X131992857Y-86679818D02*
X132088095Y-86632199D01*
X132088095Y-86632199D02*
X132135714Y-86584579D01*
X132135714Y-86584579D02*
X132183333Y-86489341D01*
X132183333Y-86489341D02*
X132183333Y-85679818D01*
X133183333Y-86679818D02*
X132611905Y-86679818D01*
X132897619Y-86679818D02*
X132897619Y-85679818D01*
X132897619Y-85679818D02*
X132802381Y-85822675D01*
X132802381Y-85822675D02*
X132707143Y-85917913D01*
X132707143Y-85917913D02*
X132611905Y-85965532D01*
X133564286Y-85775056D02*
X133611905Y-85727437D01*
X133611905Y-85727437D02*
X133707143Y-85679818D01*
X133707143Y-85679818D02*
X133945238Y-85679818D01*
X133945238Y-85679818D02*
X134040476Y-85727437D01*
X134040476Y-85727437D02*
X134088095Y-85775056D01*
X134088095Y-85775056D02*
X134135714Y-85870294D01*
X134135714Y-85870294D02*
X134135714Y-85965532D01*
X134135714Y-85965532D02*
X134088095Y-86108389D01*
X134088095Y-86108389D02*
X133516667Y-86679818D01*
X133516667Y-86679818D02*
X134135714Y-86679818D01*
X135288399Y-92495180D02*
X135288399Y-92257085D01*
X135526494Y-92352323D02*
X135288399Y-92257085D01*
X135288399Y-92257085D02*
X135050304Y-92352323D01*
X135431256Y-92066609D02*
X135288399Y-92257085D01*
X135288399Y-92257085D02*
X135145542Y-92066609D01*
X135288400Y-92004620D02*
X135288400Y-92242715D01*
X135050305Y-92147477D02*
X135288400Y-92242715D01*
X135288400Y-92242715D02*
X135526495Y-92147477D01*
X135145543Y-92433191D02*
X135288400Y-92242715D01*
X135288400Y-92242715D02*
X135431257Y-92433191D01*
X159020830Y-54380357D02*
X159068450Y-54427976D01*
X159068450Y-54427976D02*
X159116069Y-54570833D01*
X159116069Y-54570833D02*
X159116069Y-54666071D01*
X159116069Y-54666071D02*
X159068450Y-54808928D01*
X159068450Y-54808928D02*
X158973211Y-54904166D01*
X158973211Y-54904166D02*
X158877973Y-54951785D01*
X158877973Y-54951785D02*
X158687497Y-54999404D01*
X158687497Y-54999404D02*
X158544640Y-54999404D01*
X158544640Y-54999404D02*
X158354164Y-54951785D01*
X158354164Y-54951785D02*
X158258926Y-54904166D01*
X158258926Y-54904166D02*
X158163688Y-54808928D01*
X158163688Y-54808928D02*
X158116069Y-54666071D01*
X158116069Y-54666071D02*
X158116069Y-54570833D01*
X158116069Y-54570833D02*
X158163688Y-54427976D01*
X158163688Y-54427976D02*
X158211307Y-54380357D01*
X158211307Y-53999404D02*
X158163688Y-53951785D01*
X158163688Y-53951785D02*
X158116069Y-53856547D01*
X158116069Y-53856547D02*
X158116069Y-53618452D01*
X158116069Y-53618452D02*
X158163688Y-53523214D01*
X158163688Y-53523214D02*
X158211307Y-53475595D01*
X158211307Y-53475595D02*
X158306545Y-53427976D01*
X158306545Y-53427976D02*
X158401783Y-53427976D01*
X158401783Y-53427976D02*
X158544640Y-53475595D01*
X158544640Y-53475595D02*
X159116069Y-54047023D01*
X159116069Y-54047023D02*
X159116069Y-53427976D01*
X159116069Y-52475595D02*
X159116069Y-53047023D01*
X159116069Y-52761309D02*
X158116069Y-52761309D01*
X158116069Y-52761309D02*
X158258926Y-52856547D01*
X158258926Y-52856547D02*
X158354164Y-52951785D01*
X158354164Y-52951785D02*
X158401783Y-53047023D01*
X141245679Y-89263057D02*
X141293299Y-89310676D01*
X141293299Y-89310676D02*
X141340918Y-89453533D01*
X141340918Y-89453533D02*
X141340918Y-89548771D01*
X141340918Y-89548771D02*
X141293299Y-89691628D01*
X141293299Y-89691628D02*
X141198060Y-89786866D01*
X141198060Y-89786866D02*
X141102822Y-89834485D01*
X141102822Y-89834485D02*
X140912346Y-89882104D01*
X140912346Y-89882104D02*
X140769489Y-89882104D01*
X140769489Y-89882104D02*
X140579013Y-89834485D01*
X140579013Y-89834485D02*
X140483775Y-89786866D01*
X140483775Y-89786866D02*
X140388537Y-89691628D01*
X140388537Y-89691628D02*
X140340918Y-89548771D01*
X140340918Y-89548771D02*
X140340918Y-89453533D01*
X140340918Y-89453533D02*
X140388537Y-89310676D01*
X140388537Y-89310676D02*
X140436156Y-89263057D01*
X140340918Y-88929723D02*
X140340918Y-88310676D01*
X140340918Y-88310676D02*
X140721870Y-88644009D01*
X140721870Y-88644009D02*
X140721870Y-88501152D01*
X140721870Y-88501152D02*
X140769489Y-88405914D01*
X140769489Y-88405914D02*
X140817108Y-88358295D01*
X140817108Y-88358295D02*
X140912346Y-88310676D01*
X140912346Y-88310676D02*
X141150441Y-88310676D01*
X141150441Y-88310676D02*
X141245679Y-88358295D01*
X141245679Y-88358295D02*
X141293299Y-88405914D01*
X141293299Y-88405914D02*
X141340918Y-88501152D01*
X141340918Y-88501152D02*
X141340918Y-88786866D01*
X141340918Y-88786866D02*
X141293299Y-88882104D01*
X141293299Y-88882104D02*
X141245679Y-88929723D01*
X141340918Y-87358295D02*
X141340918Y-87929723D01*
X141340918Y-87644009D02*
X140340918Y-87644009D01*
X140340918Y-87644009D02*
X140483775Y-87739247D01*
X140483775Y-87739247D02*
X140579013Y-87834485D01*
X140579013Y-87834485D02*
X140626632Y-87929723D01*
X154509580Y-89142857D02*
X154557200Y-89190476D01*
X154557200Y-89190476D02*
X154604819Y-89333333D01*
X154604819Y-89333333D02*
X154604819Y-89428571D01*
X154604819Y-89428571D02*
X154557200Y-89571428D01*
X154557200Y-89571428D02*
X154461961Y-89666666D01*
X154461961Y-89666666D02*
X154366723Y-89714285D01*
X154366723Y-89714285D02*
X154176247Y-89761904D01*
X154176247Y-89761904D02*
X154033390Y-89761904D01*
X154033390Y-89761904D02*
X153842914Y-89714285D01*
X153842914Y-89714285D02*
X153747676Y-89666666D01*
X153747676Y-89666666D02*
X153652438Y-89571428D01*
X153652438Y-89571428D02*
X153604819Y-89428571D01*
X153604819Y-89428571D02*
X153604819Y-89333333D01*
X153604819Y-89333333D02*
X153652438Y-89190476D01*
X153652438Y-89190476D02*
X153700057Y-89142857D01*
X153700057Y-88761904D02*
X153652438Y-88714285D01*
X153652438Y-88714285D02*
X153604819Y-88619047D01*
X153604819Y-88619047D02*
X153604819Y-88380952D01*
X153604819Y-88380952D02*
X153652438Y-88285714D01*
X153652438Y-88285714D02*
X153700057Y-88238095D01*
X153700057Y-88238095D02*
X153795295Y-88190476D01*
X153795295Y-88190476D02*
X153890533Y-88190476D01*
X153890533Y-88190476D02*
X154033390Y-88238095D01*
X154033390Y-88238095D02*
X154604819Y-88809523D01*
X154604819Y-88809523D02*
X154604819Y-88190476D01*
X153604819Y-87285714D02*
X153604819Y-87761904D01*
X153604819Y-87761904D02*
X154081009Y-87809523D01*
X154081009Y-87809523D02*
X154033390Y-87761904D01*
X154033390Y-87761904D02*
X153985771Y-87666666D01*
X153985771Y-87666666D02*
X153985771Y-87428571D01*
X153985771Y-87428571D02*
X154033390Y-87333333D01*
X154033390Y-87333333D02*
X154081009Y-87285714D01*
X154081009Y-87285714D02*
X154176247Y-87238095D01*
X154176247Y-87238095D02*
X154414342Y-87238095D01*
X154414342Y-87238095D02*
X154509580Y-87285714D01*
X154509580Y-87285714D02*
X154557200Y-87333333D01*
X154557200Y-87333333D02*
X154604819Y-87428571D01*
X154604819Y-87428571D02*
X154604819Y-87666666D01*
X154604819Y-87666666D02*
X154557200Y-87761904D01*
X154557200Y-87761904D02*
X154509580Y-87809523D01*
X142907139Y-72059580D02*
X142859520Y-72107200D01*
X142859520Y-72107200D02*
X142716663Y-72154819D01*
X142716663Y-72154819D02*
X142621425Y-72154819D01*
X142621425Y-72154819D02*
X142478568Y-72107200D01*
X142478568Y-72107200D02*
X142383330Y-72011961D01*
X142383330Y-72011961D02*
X142335711Y-71916723D01*
X142335711Y-71916723D02*
X142288092Y-71726247D01*
X142288092Y-71726247D02*
X142288092Y-71583390D01*
X142288092Y-71583390D02*
X142335711Y-71392914D01*
X142335711Y-71392914D02*
X142383330Y-71297676D01*
X142383330Y-71297676D02*
X142478568Y-71202438D01*
X142478568Y-71202438D02*
X142621425Y-71154819D01*
X142621425Y-71154819D02*
X142716663Y-71154819D01*
X142716663Y-71154819D02*
X142859520Y-71202438D01*
X142859520Y-71202438D02*
X142907139Y-71250057D01*
X143764282Y-71488152D02*
X143764282Y-72154819D01*
X143526187Y-71107200D02*
X143288092Y-71821485D01*
X143288092Y-71821485D02*
X143907139Y-71821485D01*
X144764282Y-71154819D02*
X144288092Y-71154819D01*
X144288092Y-71154819D02*
X144240473Y-71631009D01*
X144240473Y-71631009D02*
X144288092Y-71583390D01*
X144288092Y-71583390D02*
X144383330Y-71535771D01*
X144383330Y-71535771D02*
X144621425Y-71535771D01*
X144621425Y-71535771D02*
X144716663Y-71583390D01*
X144716663Y-71583390D02*
X144764282Y-71631009D01*
X144764282Y-71631009D02*
X144811901Y-71726247D01*
X144811901Y-71726247D02*
X144811901Y-71964342D01*
X144811901Y-71964342D02*
X144764282Y-72059580D01*
X144764282Y-72059580D02*
X144716663Y-72107200D01*
X144716663Y-72107200D02*
X144621425Y-72154819D01*
X144621425Y-72154819D02*
X144383330Y-72154819D01*
X144383330Y-72154819D02*
X144288092Y-72107200D01*
X144288092Y-72107200D02*
X144240473Y-72059580D01*
X165509580Y-61692857D02*
X165557200Y-61740476D01*
X165557200Y-61740476D02*
X165604819Y-61883333D01*
X165604819Y-61883333D02*
X165604819Y-61978571D01*
X165604819Y-61978571D02*
X165557200Y-62121428D01*
X165557200Y-62121428D02*
X165461961Y-62216666D01*
X165461961Y-62216666D02*
X165366723Y-62264285D01*
X165366723Y-62264285D02*
X165176247Y-62311904D01*
X165176247Y-62311904D02*
X165033390Y-62311904D01*
X165033390Y-62311904D02*
X164842914Y-62264285D01*
X164842914Y-62264285D02*
X164747676Y-62216666D01*
X164747676Y-62216666D02*
X164652438Y-62121428D01*
X164652438Y-62121428D02*
X164604819Y-61978571D01*
X164604819Y-61978571D02*
X164604819Y-61883333D01*
X164604819Y-61883333D02*
X164652438Y-61740476D01*
X164652438Y-61740476D02*
X164700057Y-61692857D01*
X164700057Y-61311904D02*
X164652438Y-61264285D01*
X164652438Y-61264285D02*
X164604819Y-61169047D01*
X164604819Y-61169047D02*
X164604819Y-60930952D01*
X164604819Y-60930952D02*
X164652438Y-60835714D01*
X164652438Y-60835714D02*
X164700057Y-60788095D01*
X164700057Y-60788095D02*
X164795295Y-60740476D01*
X164795295Y-60740476D02*
X164890533Y-60740476D01*
X164890533Y-60740476D02*
X165033390Y-60788095D01*
X165033390Y-60788095D02*
X165604819Y-61359523D01*
X165604819Y-61359523D02*
X165604819Y-60740476D01*
X164938152Y-59883333D02*
X165604819Y-59883333D01*
X164557200Y-60121428D02*
X165271485Y-60359523D01*
X165271485Y-60359523D02*
X165271485Y-59740476D01*
X130559580Y-46692857D02*
X130607200Y-46740476D01*
X130607200Y-46740476D02*
X130654819Y-46883333D01*
X130654819Y-46883333D02*
X130654819Y-46978571D01*
X130654819Y-46978571D02*
X130607200Y-47121428D01*
X130607200Y-47121428D02*
X130511961Y-47216666D01*
X130511961Y-47216666D02*
X130416723Y-47264285D01*
X130416723Y-47264285D02*
X130226247Y-47311904D01*
X130226247Y-47311904D02*
X130083390Y-47311904D01*
X130083390Y-47311904D02*
X129892914Y-47264285D01*
X129892914Y-47264285D02*
X129797676Y-47216666D01*
X129797676Y-47216666D02*
X129702438Y-47121428D01*
X129702438Y-47121428D02*
X129654819Y-46978571D01*
X129654819Y-46978571D02*
X129654819Y-46883333D01*
X129654819Y-46883333D02*
X129702438Y-46740476D01*
X129702438Y-46740476D02*
X129750057Y-46692857D01*
X130654819Y-45740476D02*
X130654819Y-46311904D01*
X130654819Y-46026190D02*
X129654819Y-46026190D01*
X129654819Y-46026190D02*
X129797676Y-46121428D01*
X129797676Y-46121428D02*
X129892914Y-46216666D01*
X129892914Y-46216666D02*
X129940533Y-46311904D01*
X130654819Y-44788095D02*
X130654819Y-45359523D01*
X130654819Y-45073809D02*
X129654819Y-45073809D01*
X129654819Y-45073809D02*
X129797676Y-45169047D01*
X129797676Y-45169047D02*
X129892914Y-45264285D01*
X129892914Y-45264285D02*
X129940533Y-45359523D01*
X156007142Y-41789580D02*
X155959523Y-41837200D01*
X155959523Y-41837200D02*
X155816666Y-41884819D01*
X155816666Y-41884819D02*
X155721428Y-41884819D01*
X155721428Y-41884819D02*
X155578571Y-41837200D01*
X155578571Y-41837200D02*
X155483333Y-41741961D01*
X155483333Y-41741961D02*
X155435714Y-41646723D01*
X155435714Y-41646723D02*
X155388095Y-41456247D01*
X155388095Y-41456247D02*
X155388095Y-41313390D01*
X155388095Y-41313390D02*
X155435714Y-41122914D01*
X155435714Y-41122914D02*
X155483333Y-41027676D01*
X155483333Y-41027676D02*
X155578571Y-40932438D01*
X155578571Y-40932438D02*
X155721428Y-40884819D01*
X155721428Y-40884819D02*
X155816666Y-40884819D01*
X155816666Y-40884819D02*
X155959523Y-40932438D01*
X155959523Y-40932438D02*
X156007142Y-40980057D01*
X156959523Y-41884819D02*
X156388095Y-41884819D01*
X156673809Y-41884819D02*
X156673809Y-40884819D01*
X156673809Y-40884819D02*
X156578571Y-41027676D01*
X156578571Y-41027676D02*
X156483333Y-41122914D01*
X156483333Y-41122914D02*
X156388095Y-41170533D01*
X157864285Y-40884819D02*
X157388095Y-40884819D01*
X157388095Y-40884819D02*
X157340476Y-41361009D01*
X157340476Y-41361009D02*
X157388095Y-41313390D01*
X157388095Y-41313390D02*
X157483333Y-41265771D01*
X157483333Y-41265771D02*
X157721428Y-41265771D01*
X157721428Y-41265771D02*
X157816666Y-41313390D01*
X157816666Y-41313390D02*
X157864285Y-41361009D01*
X157864285Y-41361009D02*
X157911904Y-41456247D01*
X157911904Y-41456247D02*
X157911904Y-41694342D01*
X157911904Y-41694342D02*
X157864285Y-41789580D01*
X157864285Y-41789580D02*
X157816666Y-41837200D01*
X157816666Y-41837200D02*
X157721428Y-41884819D01*
X157721428Y-41884819D02*
X157483333Y-41884819D01*
X157483333Y-41884819D02*
X157388095Y-41837200D01*
X157388095Y-41837200D02*
X157340476Y-41789580D01*
D12*
X162184384Y-98993131D02*
X161996907Y-98993131D01*
X161996907Y-98993131D02*
X161996907Y-98599430D01*
X162521841Y-98993131D02*
X162296869Y-98993131D01*
X162409355Y-98993131D02*
X162409355Y-98599430D01*
X162409355Y-98599430D02*
X162371860Y-98655673D01*
X162371860Y-98655673D02*
X162334365Y-98693169D01*
X162334365Y-98693169D02*
X162296869Y-98711916D01*
D10*
X121109580Y-53721666D02*
X121157200Y-53769285D01*
X121157200Y-53769285D02*
X121204819Y-53912142D01*
X121204819Y-53912142D02*
X121204819Y-54007380D01*
X121204819Y-54007380D02*
X121157200Y-54150237D01*
X121157200Y-54150237D02*
X121061961Y-54245475D01*
X121061961Y-54245475D02*
X120966723Y-54293094D01*
X120966723Y-54293094D02*
X120776247Y-54340713D01*
X120776247Y-54340713D02*
X120633390Y-54340713D01*
X120633390Y-54340713D02*
X120442914Y-54293094D01*
X120442914Y-54293094D02*
X120347676Y-54245475D01*
X120347676Y-54245475D02*
X120252438Y-54150237D01*
X120252438Y-54150237D02*
X120204819Y-54007380D01*
X120204819Y-54007380D02*
X120204819Y-53912142D01*
X120204819Y-53912142D02*
X120252438Y-53769285D01*
X120252438Y-53769285D02*
X120300057Y-53721666D01*
X120633390Y-53150237D02*
X120585771Y-53245475D01*
X120585771Y-53245475D02*
X120538152Y-53293094D01*
X120538152Y-53293094D02*
X120442914Y-53340713D01*
X120442914Y-53340713D02*
X120395295Y-53340713D01*
X120395295Y-53340713D02*
X120300057Y-53293094D01*
X120300057Y-53293094D02*
X120252438Y-53245475D01*
X120252438Y-53245475D02*
X120204819Y-53150237D01*
X120204819Y-53150237D02*
X120204819Y-52959761D01*
X120204819Y-52959761D02*
X120252438Y-52864523D01*
X120252438Y-52864523D02*
X120300057Y-52816904D01*
X120300057Y-52816904D02*
X120395295Y-52769285D01*
X120395295Y-52769285D02*
X120442914Y-52769285D01*
X120442914Y-52769285D02*
X120538152Y-52816904D01*
X120538152Y-52816904D02*
X120585771Y-52864523D01*
X120585771Y-52864523D02*
X120633390Y-52959761D01*
X120633390Y-52959761D02*
X120633390Y-53150237D01*
X120633390Y-53150237D02*
X120681009Y-53245475D01*
X120681009Y-53245475D02*
X120728628Y-53293094D01*
X120728628Y-53293094D02*
X120823866Y-53340713D01*
X120823866Y-53340713D02*
X121014342Y-53340713D01*
X121014342Y-53340713D02*
X121109580Y-53293094D01*
X121109580Y-53293094D02*
X121157200Y-53245475D01*
X121157200Y-53245475D02*
X121204819Y-53150237D01*
X121204819Y-53150237D02*
X121204819Y-52959761D01*
X121204819Y-52959761D02*
X121157200Y-52864523D01*
X121157200Y-52864523D02*
X121109580Y-52816904D01*
X121109580Y-52816904D02*
X121014342Y-52769285D01*
X121014342Y-52769285D02*
X120823866Y-52769285D01*
X120823866Y-52769285D02*
X120728628Y-52816904D01*
X120728628Y-52816904D02*
X120681009Y-52864523D01*
X120681009Y-52864523D02*
X120633390Y-52959761D01*
X128097202Y-50350180D02*
X128097202Y-49540657D01*
X128097202Y-49540657D02*
X128049583Y-49445419D01*
X128049583Y-49445419D02*
X128001964Y-49397800D01*
X128001964Y-49397800D02*
X127906726Y-49350180D01*
X127906726Y-49350180D02*
X127716250Y-49350180D01*
X127716250Y-49350180D02*
X127621012Y-49397800D01*
X127621012Y-49397800D02*
X127573393Y-49445419D01*
X127573393Y-49445419D02*
X127525774Y-49540657D01*
X127525774Y-49540657D02*
X127525774Y-50350180D01*
X127144821Y-50350180D02*
X126525774Y-50350180D01*
X126525774Y-50350180D02*
X126859107Y-49969228D01*
X126859107Y-49969228D02*
X126716250Y-49969228D01*
X126716250Y-49969228D02*
X126621012Y-49921609D01*
X126621012Y-49921609D02*
X126573393Y-49873990D01*
X126573393Y-49873990D02*
X126525774Y-49778752D01*
X126525774Y-49778752D02*
X126525774Y-49540657D01*
X126525774Y-49540657D02*
X126573393Y-49445419D01*
X126573393Y-49445419D02*
X126621012Y-49397800D01*
X126621012Y-49397800D02*
X126716250Y-49350180D01*
X126716250Y-49350180D02*
X127001964Y-49350180D01*
X127001964Y-49350180D02*
X127097202Y-49397800D01*
X127097202Y-49397800D02*
X127144821Y-49445419D01*
X129849999Y-52045180D02*
X129849999Y-51807085D01*
X130088094Y-51902323D02*
X129849999Y-51807085D01*
X129849999Y-51807085D02*
X129611904Y-51902323D01*
X129992856Y-51616609D02*
X129849999Y-51807085D01*
X129849999Y-51807085D02*
X129707142Y-51616609D01*
X129850000Y-51554819D02*
X129850000Y-51792914D01*
X129611905Y-51697676D02*
X129850000Y-51792914D01*
X129850000Y-51792914D02*
X130088095Y-51697676D01*
X129707143Y-51983390D02*
X129850000Y-51792914D01*
X129850000Y-51792914D02*
X129992857Y-51983390D01*
X135504819Y-30668333D02*
X136219104Y-30668333D01*
X136219104Y-30668333D02*
X136361961Y-30715952D01*
X136361961Y-30715952D02*
X136457200Y-30811190D01*
X136457200Y-30811190D02*
X136504819Y-30954047D01*
X136504819Y-30954047D02*
X136504819Y-31049285D01*
X135504819Y-30287380D02*
X135504819Y-29668333D01*
X135504819Y-29668333D02*
X135885771Y-30001666D01*
X135885771Y-30001666D02*
X135885771Y-29858809D01*
X135885771Y-29858809D02*
X135933390Y-29763571D01*
X135933390Y-29763571D02*
X135981009Y-29715952D01*
X135981009Y-29715952D02*
X136076247Y-29668333D01*
X136076247Y-29668333D02*
X136314342Y-29668333D01*
X136314342Y-29668333D02*
X136409580Y-29715952D01*
X136409580Y-29715952D02*
X136457200Y-29763571D01*
X136457200Y-29763571D02*
X136504819Y-29858809D01*
X136504819Y-29858809D02*
X136504819Y-30144523D01*
X136504819Y-30144523D02*
X136457200Y-30239761D01*
X136457200Y-30239761D02*
X136409580Y-30287380D01*
X152588095Y-48179819D02*
X152588095Y-48989342D01*
X152588095Y-48989342D02*
X152635714Y-49084580D01*
X152635714Y-49084580D02*
X152683333Y-49132200D01*
X152683333Y-49132200D02*
X152778571Y-49179819D01*
X152778571Y-49179819D02*
X152969047Y-49179819D01*
X152969047Y-49179819D02*
X153064285Y-49132200D01*
X153064285Y-49132200D02*
X153111904Y-49084580D01*
X153111904Y-49084580D02*
X153159523Y-48989342D01*
X153159523Y-48989342D02*
X153159523Y-48179819D01*
X154064285Y-48513152D02*
X154064285Y-49179819D01*
X153826190Y-48132200D02*
X153588095Y-48846485D01*
X153588095Y-48846485D02*
X154207142Y-48846485D01*
X162031249Y-51870180D02*
X162031249Y-51632085D01*
X162269344Y-51727323D02*
X162031249Y-51632085D01*
X162031249Y-51632085D02*
X161793154Y-51727323D01*
X162174106Y-51441609D02*
X162031249Y-51632085D01*
X162031249Y-51632085D02*
X161888392Y-51441609D01*
X162031250Y-51429819D02*
X162031250Y-51667914D01*
X161793155Y-51572676D02*
X162031250Y-51667914D01*
X162031250Y-51667914D02*
X162269345Y-51572676D01*
X161888393Y-51858390D02*
X162031250Y-51667914D01*
X162031250Y-51667914D02*
X162174107Y-51858390D01*
X165459580Y-97466974D02*
X165507200Y-97514593D01*
X165507200Y-97514593D02*
X165554819Y-97657450D01*
X165554819Y-97657450D02*
X165554819Y-97752688D01*
X165554819Y-97752688D02*
X165507200Y-97895545D01*
X165507200Y-97895545D02*
X165411961Y-97990783D01*
X165411961Y-97990783D02*
X165316723Y-98038402D01*
X165316723Y-98038402D02*
X165126247Y-98086021D01*
X165126247Y-98086021D02*
X164983390Y-98086021D01*
X164983390Y-98086021D02*
X164792914Y-98038402D01*
X164792914Y-98038402D02*
X164697676Y-97990783D01*
X164697676Y-97990783D02*
X164602438Y-97895545D01*
X164602438Y-97895545D02*
X164554819Y-97752688D01*
X164554819Y-97752688D02*
X164554819Y-97657450D01*
X164554819Y-97657450D02*
X164602438Y-97514593D01*
X164602438Y-97514593D02*
X164650057Y-97466974D01*
X164650057Y-97086021D02*
X164602438Y-97038402D01*
X164602438Y-97038402D02*
X164554819Y-96943164D01*
X164554819Y-96943164D02*
X164554819Y-96705069D01*
X164554819Y-96705069D02*
X164602438Y-96609831D01*
X164602438Y-96609831D02*
X164650057Y-96562212D01*
X164650057Y-96562212D02*
X164745295Y-96514593D01*
X164745295Y-96514593D02*
X164840533Y-96514593D01*
X164840533Y-96514593D02*
X164983390Y-96562212D01*
X164983390Y-96562212D02*
X165554819Y-97133640D01*
X165554819Y-97133640D02*
X165554819Y-96514593D01*
X164554819Y-96181259D02*
X164554819Y-95514593D01*
X164554819Y-95514593D02*
X165554819Y-95943164D01*
X152929580Y-36892857D02*
X152977200Y-36940476D01*
X152977200Y-36940476D02*
X153024819Y-37083333D01*
X153024819Y-37083333D02*
X153024819Y-37178571D01*
X153024819Y-37178571D02*
X152977200Y-37321428D01*
X152977200Y-37321428D02*
X152881961Y-37416666D01*
X152881961Y-37416666D02*
X152786723Y-37464285D01*
X152786723Y-37464285D02*
X152596247Y-37511904D01*
X152596247Y-37511904D02*
X152453390Y-37511904D01*
X152453390Y-37511904D02*
X152262914Y-37464285D01*
X152262914Y-37464285D02*
X152167676Y-37416666D01*
X152167676Y-37416666D02*
X152072438Y-37321428D01*
X152072438Y-37321428D02*
X152024819Y-37178571D01*
X152024819Y-37178571D02*
X152024819Y-37083333D01*
X152024819Y-37083333D02*
X152072438Y-36940476D01*
X152072438Y-36940476D02*
X152120057Y-36892857D01*
X153024819Y-35940476D02*
X153024819Y-36511904D01*
X153024819Y-36226190D02*
X152024819Y-36226190D01*
X152024819Y-36226190D02*
X152167676Y-36321428D01*
X152167676Y-36321428D02*
X152262914Y-36416666D01*
X152262914Y-36416666D02*
X152310533Y-36511904D01*
X152453390Y-35369047D02*
X152405771Y-35464285D01*
X152405771Y-35464285D02*
X152358152Y-35511904D01*
X152358152Y-35511904D02*
X152262914Y-35559523D01*
X152262914Y-35559523D02*
X152215295Y-35559523D01*
X152215295Y-35559523D02*
X152120057Y-35511904D01*
X152120057Y-35511904D02*
X152072438Y-35464285D01*
X152072438Y-35464285D02*
X152024819Y-35369047D01*
X152024819Y-35369047D02*
X152024819Y-35178571D01*
X152024819Y-35178571D02*
X152072438Y-35083333D01*
X152072438Y-35083333D02*
X152120057Y-35035714D01*
X152120057Y-35035714D02*
X152215295Y-34988095D01*
X152215295Y-34988095D02*
X152262914Y-34988095D01*
X152262914Y-34988095D02*
X152358152Y-35035714D01*
X152358152Y-35035714D02*
X152405771Y-35083333D01*
X152405771Y-35083333D02*
X152453390Y-35178571D01*
X152453390Y-35178571D02*
X152453390Y-35369047D01*
X152453390Y-35369047D02*
X152501009Y-35464285D01*
X152501009Y-35464285D02*
X152548628Y-35511904D01*
X152548628Y-35511904D02*
X152643866Y-35559523D01*
X152643866Y-35559523D02*
X152834342Y-35559523D01*
X152834342Y-35559523D02*
X152929580Y-35511904D01*
X152929580Y-35511904D02*
X152977200Y-35464285D01*
X152977200Y-35464285D02*
X153024819Y-35369047D01*
X153024819Y-35369047D02*
X153024819Y-35178571D01*
X153024819Y-35178571D02*
X152977200Y-35083333D01*
X152977200Y-35083333D02*
X152929580Y-35035714D01*
X152929580Y-35035714D02*
X152834342Y-34988095D01*
X152834342Y-34988095D02*
X152643866Y-34988095D01*
X152643866Y-34988095D02*
X152548628Y-35035714D01*
X152548628Y-35035714D02*
X152501009Y-35083333D01*
X152501009Y-35083333D02*
X152453390Y-35178571D01*
X161419642Y-100779580D02*
X161372023Y-100827200D01*
X161372023Y-100827200D02*
X161229166Y-100874819D01*
X161229166Y-100874819D02*
X161133928Y-100874819D01*
X161133928Y-100874819D02*
X160991071Y-100827200D01*
X160991071Y-100827200D02*
X160895833Y-100731961D01*
X160895833Y-100731961D02*
X160848214Y-100636723D01*
X160848214Y-100636723D02*
X160800595Y-100446247D01*
X160800595Y-100446247D02*
X160800595Y-100303390D01*
X160800595Y-100303390D02*
X160848214Y-100112914D01*
X160848214Y-100112914D02*
X160895833Y-100017676D01*
X160895833Y-100017676D02*
X160991071Y-99922438D01*
X160991071Y-99922438D02*
X161133928Y-99874819D01*
X161133928Y-99874819D02*
X161229166Y-99874819D01*
X161229166Y-99874819D02*
X161372023Y-99922438D01*
X161372023Y-99922438D02*
X161419642Y-99970057D01*
X162276785Y-100208152D02*
X162276785Y-100874819D01*
X162038690Y-99827200D02*
X161800595Y-100541485D01*
X161800595Y-100541485D02*
X162419642Y-100541485D01*
X162705357Y-99874819D02*
X163324404Y-99874819D01*
X163324404Y-99874819D02*
X162991071Y-100255771D01*
X162991071Y-100255771D02*
X163133928Y-100255771D01*
X163133928Y-100255771D02*
X163229166Y-100303390D01*
X163229166Y-100303390D02*
X163276785Y-100351009D01*
X163276785Y-100351009D02*
X163324404Y-100446247D01*
X163324404Y-100446247D02*
X163324404Y-100684342D01*
X163324404Y-100684342D02*
X163276785Y-100779580D01*
X163276785Y-100779580D02*
X163229166Y-100827200D01*
X163229166Y-100827200D02*
X163133928Y-100874819D01*
X163133928Y-100874819D02*
X162848214Y-100874819D01*
X162848214Y-100874819D02*
X162752976Y-100827200D01*
X162752976Y-100827200D02*
X162705357Y-100779580D01*
X118588095Y-63304819D02*
X119159523Y-63304819D01*
X118873809Y-64304819D02*
X118873809Y-63304819D01*
X119492857Y-64304819D02*
X119492857Y-63304819D01*
X119492857Y-63304819D02*
X119873809Y-63304819D01*
X119873809Y-63304819D02*
X119969047Y-63352438D01*
X119969047Y-63352438D02*
X120016666Y-63400057D01*
X120016666Y-63400057D02*
X120064285Y-63495295D01*
X120064285Y-63495295D02*
X120064285Y-63638152D01*
X120064285Y-63638152D02*
X120016666Y-63733390D01*
X120016666Y-63733390D02*
X119969047Y-63781009D01*
X119969047Y-63781009D02*
X119873809Y-63828628D01*
X119873809Y-63828628D02*
X119492857Y-63828628D01*
X120397619Y-63304819D02*
X121064285Y-63304819D01*
X121064285Y-63304819D02*
X120635714Y-64304819D01*
%TO.C,R9*%
D13*
X166258750Y-52679724D02*
X166258750Y-52170276D01*
X167303750Y-52679724D02*
X167303750Y-52170276D01*
%TO.C,C37*%
X135635000Y-109313733D02*
X135635000Y-109606267D01*
X136655000Y-109313733D02*
X136655000Y-109606267D01*
%TO.C,C26*%
X144278900Y-91950867D02*
X144278900Y-91658333D01*
X145298900Y-91950867D02*
X145298900Y-91658333D01*
%TO.C,L2*%
D14*
X122075000Y-102200000D02*
X122075000Y-103430000D01*
X122075000Y-102200000D02*
X129175000Y-102200000D01*
X122075000Y-108700000D02*
X122075000Y-107470000D01*
X122075000Y-108700000D02*
X129175000Y-108700000D01*
X129175000Y-102200000D02*
X129175000Y-103430000D01*
X129175000Y-108700000D02*
X129175000Y-107470000D01*
%TO.C,R4*%
D13*
X123891098Y-58059724D02*
X123891098Y-57550276D01*
X124936098Y-58059724D02*
X124936098Y-57550276D01*
%TO.C,C7*%
X164140000Y-36976267D02*
X164140000Y-36683733D01*
X165160000Y-36976267D02*
X165160000Y-36683733D01*
%TO.C,R13*%
X158129158Y-88193619D02*
X158638606Y-88193619D01*
X158129158Y-89238619D02*
X158638606Y-89238619D01*
%TO.C,TP2*%
X149100000Y-109500000D02*
G75*
G02*
X147200000Y-109500000I-950000J0D01*
G01*
X147200000Y-109500000D02*
G75*
G02*
X149100000Y-109500000I950000J0D01*
G01*
%TO.C,C10*%
X126753598Y-68488768D02*
X126753598Y-68196234D01*
X127773598Y-68488768D02*
X127773598Y-68196234D01*
%TO.C,C1*%
X133539865Y-66879800D02*
X133247331Y-66879800D01*
X133539865Y-67899800D02*
X133247331Y-67899800D01*
%TO.C,C13*%
X159240000Y-40773733D02*
X159240000Y-41066267D01*
X160260000Y-40773733D02*
X160260000Y-41066267D01*
%TO.C,TP4*%
X135250000Y-79100000D02*
G75*
G02*
X133350000Y-79100000I-950000J0D01*
G01*
X133350000Y-79100000D02*
G75*
G02*
X135250000Y-79100000I950000J0D01*
G01*
%TO.C,C34*%
X127001100Y-92296267D02*
X127001100Y-92003733D01*
X128021100Y-92296267D02*
X128021100Y-92003733D01*
%TO.C,TP6*%
X168950000Y-46000000D02*
G75*
G02*
X167050000Y-46000000I-950000J0D01*
G01*
X167050000Y-46000000D02*
G75*
G02*
X168950000Y-46000000I950000J0D01*
G01*
%TO.C,C41*%
X132898733Y-112290000D02*
X133191267Y-112290000D01*
X132898733Y-113310000D02*
X133191267Y-113310000D01*
%TO.C,R10*%
X157926526Y-43952500D02*
X158435974Y-43952500D01*
X157926526Y-44997500D02*
X158435974Y-44997500D01*
%TO.C,C20*%
X154621250Y-53883767D02*
X154621250Y-53591233D01*
X155641250Y-53883767D02*
X155641250Y-53591233D01*
%TO.C,J2*%
D15*
X120445200Y-23112600D02*
X133754800Y-23112600D01*
X120445200Y-23407461D02*
X120445200Y-23112600D01*
X120445200Y-33908159D02*
X120445200Y-25901741D01*
X122152761Y-37387400D02*
X121308340Y-37387400D01*
X126341561Y-37387400D02*
X123707241Y-37387400D01*
X132891660Y-37387400D02*
X128048441Y-37387400D01*
X133754800Y-23112600D02*
X133754800Y-23404860D01*
X133754800Y-26864340D02*
X133754800Y-33908159D01*
%TO.C,C36*%
D13*
X125235000Y-111153733D02*
X125235000Y-111446267D01*
X126255000Y-111153733D02*
X126255000Y-111446267D01*
%TO.C,U8*%
D15*
X147962500Y-93276400D02*
X151315300Y-93276400D01*
X151315300Y-89923600D02*
X147962500Y-89923600D01*
D16*
G36*
X146502000Y-92790501D02*
G01*
X146248000Y-92790501D01*
X146248000Y-92409501D01*
X146502000Y-92409501D01*
X146502000Y-92790501D01*
G37*
%TO.C,C42*%
D13*
X154990000Y-105603733D02*
X154990000Y-105896267D01*
X156010000Y-105603733D02*
X156010000Y-105896267D01*
%TO.C,R19*%
X135390276Y-100727500D02*
X135899724Y-100727500D01*
X135390276Y-101772500D02*
X135899724Y-101772500D01*
%TO.C,C32*%
X167473882Y-95062384D02*
X167473882Y-94769850D01*
X168493882Y-95062384D02*
X168493882Y-94769850D01*
%TO.C,R6*%
X122041098Y-58059724D02*
X122041098Y-57550276D01*
X123086098Y-58059724D02*
X123086098Y-57550276D01*
%TO.C,TP17*%
X143350000Y-76600000D02*
X145750000Y-76600000D01*
X143350000Y-79000000D02*
X143350000Y-76600000D01*
X145750000Y-76600000D02*
X145750000Y-79000000D01*
X145750000Y-79000000D02*
X143350000Y-79000000D01*
%TO.C,C44*%
X139053733Y-38995000D02*
X139346267Y-38995000D01*
X139053733Y-40015000D02*
X139346267Y-40015000D01*
%TO.C,TP15*%
X143000000Y-111450000D02*
X145400000Y-111450000D01*
X143000000Y-113850000D02*
X143000000Y-111450000D01*
X145400000Y-111450000D02*
X145400000Y-113850000D01*
X145400000Y-113850000D02*
X143000000Y-113850000D01*
%TO.C,C17*%
X162871250Y-53728733D02*
X162871250Y-54021267D01*
X163891250Y-53728733D02*
X163891250Y-54021267D01*
%TO.C,C46*%
X154903730Y-69590001D02*
X155196264Y-69590001D01*
X154903730Y-70610001D02*
X155196264Y-70610001D01*
%TO.C,TP12*%
X123750000Y-69500000D02*
G75*
G02*
X121850000Y-69500000I-950000J0D01*
G01*
X121850000Y-69500000D02*
G75*
G02*
X123750000Y-69500000I950000J0D01*
G01*
%TO.C,C29*%
X144015167Y-87190000D02*
X143722633Y-87190000D01*
X144015167Y-88210000D02*
X143722633Y-88210000D01*
%TO.C,C14*%
X163473733Y-39490000D02*
X163766267Y-39490000D01*
X163473733Y-40510000D02*
X163766267Y-40510000D01*
%TO.C,C33*%
X127001100Y-88746267D02*
X127001100Y-88453733D01*
X128021100Y-88746267D02*
X128021100Y-88453733D01*
%TO.C,TP16*%
X110250000Y-112700000D02*
G75*
G02*
X108350000Y-112700000I-950000J0D01*
G01*
X108350000Y-112700000D02*
G75*
G02*
X110250000Y-112700000I950000J0D01*
G01*
%TO.C,C40*%
X144335000Y-104553733D02*
X144335000Y-104846267D01*
X145355000Y-104553733D02*
X145355000Y-104846267D01*
%TO.C,C12*%
X125653598Y-45883734D02*
X125653598Y-46176268D01*
X126673598Y-45883734D02*
X126673598Y-46176268D01*
%TO.C,TP3*%
X151300000Y-79900000D02*
G75*
G02*
X149400000Y-79900000I-950000J0D01*
G01*
X149400000Y-79900000D02*
G75*
G02*
X151300000Y-79900000I950000J0D01*
G01*
%TO.C,R11*%
X154608750Y-58054725D02*
X154608750Y-57545277D01*
X155653750Y-58054725D02*
X155653750Y-57545277D01*
%TO.C,U5*%
D15*
X160554050Y-56047800D02*
X160554050Y-56251361D01*
X160554050Y-59298639D02*
X160554050Y-59502200D01*
X160554050Y-59502200D02*
X164008450Y-59502200D01*
X164008450Y-56047800D02*
X160554050Y-56047800D01*
X164008450Y-56251361D02*
X164008450Y-56047800D01*
X164008450Y-59502200D02*
X164008450Y-59298639D01*
%TO.C,R17*%
D13*
X138672500Y-109714724D02*
X138672500Y-109205276D01*
X139717500Y-109714724D02*
X139717500Y-109205276D01*
%TO.C,U14*%
D17*
X132550000Y-103150000D02*
X133275000Y-103150000D01*
X132550000Y-103330000D02*
X132550000Y-103150000D01*
X132550000Y-105950000D02*
X132550000Y-105800000D01*
X132550000Y-105950000D02*
X132725001Y-105950000D01*
X135174999Y-103150000D02*
X135350000Y-103150000D01*
X135200000Y-105950000D02*
X135350000Y-105950000D01*
X135350000Y-103300000D02*
X135350000Y-103150000D01*
X135350000Y-105950000D02*
X135350000Y-105774999D01*
%TO.C,TP11*%
D13*
X124350000Y-74800000D02*
G75*
G02*
X122450000Y-74800000I-950000J0D01*
G01*
X122450000Y-74800000D02*
G75*
G02*
X124350000Y-74800000I950000J0D01*
G01*
%TO.C,C35*%
X128335000Y-111153733D02*
X128335000Y-111446267D01*
X129355000Y-111153733D02*
X129355000Y-111446267D01*
%TO.C,U10*%
D15*
X154634697Y-68876401D02*
X157987497Y-68876401D01*
X157987497Y-65523601D02*
X154634697Y-65523601D01*
D16*
G36*
X159747196Y-66390500D02*
G01*
X159493196Y-66390500D01*
X159493196Y-66009500D01*
X159747196Y-66009500D01*
X159747196Y-66390500D01*
G37*
%TO.C,U15*%
D13*
X157740000Y-106200000D02*
X157740000Y-109960000D01*
X157740000Y-109960000D02*
X159000000Y-109960000D01*
X164560000Y-106200000D02*
X164560000Y-109960000D01*
X164560000Y-109960000D02*
X163300000Y-109960000D01*
X164460000Y-104920000D02*
X164790000Y-104680000D01*
X164790000Y-105160000D01*
X164460000Y-104920000D01*
G36*
X164790000Y-105160000D02*
G01*
X164460000Y-104920000D01*
X164790000Y-104680000D01*
X164790000Y-105160000D01*
G37*
%TO.C,TP10*%
X121850000Y-46900000D02*
G75*
G02*
X119950000Y-46900000I-950000J0D01*
G01*
X119950000Y-46900000D02*
G75*
G02*
X121850000Y-46900000I950000J0D01*
G01*
%TO.C,BT1*%
D14*
X107120000Y-117210750D02*
X184080000Y-117210750D01*
X107120000Y-138190750D02*
X107120000Y-117210750D01*
X108692242Y-115759475D02*
X110692242Y-115759475D01*
X109692242Y-114759475D02*
X109692242Y-116759475D01*
X181700000Y-115700750D02*
X183700000Y-115700750D01*
X184080000Y-117210750D02*
X184080000Y-138190750D01*
X184080000Y-138190750D02*
X107120000Y-138190750D01*
%TO.C,TP13*%
D13*
X123950000Y-78900000D02*
G75*
G02*
X122050000Y-78900000I-950000J0D01*
G01*
X122050000Y-78900000D02*
G75*
G02*
X123950000Y-78900000I950000J0D01*
G01*
%TO.C,R3*%
X133091098Y-49487777D02*
X133091098Y-49997225D01*
X134136098Y-49487777D02*
X134136098Y-49997225D01*
%TO.C,C38*%
X138535000Y-104553733D02*
X138535000Y-104846267D01*
X139555000Y-104553733D02*
X139555000Y-104846267D01*
%TO.C,C16*%
X160621250Y-54008767D02*
X160621250Y-53716233D01*
X161641250Y-54008767D02*
X161641250Y-53716233D01*
%TO.C,U13*%
X112465000Y-26115000D02*
X113845000Y-26115000D01*
X112465000Y-27495000D02*
X112465000Y-26115000D01*
X112465000Y-28765000D02*
X112465000Y-115235000D01*
X112465000Y-28765000D02*
X115115000Y-28765000D01*
X112465000Y-115235000D02*
X117765000Y-115235000D01*
X115115000Y-26115000D02*
X117765000Y-26115000D01*
X115115000Y-28765000D02*
X115115000Y-26115000D01*
X117765000Y-26115000D02*
X117765000Y-115235000D01*
X173425000Y-26115000D02*
X174805000Y-26115000D01*
X173425000Y-27495000D02*
X173425000Y-26115000D01*
X173425000Y-28765000D02*
X173425000Y-115235000D01*
X173425000Y-28765000D02*
X176075000Y-28765000D01*
X173425000Y-115235000D02*
X178725000Y-115235000D01*
X176075000Y-26115000D02*
X178725000Y-26115000D01*
X176075000Y-28765000D02*
X176075000Y-26115000D01*
X178725000Y-26115000D02*
X178725000Y-115235000D01*
%TO.C,R5*%
X158954724Y-37227500D02*
X158445276Y-37227500D01*
X158954724Y-38272500D02*
X158445276Y-38272500D01*
%TO.C,TP5*%
X167400000Y-106450000D02*
X169800000Y-106450000D01*
X167400000Y-108850000D02*
X167400000Y-106450000D01*
X169800000Y-106450000D02*
X169800000Y-108850000D01*
X169800000Y-108850000D02*
X167400000Y-108850000D01*
%TO.C,R14*%
X162538606Y-88143617D02*
X162029158Y-88143617D01*
X162538606Y-89188617D02*
X162029158Y-89188617D01*
%TO.C,TP9*%
X131000000Y-39900000D02*
G75*
G02*
X129100000Y-39900000I-950000J0D01*
G01*
X129100000Y-39900000D02*
G75*
G02*
X131000000Y-39900000I950000J0D01*
G01*
%TO.C,C39*%
X141435000Y-104553733D02*
X141435000Y-104846267D01*
X142455000Y-104553733D02*
X142455000Y-104846267D01*
%TO.C,C6*%
X133803598Y-57963767D02*
X133803598Y-57671233D01*
X134823598Y-57963767D02*
X134823598Y-57671233D01*
%TO.C,C30*%
X157540000Y-93450051D02*
X157540000Y-93742585D01*
X158560000Y-93450051D02*
X158560000Y-93742585D01*
%TO.C,C28*%
X166530149Y-91706117D02*
X166237615Y-91706117D01*
X166530149Y-92726117D02*
X166237615Y-92726117D01*
%TO.C,R8*%
X163337050Y-48704725D02*
X163337050Y-48195277D01*
X164382050Y-48704725D02*
X164382050Y-48195277D01*
%TO.C,J1*%
D14*
X153100000Y-33900000D02*
X153100000Y-22900000D01*
X165100000Y-22900000D02*
X153100000Y-22900000D01*
X165100000Y-33900000D02*
X153100000Y-33900000D01*
X165100000Y-33900000D02*
X165100000Y-22900000D01*
D18*
X159200000Y-34600000D02*
G75*
G02*
X159000000Y-34600000I-100000J0D01*
G01*
X159000000Y-34600000D02*
G75*
G02*
X159200000Y-34600000I100000J0D01*
G01*
%TO.C,R12*%
D13*
X148042224Y-87177500D02*
X147532776Y-87177500D01*
X148042224Y-88222500D02*
X147532776Y-88222500D01*
%TO.C,R2*%
X122991098Y-64659724D02*
X122991098Y-64150276D01*
X124036098Y-64659724D02*
X124036098Y-64150276D01*
%TO.C,R18*%
X138020276Y-112277500D02*
X138529724Y-112277500D01*
X138020276Y-113322500D02*
X138529724Y-113322500D01*
%TO.C,U9*%
D15*
X160455019Y-91212318D02*
X160455019Y-91818377D01*
X160455019Y-94263859D02*
X160455019Y-94869918D01*
X160455019Y-94869918D02*
X161060890Y-94869918D01*
X161060890Y-91212318D02*
X160455019Y-91212318D01*
X163506748Y-94869918D02*
X164112619Y-94869918D01*
X164112619Y-91212318D02*
X163506748Y-91212318D01*
X164112619Y-91818377D02*
X164112619Y-91212318D01*
X164112619Y-94869918D02*
X164112619Y-94263859D01*
D16*
G36*
X160129820Y-92981619D02*
G01*
X159875820Y-92981619D01*
X159875820Y-92600618D01*
X160129820Y-92600618D01*
X160129820Y-92981619D01*
G37*
%TO.C,C4*%
D13*
X125703598Y-53346234D02*
X125703598Y-53638768D01*
X126723598Y-53346234D02*
X126723598Y-53638768D01*
%TO.C,C48*%
X109740000Y-32053733D02*
X109740000Y-32346267D01*
X110760000Y-32053733D02*
X110760000Y-32346267D01*
%TO.C,D1*%
X138965000Y-100290000D02*
X138965000Y-102210000D01*
X138965000Y-102210000D02*
X141825000Y-102210000D01*
X141825000Y-100290000D02*
X138965000Y-100290000D01*
%TO.C,C3*%
X128003598Y-53638768D02*
X128003598Y-53346234D01*
X129023598Y-53638768D02*
X129023598Y-53346234D01*
%TO.C,C22*%
X125903733Y-38690000D02*
X126196267Y-38690000D01*
X125903733Y-39710000D02*
X126196267Y-39710000D01*
%TO.C,U2*%
D15*
X131563398Y-70279650D02*
X131563398Y-72286250D01*
X132851137Y-72286250D02*
X133577659Y-72286250D01*
X134865398Y-72286250D02*
X134865398Y-70279650D01*
%TO.C,C19*%
D13*
X166271250Y-56171267D02*
X166271250Y-55878733D01*
X167291250Y-56171267D02*
X167291250Y-55878733D01*
%TO.C,TP8*%
X120500000Y-69150000D02*
G75*
G02*
X118600000Y-69150000I-950000J0D01*
G01*
X118600000Y-69150000D02*
G75*
G02*
X120500000Y-69150000I950000J0D01*
G01*
%TO.C,TP14*%
X182200000Y-71950000D02*
G75*
G02*
X180300000Y-71950000I-950000J0D01*
G01*
X180300000Y-71950000D02*
G75*
G02*
X182200000Y-71950000I950000J0D01*
G01*
%TO.C,C2*%
X133803598Y-62908733D02*
X133803598Y-63201267D01*
X134823598Y-62908733D02*
X134823598Y-63201267D01*
%TO.C,C47*%
X166503730Y-69590001D02*
X166796264Y-69590001D01*
X166503730Y-70610001D02*
X166796264Y-70610001D01*
%TO.C,R1*%
X162177500Y-36575276D02*
X162177500Y-37084724D01*
X163222500Y-36575276D02*
X163222500Y-37084724D01*
%TO.C,U6*%
D18*
X160750000Y-36150000D02*
G75*
G02*
X160550000Y-36150000I-100000J0D01*
G01*
X160550000Y-36150000D02*
G75*
G02*
X160750000Y-36150000I100000J0D01*
G01*
%TO.C,C23*%
D13*
X168549550Y-60046268D02*
X168549550Y-59753734D01*
X169569550Y-60046268D02*
X169569550Y-59753734D01*
%TO.C,U11*%
D15*
X166034697Y-68876401D02*
X169387497Y-68876401D01*
X169387497Y-65523601D02*
X166034697Y-65523601D01*
D16*
G36*
X171147196Y-66390500D02*
G01*
X170893196Y-66390500D01*
X170893196Y-66009500D01*
X171147196Y-66009500D01*
X171147196Y-66390500D01*
G37*
%TO.C,R7*%
D13*
X155277500Y-35995276D02*
X155277500Y-36504724D01*
X156322500Y-35995276D02*
X156322500Y-36504724D01*
%TO.C,U1*%
D10*
X128334578Y-60352500D02*
X129692620Y-60352500D01*
X128334578Y-65257500D02*
X128334578Y-60352500D01*
X128334578Y-65257500D02*
X129692620Y-65257500D01*
X129692620Y-65257500D02*
X129692620Y-60352500D01*
D19*
X124940422Y-60900000D02*
G75*
G02*
X124690420Y-60900000I-125001J0D01*
G01*
X124690420Y-60900000D02*
G75*
G02*
X124940422Y-60900000I125001J0D01*
G01*
%TO.C,R20*%
D13*
X133299724Y-109857500D02*
X132790276Y-109857500D01*
X133299724Y-110902500D02*
X132790276Y-110902500D01*
%TO.C,TP1*%
X149250000Y-41300000D02*
G75*
G02*
X147350000Y-41300000I-950000J0D01*
G01*
X147350000Y-41300000D02*
G75*
G02*
X149250000Y-41300000I950000J0D01*
G01*
%TO.C,C9*%
X129403598Y-68538768D02*
X129403598Y-68246234D01*
X130423598Y-68538768D02*
X130423598Y-68246234D01*
%TO.C,R16*%
X166238606Y-88143619D02*
X165729158Y-88143619D01*
X166238606Y-89188619D02*
X165729158Y-89188619D01*
%TO.C,C5*%
X131453598Y-57658733D02*
X131453598Y-57951267D01*
X132473598Y-57658733D02*
X132473598Y-57951267D01*
%TO.C,R15*%
X125088600Y-90654724D02*
X125088600Y-90145276D01*
X126133600Y-90654724D02*
X126133600Y-90145276D01*
%TO.C,U7*%
D15*
X143234697Y-68726401D02*
X146587497Y-68726401D01*
X146587497Y-65373601D02*
X143234697Y-65373601D01*
D16*
G36*
X148347196Y-66240500D02*
G01*
X148093196Y-66240500D01*
X148093196Y-65859500D01*
X148347196Y-65859500D01*
X148347196Y-66240500D01*
G37*
%TO.C,U12*%
D15*
X131173600Y-91547100D02*
X134526400Y-91547100D01*
X134526400Y-87152900D02*
X131173600Y-87152900D01*
D16*
G36*
X129713100Y-89865498D02*
G01*
X129459100Y-89865498D01*
X129459100Y-89484498D01*
X129713100Y-89484498D01*
X129713100Y-89865498D01*
G37*
%TO.C,C21*%
D13*
X156721250Y-53591233D02*
X156721250Y-53883767D01*
X157741250Y-53591233D02*
X157741250Y-53883767D01*
%TO.C,C31*%
X139051100Y-88478433D02*
X139051100Y-88770967D01*
X140071100Y-88478433D02*
X140071100Y-88770967D01*
%TO.C,C25*%
X153628900Y-91950867D02*
X153628900Y-91658333D01*
X154648900Y-91950867D02*
X154648900Y-91658333D01*
%TO.C,C45*%
X143403730Y-69590001D02*
X143696264Y-69590001D01*
X143403730Y-70610001D02*
X143696264Y-70610001D01*
%TO.C,C24*%
X166271250Y-59753734D02*
X166271250Y-60046268D01*
X167291250Y-59753734D02*
X167291250Y-60046268D01*
%TO.C,C11*%
X127953598Y-46176268D02*
X127953598Y-45883734D01*
X128973598Y-46176268D02*
X128973598Y-45883734D01*
%TO.C,C15*%
X156796267Y-39490000D02*
X156503733Y-39490000D01*
X156796267Y-40510000D02*
X156503733Y-40510000D01*
%TO.C,L1*%
D14*
X162433882Y-96016117D02*
X162133882Y-96016117D01*
X162433882Y-98216117D02*
X162133882Y-98216117D01*
%TO.C,C8*%
D13*
X121703598Y-53408733D02*
X121703598Y-53701267D01*
X122723598Y-53408733D02*
X122723598Y-53701267D01*
%TO.C,U3*%
D15*
X125608098Y-48077800D02*
X125608098Y-48281361D01*
X125608098Y-51328639D02*
X125608098Y-51532200D01*
X125608098Y-51532200D02*
X129062498Y-51532200D01*
X129062498Y-48077800D02*
X125608098Y-48077800D01*
X129062498Y-48281361D02*
X129062498Y-48077800D01*
X129062498Y-51532200D02*
X129062498Y-51328639D01*
%TO.C,J3*%
D13*
X137050000Y-37260000D02*
X137050000Y-35990000D01*
X137890000Y-32372642D02*
X137890000Y-32060000D01*
X137890000Y-34830000D02*
X137890000Y-34527358D01*
X138320000Y-37260000D02*
X137050000Y-37260000D01*
X138750000Y-32372642D02*
X138750000Y-32060000D01*
X138750000Y-34830000D02*
X138750000Y-34527358D01*
X139590000Y-32060000D02*
X139590000Y-29300000D01*
X140430000Y-23300000D02*
X141290000Y-23300000D01*
X140430000Y-29300000D02*
X140430000Y-23300000D01*
X140430000Y-32372642D02*
X140430000Y-32060000D01*
X140430000Y-34912642D02*
X140430000Y-34527358D01*
X141290000Y-23300000D02*
X141290000Y-29300000D01*
X141290000Y-32372642D02*
X141290000Y-32060000D01*
X141290000Y-34912642D02*
X141290000Y-34527358D01*
X142130000Y-32060000D02*
X142130000Y-29300000D01*
X142970000Y-23300000D02*
X143830000Y-23300000D01*
X142970000Y-29300000D02*
X142970000Y-23300000D01*
X142970000Y-32372642D02*
X142970000Y-32060000D01*
X142970000Y-34912642D02*
X142970000Y-34527358D01*
X143830000Y-23300000D02*
X143830000Y-29300000D01*
X143830000Y-32372642D02*
X143830000Y-32060000D01*
X143830000Y-34912642D02*
X143830000Y-34527358D01*
X144670000Y-32060000D02*
X144670000Y-29300000D01*
X145510000Y-23300000D02*
X146370000Y-23300000D01*
X145510000Y-29300000D02*
X145510000Y-23300000D01*
X145510000Y-32372642D02*
X145510000Y-32060000D01*
X145510000Y-34912642D02*
X145510000Y-34527358D01*
X146370000Y-23300000D02*
X146370000Y-29300000D01*
X146370000Y-32372642D02*
X146370000Y-32060000D01*
X146370000Y-34912642D02*
X146370000Y-34527358D01*
X147210000Y-32060000D02*
X147210000Y-29300000D01*
X148050000Y-23300000D02*
X148910000Y-23300000D01*
X148050000Y-29300000D02*
X148050000Y-23300000D01*
X148050000Y-32372642D02*
X148050000Y-32060000D01*
X148050000Y-34912642D02*
X148050000Y-34527358D01*
X148910000Y-23300000D02*
X148910000Y-29300000D01*
X148910000Y-32372642D02*
X148910000Y-32060000D01*
X148910000Y-34912642D02*
X148910000Y-34527358D01*
X136940000Y-29300000D02*
X149860000Y-29300000D01*
X149860000Y-32060000D01*
X136940000Y-32060000D01*
X136940000Y-29300000D01*
X137890000Y-23300000D02*
X138750000Y-23300000D01*
X138750000Y-29300000D01*
X137890000Y-29300000D01*
X137890000Y-23300000D01*
G36*
X137890000Y-23300000D02*
G01*
X138750000Y-23300000D01*
X138750000Y-29300000D01*
X137890000Y-29300000D01*
X137890000Y-23300000D01*
G37*
%TO.C,U4*%
D15*
X156060350Y-51353900D02*
X160302150Y-51353900D01*
X160302150Y-46096100D02*
X156060350Y-46096100D01*
%TO.C,C27*%
D13*
X165823882Y-96677850D02*
X165823882Y-96970384D01*
X166843882Y-96677850D02*
X166843882Y-96970384D01*
%TO.C,C18*%
X153490000Y-36396267D02*
X153490000Y-36103733D01*
X154510000Y-36396267D02*
X154510000Y-36103733D01*
%TO.C,C43*%
X161916233Y-101340000D02*
X162208767Y-101340000D01*
X161916233Y-102360000D02*
X162208767Y-102360000D01*
%TO.C,TP7*%
X121450000Y-65800000D02*
G75*
G02*
X119550000Y-65800000I-950000J0D01*
G01*
X119550000Y-65800000D02*
G75*
G02*
X121450000Y-65800000I950000J0D01*
G01*
%TD*%
M02*
