%TF.GenerationSoftware,KiCad,Pcbnew,10.0.3*%
%TF.CreationDate,2026-08-04T14:19:25+02:00*%
%TF.ProjectId,Uklad_wzmacniaczy,556b6c61-645f-4777-9a6d-61636e696163,rev?*%
%TF.SameCoordinates,Original*%
%TF.FileFunction,Soldermask,Bot*%
%TF.FilePolarity,Negative*%
%FSLAX46Y46*%
G04 Gerber Fmt 4.6, Leading zero omitted, Abs format (unit mm)*
G04 Created by KiCad (PCBNEW 10.0.3) date 2026-08-04 14:19:25*
%MOMM*%
%LPD*%
G01*
G04 APERTURE LIST*
%ADD10C,3.200000*%
%ADD11O,2.274000X4.344000*%
%ADD12R,1.700000X1.700000*%
%ADD13C,1.700000*%
%ADD14C,1.200000*%
%ADD15O,2.820000X1.512000*%
%ADD16O,1.512000X2.820000*%
%ADD17C,0.508000*%
G04 APERTURE END LIST*
D10*
%TO.C,BT1*%
X117795000Y-127700750D03*
X173410000Y-127700750D03*
D11*
X109300000Y-127700750D03*
X182200000Y-127700750D03*
%TD*%
D12*
%TO.C,U13*%
X113845000Y-27495000D03*
D13*
X116385000Y-27495000D03*
X113845000Y-30035000D03*
X116385000Y-30035000D03*
X113845000Y-32575000D03*
X116385000Y-32575000D03*
X113845000Y-35115000D03*
X116385000Y-35115000D03*
X113845000Y-37655000D03*
X116385000Y-37655000D03*
X113845000Y-40195000D03*
X116385000Y-40195000D03*
X113845000Y-42735000D03*
X116385000Y-42735000D03*
X113845000Y-45275000D03*
X116385000Y-45275000D03*
X113845000Y-47815000D03*
X116385000Y-47815000D03*
X113845000Y-50355000D03*
X116385000Y-50355000D03*
X113845000Y-52895000D03*
X116385000Y-52895000D03*
X113845000Y-55435000D03*
X116385000Y-55435000D03*
X113845000Y-57975000D03*
X116385000Y-57975000D03*
X113845000Y-60515000D03*
X116385000Y-60515000D03*
X113845000Y-63055000D03*
X116385000Y-63055000D03*
X113845000Y-65595000D03*
X116385000Y-65595000D03*
X113845000Y-68135000D03*
X116385000Y-68135000D03*
X113845000Y-70675000D03*
X116385000Y-70675000D03*
X113845000Y-73215000D03*
X116385000Y-73215000D03*
X113845000Y-75755000D03*
X116385000Y-75755000D03*
X113845000Y-78295000D03*
X116385000Y-78295000D03*
X113845000Y-80835000D03*
X116385000Y-80835000D03*
X113845000Y-83375000D03*
X116385000Y-83375000D03*
X113845000Y-85915000D03*
X116385000Y-85915000D03*
X113845000Y-88455000D03*
X116385000Y-88455000D03*
X113845000Y-90995000D03*
X116385000Y-90995000D03*
X113845000Y-93535000D03*
X116385000Y-93535000D03*
X113845000Y-96075000D03*
X116385000Y-96075000D03*
X113845000Y-98615000D03*
X116385000Y-98615000D03*
X113845000Y-101155000D03*
X116385000Y-101155000D03*
X113845000Y-103695000D03*
X116385000Y-103695000D03*
X113845000Y-106235000D03*
X116385000Y-106235000D03*
X113845000Y-108775000D03*
X116385000Y-108775000D03*
X113845000Y-111315000D03*
X116385000Y-111315000D03*
D12*
X113845000Y-113855000D03*
D13*
X116385000Y-113855000D03*
D12*
X174805000Y-27495000D03*
D13*
X177345000Y-27495000D03*
X174805000Y-30035000D03*
X177345000Y-30035000D03*
X174805000Y-32575000D03*
X177345000Y-32575000D03*
X174805000Y-35115000D03*
X177345000Y-35115000D03*
X174805000Y-37655000D03*
X177345000Y-37655000D03*
X174805000Y-40195000D03*
X177345000Y-40195000D03*
X174805000Y-42735000D03*
X177345000Y-42735000D03*
X174805000Y-45275000D03*
X177345000Y-45275000D03*
X174805000Y-47815000D03*
X177345000Y-47815000D03*
X174805000Y-50355000D03*
X177345000Y-50355000D03*
X174805000Y-52895000D03*
X177345000Y-52895000D03*
X174805000Y-55435000D03*
X177345000Y-55435000D03*
X174805000Y-57975000D03*
X177345000Y-57975000D03*
X174805000Y-60515000D03*
X177345000Y-60515000D03*
X174805000Y-63055000D03*
X177345000Y-63055000D03*
X174805000Y-65595000D03*
X177345000Y-65595000D03*
X174805000Y-68135000D03*
X177345000Y-68135000D03*
X174805000Y-70675000D03*
X177345000Y-70675000D03*
X174805000Y-73215000D03*
X177345000Y-73215000D03*
X174805000Y-75755000D03*
X177345000Y-75755000D03*
X174805000Y-78295000D03*
X177345000Y-78295000D03*
X174805000Y-80835000D03*
X177345000Y-80835000D03*
X174805000Y-83375000D03*
X177345000Y-83375000D03*
X174805000Y-85915000D03*
X177345000Y-85915000D03*
X174805000Y-88455000D03*
X177345000Y-88455000D03*
X174805000Y-90995000D03*
X177345000Y-90995000D03*
X174805000Y-93535000D03*
X177345000Y-93535000D03*
X174805000Y-96075000D03*
X177345000Y-96075000D03*
X174805000Y-98615000D03*
X177345000Y-98615000D03*
X174805000Y-101155000D03*
X177345000Y-101155000D03*
X174805000Y-103695000D03*
X177345000Y-103695000D03*
X174805000Y-106235000D03*
X177345000Y-106235000D03*
X174805000Y-108775000D03*
X177345000Y-108775000D03*
X174805000Y-111315000D03*
X177345000Y-111315000D03*
D12*
X174805000Y-113855000D03*
D13*
X177345000Y-113855000D03*
%TD*%
D14*
%TO.C,J1*%
X164100000Y-26400000D03*
X164100000Y-23900000D03*
X159100000Y-31400000D03*
X154100000Y-26400000D03*
X154100000Y-23900000D03*
D15*
X159100000Y-26400000D03*
D16*
X154100000Y-31400000D03*
X164100000Y-31400000D03*
%TD*%
D17*
%TO.C,U9*%
X162677519Y-93434818D03*
X162677519Y-92647418D03*
X161890119Y-93434818D03*
X161890119Y-92647418D03*
%TD*%
D12*
%TO.C,J3*%
X138320000Y-35990000D03*
D13*
X138320000Y-33450000D03*
X140860000Y-35990000D03*
X140860000Y-33450000D03*
X143400000Y-35990000D03*
X143400000Y-33450000D03*
X145940000Y-35990000D03*
X145940000Y-33450000D03*
X148480000Y-35990000D03*
X148480000Y-33450000D03*
%TD*%
M02*
