%TF.GenerationSoftware,KiCad,Pcbnew,10.0.3*%
%TF.CreationDate,2026-08-04T14:19:25+02:00*%
%TF.ProjectId,Uklad_wzmacniaczy,556b6c61-645f-4777-9a6d-61636e696163,rev?*%
%TF.SameCoordinates,Original*%
%TF.FileFunction,Paste,Top*%
%TF.FilePolarity,Positive*%
%FSLAX46Y46*%
G04 Gerber Fmt 4.6, Leading zero omitted, Abs format (unit mm)*
G04 Created by KiCad (PCBNEW 10.0.3) date 2026-08-04 14:19:25*
%MOMM*%
%LPD*%
G01*
G04 APERTURE LIST*
G04 Aperture macros list*
%AMRoundRect*
0 Rectangle with rounded corners*
0 $1 Rounding radius*
0 $2 $3 $4 $5 $6 $7 $8 $9 X,Y pos of 4 corners*
0 Add a 4 corners polygon primitive as box body*
4,1,4,$2,$3,$4,$5,$6,$7,$8,$9,$2,$3,0*
0 Add four circle primitives for the rounded corners*
1,1,$1+$1,$2,$3*
1,1,$1+$1,$4,$5*
1,1,$1+$1,$6,$7*
1,1,$1+$1,$8,$9*
0 Add four rect primitives between the rounded corners*
20,1,$1+$1,$2,$3,$4,$5,0*
20,1,$1+$1,$4,$5,$6,$7,0*
20,1,$1+$1,$6,$7,$8,$9,0*
20,1,$1+$1,$8,$9,$2,$3,0*%
G04 Aperture macros list end*
%ADD10C,0.000000*%
%ADD11RoundRect,0.237500X0.237500X-0.250000X0.237500X0.250000X-0.237500X0.250000X-0.237500X-0.250000X0*%
%ADD12RoundRect,0.237500X-0.237500X0.300000X-0.237500X-0.300000X0.237500X-0.300000X0.237500X0.300000X0*%
%ADD13RoundRect,0.237500X0.237500X-0.300000X0.237500X0.300000X-0.237500X0.300000X-0.237500X-0.300000X0*%
%ADD14R,1.850000X3.400000*%
%ADD15RoundRect,0.237500X-0.250000X-0.237500X0.250000X-0.237500X0.250000X0.237500X-0.250000X0.237500X0*%
%ADD16RoundRect,0.237500X0.300000X0.237500X-0.300000X0.237500X-0.300000X-0.237500X0.300000X-0.237500X0*%
%ADD17RoundRect,0.237500X-0.300000X-0.237500X0.300000X-0.237500X0.300000X0.237500X-0.300000X0.237500X0*%
%ADD18R,0.889000X0.939800*%
%ADD19R,1.041400X0.787400*%
%ADD20R,1.143000X1.828800*%
%ADD21R,0.863600X2.794000*%
%ADD22R,0.711200X3.327400*%
%ADD23R,0.711200X1.092200*%
%ADD24R,1.333500X0.279400*%
%ADD25R,1.778000X1.981200*%
%ADD26R,1.524000X0.431800*%
%ADD27R,0.599999X0.249999*%
%ADD28R,0.249999X0.599999*%
%ADD29R,1.512799X0.330200*%
%ADD30RoundRect,0.375000X-0.375000X0.625000X-0.375000X-0.625000X0.375000X-0.625000X0.375000X0.625000X0*%
%ADD31RoundRect,0.500000X-1.400000X0.500000X-1.400000X-0.500000X1.400000X-0.500000X1.400000X0.500000X0*%
%ADD32RoundRect,0.237500X-0.237500X0.250000X-0.237500X-0.250000X0.237500X-0.250000X0.237500X0.250000X0*%
%ADD33RoundRect,0.237500X0.250000X0.237500X-0.250000X0.237500X-0.250000X-0.237500X0.250000X-0.237500X0*%
%ADD34RoundRect,0.250000X-0.325000X-0.450000X0.325000X-0.450000X0.325000X0.450000X-0.325000X0.450000X0*%
%ADD35R,0.508000X1.003300*%
%ADD36R,0.660000X0.310000*%
%ADD37R,2.469157X0.622132*%
%ADD38R,1.397000X0.431800*%
%ADD39R,1.240000X2.220000*%
%ADD40R,1.460500X0.558800*%
G04 APERTURE END LIST*
D10*
%TO.C,U14*%
G36*
X133449998Y-103929999D02*
G01*
X132500000Y-103929999D01*
X132500000Y-103629999D01*
X133449998Y-103629999D01*
X133449998Y-103929999D01*
G37*
G36*
X133239999Y-104530000D02*
G01*
X132500000Y-104530000D01*
X132500000Y-104230001D01*
X133239999Y-104230001D01*
X133239999Y-104530000D01*
G37*
G36*
X134436999Y-104680000D02*
G01*
X133462000Y-104680000D01*
X133462000Y-104230001D01*
X134436999Y-104230001D01*
X134436999Y-104680000D01*
G37*
G36*
X134599999Y-103929999D02*
G01*
X133950000Y-103929999D01*
X133950000Y-103629999D01*
X134599999Y-103629999D01*
X134599999Y-103929999D01*
G37*
G36*
X135400000Y-103930001D02*
G01*
X134800001Y-103930001D01*
X134800001Y-103630002D01*
X135400000Y-103630002D01*
X135400000Y-103930001D01*
G37*
G36*
X135400000Y-104530000D02*
G01*
X134660001Y-104530000D01*
X134660001Y-104230001D01*
X135400000Y-104230001D01*
X135400000Y-104530000D01*
G37*
%TO.C,U9*%
G36*
X161208820Y-92406118D02*
G01*
X160408819Y-92406118D01*
X160408819Y-92176118D01*
X161208820Y-92176118D01*
X161208820Y-92406118D01*
G37*
G36*
X161208820Y-92906117D02*
G01*
X160408819Y-92906117D01*
X160408819Y-92676117D01*
X161208820Y-92676117D01*
X161208820Y-92906117D01*
G37*
G36*
X161208820Y-93406119D02*
G01*
X160408819Y-93406119D01*
X160408819Y-93176119D01*
X161208820Y-93176119D01*
X161208820Y-93406119D01*
G37*
G36*
X161208820Y-93906118D02*
G01*
X160408819Y-93906118D01*
X160408819Y-93676118D01*
X161208820Y-93676118D01*
X161208820Y-93906118D01*
G37*
G36*
X161648631Y-91966119D02*
G01*
X161418629Y-91966119D01*
X161418629Y-91166118D01*
X161648631Y-91166118D01*
X161648631Y-91966119D01*
G37*
G36*
X161648631Y-94916118D02*
G01*
X161418629Y-94916118D01*
X161418629Y-94116117D01*
X161648631Y-94116117D01*
X161648631Y-94916118D01*
G37*
G36*
X162148757Y-91966119D02*
G01*
X161918755Y-91966119D01*
X161918755Y-91166118D01*
X162148757Y-91166118D01*
X162148757Y-91966119D01*
G37*
G36*
X162148757Y-94916118D02*
G01*
X161918755Y-94916118D01*
X161918755Y-94116117D01*
X162148757Y-94116117D01*
X162148757Y-94916118D01*
G37*
G36*
X162648883Y-91966119D02*
G01*
X162418881Y-91966119D01*
X162418881Y-91166118D01*
X162648883Y-91166118D01*
X162648883Y-91966119D01*
G37*
G36*
X162648883Y-94916118D02*
G01*
X162418881Y-94916118D01*
X162418881Y-94116117D01*
X162648883Y-94116117D01*
X162648883Y-94916118D01*
G37*
G36*
X163149009Y-91966119D02*
G01*
X162919007Y-91966119D01*
X162919007Y-91166118D01*
X163149009Y-91166118D01*
X163149009Y-91966119D01*
G37*
G36*
X163149009Y-94916118D02*
G01*
X162919007Y-94916118D01*
X162919007Y-94116117D01*
X163149009Y-94116117D01*
X163149009Y-94916118D01*
G37*
G36*
X164158819Y-92406118D02*
G01*
X163358818Y-92406118D01*
X163358818Y-92176118D01*
X164158819Y-92176118D01*
X164158819Y-92406118D01*
G37*
G36*
X164158819Y-92906117D02*
G01*
X163358818Y-92906117D01*
X163358818Y-92676117D01*
X164158819Y-92676117D01*
X164158819Y-92906117D01*
G37*
G36*
X164158819Y-93406119D02*
G01*
X163358818Y-93406119D01*
X163358818Y-93176119D01*
X164158819Y-93176119D01*
X164158819Y-93406119D01*
G37*
G36*
X164158819Y-93906118D02*
G01*
X163358818Y-93906118D01*
X163358818Y-93676118D01*
X164158819Y-93676118D01*
X164158819Y-93906118D01*
G37*
G36*
X161790119Y-92405997D02*
G01*
X161648698Y-92547418D01*
X161457049Y-92547418D01*
X161457049Y-92214348D01*
X161790119Y-92214348D01*
X161790119Y-92405997D01*
G37*
G36*
X161790119Y-93676239D02*
G01*
X161790119Y-93867888D01*
X161457049Y-93867888D01*
X161457049Y-93534818D01*
X161648698Y-93534818D01*
X161790119Y-93676239D01*
G37*
G36*
X163110589Y-92547418D02*
G01*
X162918940Y-92547418D01*
X162777519Y-92405997D01*
X162777519Y-92214348D01*
X163110589Y-92214348D01*
X163110589Y-92547418D01*
G37*
G36*
X163110589Y-93867888D02*
G01*
X162777519Y-93867888D01*
X162777519Y-93676239D01*
X162918940Y-93534818D01*
X163110589Y-93534818D01*
X163110589Y-93867888D01*
G37*
G36*
X161790119Y-92888839D02*
G01*
X161790119Y-93193397D01*
X161648698Y-93334818D01*
X161457049Y-93334818D01*
X161457049Y-92747418D01*
X161648698Y-92747418D01*
X161790119Y-92888839D01*
G37*
G36*
X162577519Y-92405997D02*
G01*
X162436098Y-92547418D01*
X162131540Y-92547418D01*
X161990119Y-92405997D01*
X161990119Y-92214348D01*
X162577519Y-92214348D01*
X162577519Y-92405997D01*
G37*
G36*
X162577519Y-93676239D02*
G01*
X162577519Y-93867888D01*
X161990119Y-93867888D01*
X161990119Y-93676239D01*
X162131540Y-93534818D01*
X162436098Y-93534818D01*
X162577519Y-93676239D01*
G37*
G36*
X163110589Y-93334818D02*
G01*
X162918940Y-93334818D01*
X162777519Y-93193397D01*
X162777519Y-92888839D01*
X162918940Y-92747418D01*
X163110589Y-92747418D01*
X163110589Y-93334818D01*
G37*
G36*
X162577519Y-92888839D02*
G01*
X162577519Y-93193397D01*
X162436098Y-93334818D01*
X162131540Y-93334818D01*
X161990119Y-93193397D01*
X161990119Y-92888839D01*
X162131540Y-92747418D01*
X162436098Y-92747418D01*
X162577519Y-92888839D01*
G37*
%TO.C,U12*%
G36*
X133626300Y-89250000D02*
G01*
X132073700Y-89250000D01*
X132073700Y-87976800D01*
X133626300Y-87976800D01*
X133626300Y-89250000D01*
G37*
G36*
X133626300Y-90723200D02*
G01*
X132073700Y-90723200D01*
X132073700Y-89450000D01*
X133626300Y-89450000D01*
X133626300Y-90723200D01*
G37*
%TD*%
D11*
%TO.C,R9*%
X166781250Y-53337500D03*
X166781250Y-51512500D03*
%TD*%
D12*
%TO.C,C37*%
X136145000Y-108597500D03*
X136145000Y-110322500D03*
%TD*%
D13*
%TO.C,C26*%
X144788900Y-92667100D03*
X144788900Y-90942100D03*
%TD*%
D14*
%TO.C,L2*%
X122850000Y-105450000D03*
X128400000Y-105450000D03*
%TD*%
D11*
%TO.C,R4*%
X124413598Y-58717500D03*
X124413598Y-56892500D03*
%TD*%
D13*
%TO.C,C7*%
X164650000Y-37692500D03*
X164650000Y-35967500D03*
%TD*%
D15*
%TO.C,R13*%
X157471382Y-88716119D03*
X159296382Y-88716119D03*
%TD*%
D13*
%TO.C,C10*%
X127263598Y-69205001D03*
X127263598Y-67480001D03*
%TD*%
D16*
%TO.C,C1*%
X134256098Y-67389800D03*
X132531098Y-67389800D03*
%TD*%
D12*
%TO.C,C13*%
X159750000Y-40057500D03*
X159750000Y-41782500D03*
%TD*%
D13*
%TO.C,C34*%
X127511100Y-93012500D03*
X127511100Y-91287500D03*
%TD*%
D17*
%TO.C,C41*%
X132182500Y-112800000D03*
X133907500Y-112800000D03*
%TD*%
D15*
%TO.C,R10*%
X157268750Y-44475000D03*
X159093750Y-44475000D03*
%TD*%
D13*
%TO.C,C20*%
X155131250Y-54600000D03*
X155131250Y-52875000D03*
%TD*%
D18*
%TO.C,J2*%
X122930001Y-37104599D03*
D19*
X127195001Y-37179600D03*
D20*
X120840000Y-24654601D03*
D21*
X133500000Y-25134600D03*
D22*
X120620000Y-35904599D03*
X133580000Y-35904599D03*
D23*
X124720000Y-24634601D03*
X125820000Y-24634601D03*
X126920000Y-24634601D03*
X128020001Y-24634601D03*
X129120001Y-24634601D03*
X130220001Y-24634601D03*
X131320002Y-24634601D03*
X132420000Y-24634601D03*
%TD*%
D12*
%TO.C,C36*%
X125745000Y-110437500D03*
X125745000Y-112162500D03*
%TD*%
D24*
%TO.C,U8*%
X151855050Y-92600001D03*
X151855050Y-92099999D03*
X151855050Y-91600000D03*
X151855050Y-91100001D03*
X151855050Y-90599999D03*
X147422750Y-90599999D03*
X147422750Y-91100001D03*
X147422750Y-91600000D03*
X147422750Y-92099999D03*
X147422750Y-92600001D03*
D25*
X149638900Y-91600000D03*
%TD*%
D12*
%TO.C,C42*%
X155500000Y-104887500D03*
X155500000Y-106612500D03*
%TD*%
D15*
%TO.C,R19*%
X134732500Y-101250000D03*
X136557500Y-101250000D03*
%TD*%
D13*
%TO.C,C32*%
X167983882Y-95778617D03*
X167983882Y-94053617D03*
%TD*%
D11*
%TO.C,R6*%
X122563598Y-58717500D03*
X122563598Y-56892500D03*
%TD*%
D17*
%TO.C,C44*%
X138337500Y-39505000D03*
X140062500Y-39505000D03*
%TD*%
D12*
%TO.C,C17*%
X163381250Y-53012500D03*
X163381250Y-54737500D03*
%TD*%
D17*
%TO.C,C46*%
X154187497Y-70100001D03*
X155912497Y-70100001D03*
%TD*%
D16*
%TO.C,C29*%
X144731400Y-87700000D03*
X143006400Y-87700000D03*
%TD*%
D17*
%TO.C,C14*%
X162757500Y-40000000D03*
X164482500Y-40000000D03*
%TD*%
D13*
%TO.C,C33*%
X127511100Y-89462500D03*
X127511100Y-87737500D03*
%TD*%
D12*
%TO.C,C40*%
X144845000Y-103837500D03*
X144845000Y-105562500D03*
%TD*%
%TO.C,C12*%
X126163598Y-45167501D03*
X126163598Y-46892501D03*
%TD*%
D11*
%TO.C,R11*%
X155131250Y-58712501D03*
X155131250Y-56887501D03*
%TD*%
D26*
%TO.C,U5*%
X160109550Y-56800001D03*
X160109550Y-57449999D03*
X160109550Y-58100001D03*
X160109550Y-58749999D03*
X164452950Y-58749999D03*
X164452950Y-58100001D03*
X164452950Y-57449999D03*
X164452950Y-56800001D03*
%TD*%
D11*
%TO.C,R17*%
X139195000Y-110372500D03*
X139195000Y-108547500D03*
%TD*%
D27*
%TO.C,U14*%
X132800000Y-105025000D03*
D28*
X133199999Y-105700000D03*
X133700000Y-105700000D03*
X134200000Y-105700000D03*
X134699998Y-105700000D03*
D27*
X135100000Y-105025000D03*
%TD*%
D12*
%TO.C,C35*%
X128845000Y-110437500D03*
X128845000Y-112162500D03*
%TD*%
D29*
%TO.C,U10*%
X154139397Y-66200000D03*
X154139397Y-66700002D03*
X154139397Y-67200001D03*
X154139397Y-67700000D03*
X154139397Y-68200002D03*
X158482797Y-68200002D03*
X158482797Y-67700000D03*
X158482797Y-67200001D03*
X158482797Y-66700002D03*
X158482797Y-66200000D03*
%TD*%
D30*
%TO.C,U15*%
X163450000Y-104900000D03*
X161150000Y-104900000D03*
D31*
X161150000Y-111200000D03*
D30*
X158850000Y-104900000D03*
%TD*%
D32*
%TO.C,R3*%
X133613598Y-48830001D03*
X133613598Y-50655001D03*
%TD*%
D12*
%TO.C,C38*%
X139045000Y-103837500D03*
X139045000Y-105562500D03*
%TD*%
D13*
%TO.C,C16*%
X161131250Y-54725000D03*
X161131250Y-53000000D03*
%TD*%
D33*
%TO.C,R5*%
X159612500Y-37750000D03*
X157787500Y-37750000D03*
%TD*%
%TO.C,R14*%
X163196382Y-88666117D03*
X161371382Y-88666117D03*
%TD*%
D12*
%TO.C,C39*%
X141945000Y-103837500D03*
X141945000Y-105562500D03*
%TD*%
D13*
%TO.C,C6*%
X134313598Y-58680000D03*
X134313598Y-56955000D03*
%TD*%
D12*
%TO.C,C30*%
X158050000Y-92733818D03*
X158050000Y-94458818D03*
%TD*%
D16*
%TO.C,C28*%
X167246382Y-92216117D03*
X165521382Y-92216117D03*
%TD*%
D11*
%TO.C,R8*%
X163859550Y-49362501D03*
X163859550Y-47537501D03*
%TD*%
D33*
%TO.C,R12*%
X148700000Y-87700000D03*
X146875000Y-87700000D03*
%TD*%
D11*
%TO.C,R2*%
X123513598Y-65317500D03*
X123513598Y-63492500D03*
%TD*%
D15*
%TO.C,R18*%
X137362500Y-112800000D03*
X139187500Y-112800000D03*
%TD*%
D12*
%TO.C,C4*%
X126213598Y-52630001D03*
X126213598Y-54355001D03*
%TD*%
%TO.C,C48*%
X110250000Y-31337500D03*
X110250000Y-33062500D03*
%TD*%
D34*
%TO.C,D1*%
X139800000Y-101250000D03*
X141850000Y-101250000D03*
%TD*%
D13*
%TO.C,C3*%
X128513598Y-54355001D03*
X128513598Y-52630001D03*
%TD*%
D17*
%TO.C,C22*%
X125187500Y-39200000D03*
X126912500Y-39200000D03*
%TD*%
D35*
%TO.C,U2*%
X134164399Y-69905000D03*
X133214398Y-69905000D03*
X132264397Y-69905000D03*
X132264397Y-72660900D03*
X134164399Y-72660900D03*
%TD*%
D13*
%TO.C,C19*%
X166781250Y-56887500D03*
X166781250Y-55162500D03*
%TD*%
D12*
%TO.C,C2*%
X134313598Y-62192500D03*
X134313598Y-63917500D03*
%TD*%
D17*
%TO.C,C47*%
X165787497Y-70100001D03*
X167512497Y-70100001D03*
%TD*%
D32*
%TO.C,R1*%
X162700000Y-35917500D03*
X162700000Y-37742500D03*
%TD*%
D36*
%TO.C,U6*%
X159785000Y-36150000D03*
X159785000Y-35650000D03*
X159785000Y-35150000D03*
X158315000Y-35150000D03*
X158315000Y-35650000D03*
X158315000Y-36150000D03*
%TD*%
D13*
%TO.C,C23*%
X169059550Y-60762501D03*
X169059550Y-59037501D03*
%TD*%
D29*
%TO.C,U11*%
X165539397Y-66200000D03*
X165539397Y-66700002D03*
X165539397Y-67200001D03*
X165539397Y-67700000D03*
X165539397Y-68200002D03*
X169882797Y-68200002D03*
X169882797Y-67700000D03*
X169882797Y-67200001D03*
X169882797Y-66700002D03*
X169882797Y-66200000D03*
%TD*%
D32*
%TO.C,R7*%
X155800000Y-35337500D03*
X155800000Y-37162500D03*
%TD*%
D37*
%TO.C,U1*%
X126600000Y-60900000D03*
X126600000Y-62170000D03*
X126600000Y-63440000D03*
X126600000Y-64710000D03*
X131427198Y-64710000D03*
X131427198Y-63440000D03*
X131427198Y-62170000D03*
X131427198Y-60900000D03*
%TD*%
D33*
%TO.C,R20*%
X133957500Y-110380000D03*
X132132500Y-110380000D03*
%TD*%
D13*
%TO.C,C9*%
X129913598Y-69255001D03*
X129913598Y-67530001D03*
%TD*%
D33*
%TO.C,R16*%
X166896382Y-88666119D03*
X165071382Y-88666119D03*
%TD*%
D12*
%TO.C,C5*%
X131963598Y-56942500D03*
X131963598Y-58667500D03*
%TD*%
D11*
%TO.C,R15*%
X125611100Y-91312500D03*
X125611100Y-89487500D03*
%TD*%
D29*
%TO.C,U7*%
X142739397Y-66050000D03*
X142739397Y-66550002D03*
X142739397Y-67050001D03*
X142739397Y-67550000D03*
X142739397Y-68050002D03*
X147082797Y-68050002D03*
X147082797Y-67550000D03*
X147082797Y-67050001D03*
X147082797Y-66550002D03*
X147082797Y-66050000D03*
%TD*%
D38*
%TO.C,U12*%
X135034400Y-90975001D03*
X135034400Y-90324999D03*
X135034400Y-89675001D03*
X135034400Y-89025002D03*
X135034400Y-88375001D03*
X135034400Y-87725002D03*
X130665600Y-87724999D03*
X130665600Y-88375001D03*
X130665600Y-89024999D03*
X130665600Y-89674998D03*
X130665600Y-90324999D03*
X130665600Y-90974998D03*
%TD*%
D12*
%TO.C,C21*%
X157231250Y-52875000D03*
X157231250Y-54600000D03*
%TD*%
%TO.C,C31*%
X139561100Y-87762200D03*
X139561100Y-89487200D03*
%TD*%
D13*
%TO.C,C25*%
X154138900Y-92667100D03*
X154138900Y-90942100D03*
%TD*%
D17*
%TO.C,C45*%
X142687497Y-70100001D03*
X144412497Y-70100001D03*
%TD*%
D12*
%TO.C,C24*%
X166781250Y-59037501D03*
X166781250Y-60762501D03*
%TD*%
D13*
%TO.C,C11*%
X128463598Y-46892501D03*
X128463598Y-45167501D03*
%TD*%
D16*
%TO.C,C15*%
X157512500Y-40000000D03*
X155787500Y-40000000D03*
%TD*%
D39*
%TO.C,L1*%
X163373882Y-97116117D03*
X161193882Y-97116117D03*
%TD*%
D12*
%TO.C,C8*%
X122213598Y-52692500D03*
X122213598Y-54417500D03*
%TD*%
D26*
%TO.C,U3*%
X129506998Y-50779999D03*
X129506998Y-50130001D03*
X129506998Y-49479999D03*
X129506998Y-48830001D03*
X125163598Y-48830001D03*
X125163598Y-49479999D03*
X125163598Y-50130001D03*
X125163598Y-50779999D03*
%TD*%
D40*
%TO.C,U4*%
X160905400Y-50630000D03*
X160905400Y-49360000D03*
X160905400Y-48090000D03*
X160905400Y-46820000D03*
X155457100Y-46820000D03*
X155457100Y-48090000D03*
X155457100Y-49360000D03*
X155457100Y-50630000D03*
%TD*%
D12*
%TO.C,C27*%
X166333882Y-95961617D03*
X166333882Y-97686617D03*
%TD*%
D13*
%TO.C,C18*%
X154000000Y-37112500D03*
X154000000Y-35387500D03*
%TD*%
D17*
%TO.C,C43*%
X161200000Y-101850000D03*
X162925000Y-101850000D03*
%TD*%
M02*
