M48
; DRILL file KiCad 10.0.3 date 2026-08-04T14:19:52
; FORMAT={-:-/ absolute / metric / decimal}
; #@! TF.CreationDate,2026-08-04T14:19:52+02:00
; #@! TF.GenerationSoftware,Kicad,Pcbnew,10.0.3
; #@! TF.FileFunction,Plated,1,4,PTH
FMAT,2
METRIC
; #@! TA.AperFunction,Plated,PTH,ComponentDrill
T1C0.254
; #@! TA.AperFunction,Plated,PTH,ViaDrill
T2C0.300
; #@! TA.AperFunction,Plated,PTH,ComponentDrill
T3C0.800
; #@! TA.AperFunction,Plated,PTH,ComponentDrill
T4C1.000
; #@! TA.AperFunction,Plated,PTH,ComponentDrill
T5C1.380
%
G90
G05
T1
X161.89Y-92.647
X161.89Y-93.435
X162.678Y-92.647
X162.678Y-93.435
T2
X108.6Y-31.35
X109.2Y-33.95
X110.75Y-101.25
X111.0Y-35.85
X111.35Y-99.9
X111.7Y-87.95
X119.35Y-101.15
X119.35Y-103.1
X119.7Y-81.1
X120.5Y-39.3
X121.1Y-83.25
X121.2Y-58.0
X122.1Y-39.6
X122.9Y-81.05
X123.864Y-55.293
X124.25Y-66.6
X124.366Y-91.975
X124.5Y-83.0
X125.2Y-68.65
X125.5Y-30.6
X125.5Y-32.1
X125.616Y-88.075
X125.814Y-67.793
X126.25Y-81.05
X127.9Y-79.05
X130.1Y-45.2
X130.1Y-81.0
X130.35Y-112.15
X130.414Y-53.243
X130.414Y-54.743
X130.75Y-109.65
X130.8Y-47.3
X131.2Y-103.2
X132.0Y-55.6
X133.05Y-101.25
X133.3Y-106.8
X134.55Y-27.3
X134.55Y-28.3
X135.15Y-107.45
X136.0Y-62.6
X136.0Y-64.589
X136.014Y-56.95
X136.014Y-59.093
X137.25Y-64.6
X137.35Y-114.1
X137.4Y-76.85
X137.45Y-105.95
X137.75Y-80.75
X137.95Y-40.95
X138.25Y-64.65
X139.35Y-64.65
X139.55Y-90.85
X139.75Y-41.0
X139.85Y-38.3
X140.15Y-43.0
X140.8Y-77.45
X140.85Y-51.1
X140.95Y-73.35
X141.5Y-41.1
X142.0Y-112.65
X142.15Y-51.1
X142.2Y-82.25
X142.55Y-77.8
X142.9Y-71.5
X143.3Y-91.85
X143.4Y-51.1
X143.4Y-60.25
X143.75Y-85.9
X144.2Y-110.55
X144.55Y-71.5
X144.55Y-75.9
X144.65Y-58.25
X144.7Y-51.1
X145.95Y-51.1
X146.15Y-71.95
X146.4Y-74.3
X146.75Y-99.85
X147.2Y-42.4
X147.4Y-115.2
X147.5Y-101.05
X147.95Y-47.0
X148.05Y-38.1
X148.05Y-50.95
X148.55Y-120.5
X148.6Y-69.7
X148.825Y-57.775
X149.05Y-66.35
X149.1Y-90.95
X149.1Y-92.25
X149.2Y-116.05
X149.25Y-101.95
X149.25Y-114.15
X149.35Y-100.25
X149.65Y-91.65
X149.8Y-51.1
X150.1Y-88.45
X150.15Y-92.25
X150.2Y-90.95
X150.75Y-112.7
X150.85Y-115.85
X151.15Y-101.65
X151.25Y-114.6
X151.35Y-51.1
X151.35Y-100.1
X151.5Y-33.95
X151.6Y-31.95
X151.6Y-37.75
X151.65Y-74.5
X151.85Y-72.95
X152.25Y-39.55
X152.35Y-70.45
X152.5Y-35.4
X152.8Y-47.15
X152.8Y-51.05
X153.05Y-43.55
X153.55Y-49.1
X153.85Y-39.45
X153.95Y-41.4
X155.35Y-44.4
X155.5Y-74.15
X155.55Y-90.942
X156.05Y-42.3
X156.3Y-108.4
X156.6Y-71.2
X157.4Y-96.3
X158.2Y-74.35
X158.3Y-41.55
X158.98Y-53.68
X159.05Y-52.35
X159.3Y-54.75
X159.85Y-69.7
X159.85Y-90.1
X160.61Y-45.2
X160.85Y-100.4
X160.9Y-34.3
X161.1Y-65.6
X161.3Y-74.25
X162.6Y-100.4
X163.1Y-72.95
X163.85Y-70.15
X163.9Y-75.3
X164.15Y-90.1
X164.8Y-97.45
X164.91Y-52.55
X165.86Y-47.95
X166.0Y-36.55
X166.334Y-99.084
X166.45Y-71.25
X166.81Y-49.75
X167.246Y-90.8
X167.6Y-72.9
X169.2Y-76.25
X170.85Y-69.7
X171.06Y-59.5
X171.06Y-61.15
X172.75Y-65.6
X172.8Y-39.6
X172.8Y-41.35
X179.15Y-44.45
X179.15Y-47.75
X179.15Y-52.1
X179.15Y-55.5
X179.15Y-59.6
X179.15Y-63.2
X179.15Y-66.3
X179.15Y-69.3
X180.2Y-41.35
X181.25Y-69.3
X181.3Y-44.45
X181.3Y-47.75
X181.3Y-66.3
X181.35Y-52.1
X181.35Y-55.5
X181.35Y-59.6
X181.35Y-63.2
T4
X113.845Y-27.495
X113.845Y-30.035
X113.845Y-32.575
X113.845Y-35.115
X113.845Y-37.655
X113.845Y-40.195
X113.845Y-42.735
X113.845Y-45.275
X113.845Y-47.815
X113.845Y-50.355
X113.845Y-52.895
X113.845Y-55.435
X113.845Y-57.975
X113.845Y-60.515
X113.845Y-63.055
X113.845Y-65.595
X113.845Y-68.135
X113.845Y-70.675
X113.845Y-73.215
X113.845Y-75.755
X113.845Y-78.295
X113.845Y-80.835
X113.845Y-83.375
X113.845Y-85.915
X113.845Y-88.455
X113.845Y-90.995
X113.845Y-93.535
X113.845Y-96.075
X113.845Y-98.615
X113.845Y-101.155
X113.845Y-103.695
X113.845Y-106.235
X113.845Y-108.775
X113.845Y-111.315
X113.845Y-113.855
X116.385Y-27.495
X116.385Y-30.035
X116.385Y-32.575
X116.385Y-35.115
X116.385Y-37.655
X116.385Y-40.195
X116.385Y-42.735
X116.385Y-45.275
X116.385Y-47.815
X116.385Y-50.355
X116.385Y-52.895
X116.385Y-55.435
X116.385Y-57.975
X116.385Y-60.515
X116.385Y-63.055
X116.385Y-65.595
X116.385Y-68.135
X116.385Y-70.675
X116.385Y-73.215
X116.385Y-75.755
X116.385Y-78.295
X116.385Y-80.835
X116.385Y-83.375
X116.385Y-85.915
X116.385Y-88.455
X116.385Y-90.995
X116.385Y-93.535
X116.385Y-96.075
X116.385Y-98.615
X116.385Y-101.155
X116.385Y-103.695
X116.385Y-106.235
X116.385Y-108.775
X116.385Y-111.315
X116.385Y-113.855
X138.32Y-33.45
X138.32Y-35.99
X140.86Y-33.45
X140.86Y-35.99
X143.4Y-33.45
X143.4Y-35.99
X145.94Y-33.45
X145.94Y-35.99
X148.48Y-33.45
X148.48Y-35.99
X174.805Y-27.495
X174.805Y-30.035
X174.805Y-32.575
X174.805Y-35.115
X174.805Y-37.655
X174.805Y-40.195
X174.805Y-42.735
X174.805Y-45.275
X174.805Y-47.815
X174.805Y-50.355
X174.805Y-52.895
X174.805Y-55.435
X174.805Y-57.975
X174.805Y-60.515
X174.805Y-63.055
X174.805Y-65.595
X174.805Y-68.135
X174.805Y-70.675
X174.805Y-73.215
X174.805Y-75.755
X174.805Y-78.295
X174.805Y-80.835
X174.805Y-83.375
X174.805Y-85.915
X174.805Y-88.455
X174.805Y-90.995
X174.805Y-93.535
X174.805Y-96.075
X174.805Y-98.615
X174.805Y-101.155
X174.805Y-103.695
X174.805Y-106.235
X174.805Y-108.775
X174.805Y-111.315
X174.805Y-113.855
X177.345Y-27.495
X177.345Y-30.035
X177.345Y-32.575
X177.345Y-35.115
X177.345Y-37.655
X177.345Y-40.195
X177.345Y-42.735
X177.345Y-45.275
X177.345Y-47.815
X177.345Y-50.355
X177.345Y-52.895
X177.345Y-55.435
X177.345Y-57.975
X177.345Y-60.515
X177.345Y-63.055
X177.345Y-65.595
X177.345Y-68.135
X177.345Y-70.675
X177.345Y-73.215
X177.345Y-75.755
X177.345Y-78.295
X177.345Y-80.835
X177.345Y-83.375
X177.345Y-85.915
X177.345Y-88.455
X177.345Y-90.995
X177.345Y-93.535
X177.345Y-96.075
X177.345Y-98.615
X177.345Y-101.155
X177.345Y-103.695
X177.345Y-106.235
X177.345Y-108.775
X177.345Y-111.315
X177.345Y-113.855
T3
G00X154.1Y-31.75
M15
G01X154.1Y-31.05
M16
G05
G00X159.45Y-26.4
M15
G01X158.75Y-26.4
M16
G05
G00X164.1Y-31.75
M15
G01X164.1Y-31.05
M16
G05
T5
G00X109.3Y-127.191
M15
G01X109.3Y-128.211
M16
G05
G00X182.2Y-127.191
M15
G01X182.2Y-128.211
M16
G05
M30
